<?xml version="1.0" standalone="no"?>
<!DOCTYPE svg PUBLIC "-//W3C//DTD SVG 1.1//EN" "http://www.w3.org/Graphics/SVG/1.1/DTD/svg11.dtd" >
<svg xmlns="http://www.w3.org/2000/svg" xmlns:xlink="http://www.w3.org/1999/xlink" version="1.1">
<metadata>
Created by FontForge 20170731 at Thu Mar 20 01:12:21 2014
 By Aleksey,,,
Copyright (C) 2001, 2011 Hoefler &#38; Co. http://www.typography.com
</metadata>
<defs>
<font id="GothamNarrow-Bold" horiz-adv-x="353" >
  <font-face 
    font-family="Gotham Narrow Bold"
    font-weight="400"
    font-stretch="condensed"
    units-per-em="1000"
    panose-1="0 0 0 0 0 0 0 0 0 0"
    ascent="800"
    descent="-200"
    x-height="536"
    cap-height="700"
    bbox="-203 -274 1079 994"
    underline-thickness="50"
    underline-position="-200"
    unicode-range="U+0020-FB04"
  />
<missing-glyph horiz-adv-x="500" 
d="M0 -200v1000h500v-1000h-500zM71 750l179 -390l179 390h-358zM50 -76l172 376l-172 376v-752zM450 676l-172 -376l172 -376v752zM250 240l-179 -390h358z" />
    <glyph glyph-name="f_f" unicode="ff" horiz-adv-x="671" 
d="M79 0v416h-54v116h54v36q0 80 40 120t117 40q49 0 88 -12v-117q-31 9 -52 9q-52 0 -52 -55v-21h103v-116h-102v-416h-142zM415 0v416h-53v116h53v36q0 81 40 120q39 40 117 40q49 0 88 -12v-117q-31 9 -52 9q-53 0 -53 -55v-21h104v-116h-102v-416h-142z" />
    <glyph glyph-name="fi" unicode="fi" horiz-adv-x="604" 
d="M79 0v416h-54v116h54v36q0 80 40 120t117 40q49 0 88 -12v-117q-31 9 -52 9q-52 0 -52 -55v-21h104v-116h-103v-416h-142zM399 0v536h142v-536h-142zM396 593v129h148v-129h-148z" />
    <glyph glyph-name="fl" unicode="fl" horiz-adv-x="604" 
d="M79 0v416h-54v116h54v36q0 80 40 120t117 40q49 0 88 -12v-117q-31 9 -52 9q-52 0 -52 -55v-21h104v-116h-103v-416h-142zM399 0v722h142v-722h-142z" />
    <glyph glyph-name="f_f_i" unicode="ffi" horiz-adv-x="938" 
d="M79 0v416h-54v116h54v36q0 80 40 120t117 40q49 0 88 -12v-117q-31 9 -52 9q-52 0 -52 -55v-21h103v-116h-102v-416h-142zM415 0v416h-53v116h53v36q0 81 40 120q39 40 117 40q49 0 88 -12v-117q-31 9 -52 9q-53 0 -53 -55v-21h104v-116h-102v-416h-142zM734 0v536h141
v-536h-141zM731 593v129h147v-129h-147z" />
    <glyph glyph-name="f_f_l" unicode="ffl" horiz-adv-x="938" 
d="M79 0v416h-54v116h54v36q0 80 40 120t117 40q49 0 88 -12v-117q-31 9 -52 9q-52 0 -52 -55v-21h103v-116h-102v-416h-142zM415 0v416h-53v116h53v36q0 81 40 120q39 40 117 40q49 0 88 -12v-117q-31 9 -52 9q-53 0 -53 -55v-21h104v-116h-102v-416h-142zM734 0v722h141
v-722h-141z" />
    <glyph glyph-name=".notdef" horiz-adv-x="500" 
d="M0 -200v1000h500v-1000h-500zM71 750l179 -390l179 390h-358zM50 -76l172 376l-172 376v-752zM450 676l-172 -376l172 -376v752zM250 240l-179 -390h358z" />
    <glyph glyph-name=".null" horiz-adv-x="0" 
 />
    <glyph glyph-name="nonmarkingreturn" horiz-adv-x="333" 
 />
    <glyph glyph-name="space" unicode=" " horiz-adv-x="224" 
 />
    <glyph glyph-name="exclam" unicode="!" horiz-adv-x="294" 
d="M108 232l-45 448v20h168v-20l-46 -448h-77zM69 0v154h155v-154h-155z" />
    <glyph glyph-name="quotedbl" unicode="&#x22;" horiz-adv-x="468" 
d="M269 381l12 319h154v-6l-99 -313h-67zM53 381l13 319h154v-6l-99 -313h-68z" />
    <glyph glyph-name="numbersign" unicode="#" horiz-adv-x="605" 
d="M546 275v-122h-97l-22 -153h-116l23 153h-121l-23 -153h-116l22 153h-68v122h86l23 154h-79v122h97l22 149h116l-22 -149h121l21 149h116l-22 -149h69v-122h-87l-22 -154h79zM251 432l-24 -160h126l24 160h-126z" />
    <glyph glyph-name="dollar" unicode="$" horiz-adv-x="559" 
d="M506 623l-73 -107q-59 44 -102 56v-161q100 -41 143.5 -90.5t43.5 -124.5v-2q0 -77 -50.5 -128.5t-133.5 -64.5v-102h-97v102q-124 15 -208 95l78 106q69 -61 133 -76v168q-99 41 -141 89t-42 124v1q0 77 49 128t131 63v64h97v-63q98 -14 172 -77zM379 189q0 39 -48 67
v-131q48 15 48 63v1zM196 516q0 -39 44 -64v122q-44 -15 -44 -57v-1z" />
    <glyph glyph-name="percent" unicode="%" horiz-adv-x="774" 
d="M191 345q-68 0 -110 49.5t-42 126.5v8q0 77 43 128t111 51t110 -50t42 -127v-8q0 -77 -43 -127.5t-111 -50.5zM191 619q-26 0 -40 -24.5t-14 -65.5v-5q0 -41 15.5 -66t40.5 -25q26 0 40 24.5t14 65.5v5q0 41 -15.5 66t-40.5 25zM355 372l208 328h105l-248 -372l-209 -328
h-104zM581 -8q-68 0 -110 50t-42 127v8q0 77 43 127.5t111 50.5t110 -49.5t42 -126.5v-8q0 -78 -42.5 -128.5t-111.5 -50.5zM583 81q26 0 40 24.5t14 65.5v5q0 41 -15.5 66t-40.5 25t-39.5 -24.5t-14.5 -65.5v-5q0 -41 15.5 -66t40.5 -25z" />
    <glyph glyph-name="ampersand" unicode="&#x26;" horiz-adv-x="618" 
d="M493 -14l-67 76q-82 -72 -183 -72q-93 0 -154 54.5t-61 143.5v3q0 125 127 196q-52 79 -52 146v3q0 73 52.5 124.5t139.5 51.5q81 0 131 -48t50 -121v-4q0 -119 -133 -184l84 -101q26 46 52 110l108 -47q-34 -89 -78 -157l89 -102zM272 436q79 37 79 97v2q0 28 -16 45.5
t-42 17.5q-27 0 -43.5 -18.5t-16.5 -47.5v-2q0 -41 39 -94zM260 110q46 0 90 38l-120 147q-58 -37 -58 -98v-2q0 -38 24.5 -61.5t63.5 -23.5z" />
    <glyph glyph-name="quotesingle" unicode="'" horiz-adv-x="255" 
d="M53 381l13 319h156v-6l-100 -313h-69z" />
    <glyph glyph-name="parenleft" unicode="(" horiz-adv-x="402" 
d="M313 -139q-259 127 -259 426q0 300 259 427l56 -93q-92 -59 -133.5 -140.5t-41.5 -193.5t41.5 -193t133.5 -140z" />
    <glyph glyph-name="parenright" unicode=")" horiz-adv-x="402" 
d="M89 -139l-56 93q92 59 133.5 140t41.5 193t-41.5 193.5t-133.5 140.5l56 93q259 -127 259 -427q0 -299 -259 -426z" />
    <glyph glyph-name="asterisk" unicode="*" horiz-adv-x="391" 
d="M155 379l16 117l-90 -71l-41 71l106 44l-106 44l41 72l90 -72l-16 118h81l-16 -118l90 72l41 -72l-106 -44l106 -44l-41 -71l-90 71l16 -117h-81z" />
    <glyph glyph-name="plus" unicode="+" horiz-adv-x="563" 
d="M215 124v163h-161v130h161v163h133v-163h161v-130h-161v-163h-133z" />
    <glyph glyph-name="comma" unicode="," horiz-adv-x="267" 
d="M37 -162l-12 59q51 7 74 34.5t19 68.5h-62v154h155v-129q0 -179 -174 -187z" />
    <glyph glyph-name="hyphen" unicode="-" horiz-adv-x="387" 
d="M47 241v138h293v-138h-293z" />
    <glyph glyph-name="period" unicode="." horiz-adv-x="267" 
d="M56 0v154h155v-154h-155z" />
    <glyph glyph-name="slash" unicode="/" horiz-adv-x="464" 
d="M-22 -119l376 908h120l-376 -908h-120z" />
    <glyph glyph-name="zero" unicode="0" horiz-adv-x="636" 
d="M317 -12q-124 0 -198 97t-74 258v13q0 161 75 258.5t199 97.5q123 0 197.5 -97t74.5 -258v-13q0 -161 -75 -258.5t-199 -97.5zM319 120q57 0 90.5 58.5t33.5 166.5v9q0 108 -34.5 167t-91.5 59t-90.5 -58t-33.5 -167v-9q0 -108 34 -167t92 -59z" />
    <glyph glyph-name="one" unicode="1" horiz-adv-x="372" 
d="M151 0v556l-107 -29l-23 126l173 52h100v-705h-143z" />
    <glyph glyph-name="two" unicode="2" horiz-adv-x="545" 
d="M44 0v117l206 212q58 59 79.5 93.5t21.5 71.5q0 39 -23.5 61t-60.5 22q-35 0 -63.5 -19.5t-64.5 -63.5l-94 89q93 127 233 127q98 0 159 -55t61 -149v-2q0 -69 -32.5 -121t-116.5 -134l-117 -119h267v-130h-455z" />
    <glyph glyph-name="three" unicode="3" horiz-adv-x="540" 
d="M257 -12q-140 0 -231 98l87 102q64 -68 141 -68q43 0 70 25t27 66v2q0 45 -36.5 70t-103.5 25h-42l-17 92l154 171h-243v129h421v-115l-164 -172q76 -15 125 -63t49 -132v-3q0 -101 -65.5 -164t-171.5 -63z" />
    <glyph glyph-name="four" unicode="4" horiz-adv-x="604" 
d="M345 0v144h-301l-18 105l329 455h127v-439h85v-121h-85v-144h-137zM185 265h160v226z" />
    <glyph glyph-name="five" unicode="5" horiz-adv-x="548" 
d="M256 -12q-129 0 -224 89l81 108q73 -63 140 -63q49 0 78 27.5t29 75.5v1q0 46 -31.5 72.5t-81.5 26.5q-46 0 -96 -22l-81 53l20 344h383v-130h-263l-8 -127q38 10 78 10q97 0 159.5 -55t62.5 -166v-3q0 -111 -68 -176t-178 -65z" />
    <glyph glyph-name="six" unicode="6" horiz-adv-x="584" 
d="M298 -12q-106 0 -172 66q-81 84 -81 270v6q0 181 72.5 281.5t207.5 100.5q99 0 186 -65l-70 -115q-60 47 -119 47q-62 0 -93.5 -48.5t-35.5 -118.5q63 42 131 42q92 0 153.5 -57.5t61.5 -164.5v-2q0 -106 -69 -174t-172 -68zM294 115q48 0 75.5 29.5t27.5 78.5v2
q0 49 -28 78t-76 29t-75 -29t-27 -78v-1q0 -49 27.5 -79t75.5 -30z" />
    <glyph glyph-name="seven" unicode="7" horiz-adv-x="539" 
d="M73 0l269 569h-290v131h447v-108l-268 -592h-158z" />
    <glyph glyph-name="eight" unicode="8" horiz-adv-x="563" 
d="M282 -10q-107 0 -176 55t-69 146v3q0 116 105 169q-84 54 -84 153v4q0 82 62.5 136t161.5 54t161.5 -54t62.5 -136v-4q0 -99 -85 -153q51 -28 78 -66.5t27 -99.5v-4q0 -93 -68.5 -148t-175.5 -55zM282 415q38 0 62.5 25t24.5 65v1q0 38 -24.5 62t-62.5 24
q-39 0 -63.5 -24t-24.5 -62v-1q0 -40 24.5 -65t63.5 -25zM282 109q47 0 75.5 25.5t28.5 68.5v2q0 43 -29.5 68t-74.5 25q-46 0 -75 -25t-29 -68v-2q0 -42 28.5 -68t75.5 -26z" />
    <glyph glyph-name="nine" unicode="9" horiz-adv-x="583" 
d="M261 121q61 0 92.5 47t35.5 114q-54 -43 -128 -43q-96 0 -156.5 59t-60.5 166v3q0 107 68 176t173 69q106 0 172 -67q81 -83 81 -269v-6q0 -183 -73 -282.5t-206 -99.5q-109 0 -198 72l70 114q66 -53 130 -53zM290 361q48 0 75 30t27 80v2q0 51 -28 81.5t-76 30.5
t-75 -30t-27 -81v-2q0 -51 27.5 -81t76.5 -30z" />
    <glyph glyph-name="colon" unicode=":" horiz-adv-x="277" 
d="M61 382v154h155v-154h-155zM61 0v154h155v-154h-155z" />
    <glyph glyph-name="semicolon" unicode=";" horiz-adv-x="277" 
d="M61 382v154h155v-154h-155zM42 -162l-12 59q51 7 74 34.5t19 68.5h-62v154h155v-129q0 -179 -174 -187z" />
    <glyph glyph-name="less" unicode="&#x3c;" horiz-adv-x="563" 
d="M491 81l-435 206v130l435 206v-141l-295 -129l295 -129v-143z" />
    <glyph glyph-name="equal" unicode="=" horiz-adv-x="563" 
d="M58 405v133h446v-133h-446zM58 166v133h446v-133h-446z" />
    <glyph glyph-name="greater" unicode="&#x3e;" horiz-adv-x="563" 
d="M72 81v141l295 129l-295 129v143l435 -206v-130z" />
    <glyph glyph-name="question" unicode="?" horiz-adv-x="478" 
d="M167 232l-19 166l5 5q151 13 151 99v2q0 34 -23 53t-62 19q-67 0 -125 -60l-82 99q91 93 212 93q102 0 162.5 -54t60.5 -146v-1q0 -154 -173 -196l-11 -79h-96zM136 0v154h155v-154h-155z" />
    <glyph glyph-name="at" unicode="@" horiz-adv-x="878" 
d="M439 -154q-169 0 -281.5 116.5t-112.5 294.5q0 121 52.5 225t146.5 167t208 63q106 0 194 -52t137 -136.5t49 -180.5q0 -125 -53 -201t-137 -76q-98 0 -137 66q-56 -65 -133 -65q-66 0 -110 46.5t-44 124.5q0 110 60.5 190.5t141.5 80.5q76 0 118 -68l10 54l112 -18
l-46 -264q-4 -19 -4 -42q0 -27 16 -42.5t45 -15.5q50 0 84.5 64.5t34.5 166.5q0 132 -97 229.5t-242 97.5q-102 0 -186 -57.5t-130.5 -153t-46.5 -205.5q-1 -161 98.5 -265t254.5 -104q117 0 216 59l20 -33q-107 -66 -238 -66zM407 164q33 0 60 27q47 49 47 126
q0 41 -18.5 65.5t-53.5 24.5q-34 0 -60 -27q-19 -19 -33 -55t-14 -69q0 -43 18.5 -67.5t53.5 -24.5z" />
    <glyph glyph-name="A" unicode="A" horiz-adv-x="674" 
d="M17 0l251 704h138l251 -704h-150l-52 152h-241l-51 -152h-146zM258 280h153l-76 228z" />
    <glyph glyph-name="B" unicode="B" horiz-adv-x="625" 
d="M70 0v700h260q122 0 183 -61q47 -49 47 -119v-3q0 -102 -95 -153q61 -23 93 -62.5t32 -104.5v-5q0 -93 -68 -142.5t-185 -49.5h-267zM417 493v1q0 38 -25.5 58t-72.5 20h-108v-158h101q49 0 77 20t28 59zM447 211q0 38 -28 59.5t-81 21.5h-127v-164h130q50 0 78 21t28 61
v1z" />
    <glyph glyph-name="C" unicode="C" horiz-adv-x="619" 
d="M353 -10q-138 0 -223 97.5t-85 257.5v9q0 158 89 257t228 99q134 0 225 -93l-87 -112q-68 70 -143 70q-71 0 -117 -61t-46 -162v-3q0 -102 47 -163t118 -61t144 73l87 -103q-51 -52 -106 -78.5t-131 -26.5z" />
    <glyph glyph-name="D" unicode="D" horiz-adv-x="674" 
d="M70 0v700h226q151 0 242.5 -95t91.5 -250v-9q0 -155 -91.5 -250.5t-242.5 -95.5h-226zM295 569h-80v-438h80q84 0 134.5 57t50.5 159v5q0 102 -50.5 159.5t-134.5 57.5z" />
    <glyph glyph-name="E" unicode="E" horiz-adv-x="569" 
d="M70 0v700h451v-131h-307v-151h270v-131h-270v-156h311v-131h-455z" />
    <glyph glyph-name="F" unicode="F" horiz-adv-x="554" 
d="M70 0v700h451v-133h-306v-157h269v-133h-269v-277h-145z" />
    <glyph glyph-name="G" unicode="G" horiz-adv-x="672" 
d="M369 -10q-143 0 -233.5 96.5t-90.5 258.5v9q0 155 92 255.5t235 100.5q132 0 229 -82l-86 -113q-65 60 -145 60q-76 0 -126 -62t-50 -158v-8q0 -105 51 -165t131 -60q64 0 104 29v124h-127v126h265v-324q-116 -87 -249 -87z" />
    <glyph glyph-name="H" unicode="H" horiz-adv-x="660" 
d="M70 0v700h145v-281h230v281h145v-700h-145v285h-230v-285h-145z" />
    <glyph glyph-name="I" unicode="I" horiz-adv-x="295" 
d="M75 0v700h145v-700h-145z" />
    <glyph glyph-name="J" unicode="J" horiz-adv-x="484" 
d="M201 -9q-119 0 -192 89l88 102q48 -55 99 -55q80 0 80 103v470h146v-477q0 -114 -60 -174q-58 -58 -161 -58z" />
    <glyph glyph-name="K" unicode="K" horiz-adv-x="633" 
d="M70 0v700h145v-302l229 302h171l-235 -297l245 -403h-170l-175 288l-65 -82v-206h-145z" />
    <glyph glyph-name="L" unicode="L" horiz-adv-x="525" 
d="M70 0v700h145v-567h283v-133h-428z" />
    <glyph glyph-name="M" unicode="M" horiz-adv-x="755" 
d="M70 0v700h152l156 -284l154 284h153v-700h-142v447l-165 -289h-3l-164 287v-445h-141z" />
    <glyph glyph-name="N" unicode="N" horiz-adv-x="683" 
d="M70 0v700h133l268 -408v408h142v-700h-124l-277 423v-423h-142z" />
    <glyph glyph-name="O" unicode="O" horiz-adv-x="723" 
d="M361 -12q-140 0 -228 99t-88 256v12q0 157 89 257t228 100q140 0 228 -99t88 -256v-12q0 -157 -89 -257t-228 -100zM362 122q74 0 120 61t46 163v7q0 102 -46.5 163.5t-120.5 61.5t-120.5 -61t-46.5 -163v-7q0 -102 47 -163.5t121 -61.5z" />
    <glyph glyph-name="P" unicode="P" horiz-adv-x="584" 
d="M70 0v700h233q118 0 187 -64.5t69 -175.5v-2q0 -116 -73 -179.5t-189 -65.5h-82v-213h-145zM215 343h81q55 0 86 31t31 81v1q0 55 -30.5 84t-88.5 29h-79v-226z" />
    <glyph glyph-name="Q" unicode="Q" horiz-adv-x="725" 
d="M693 76l-87 -96l-69 64q-76 -56 -176 -56q-140 0 -228 99t-88 256v12q0 157 89 257t228 100q140 0 228 -99t88 -256v-12q0 -118 -55 -208zM365 121q39 0 70 16l-97 86l86 96l89 -83q15 45 15 108v10q0 102 -46.5 163t-120.5 61q-75 0 -121 -60t-46 -162v-10
q0 -105 47 -165t124 -60z" />
    <glyph glyph-name="R" unicode="R" horiz-adv-x="627" 
d="M70 0v700h263q123 0 190 -67q59 -59 59 -162v-4q0 -150 -130 -207l149 -260h-166l-129 230h-91v-230h-145zM215 358h107q54 0 84 28.5t30 76.5v1q0 52 -30.5 78.5t-86.5 26.5h-104v-211z" />
    <glyph glyph-name="S" unicode="S" horiz-adv-x="550" 
d="M278 -9q-149 0 -259 103l86 107q91 -79 174 -79q42 0 66 19t24 50v1q0 28 -24 48t-96 47q-105 40 -153 85.5t-48 129.5v2q0 91 64 148t165 57q131 0 226 -86l-81 -110q-79 65 -149 65q-37 0 -59 -17t-22 -44v-1q0 -30 25.5 -50t107.5 -54q98 -38 143 -84.5t45 -124.5v-2
q0 -96 -65.5 -153t-169.5 -57z" />
    <glyph glyph-name="T" unicode="T" horiz-adv-x="552" 
d="M204 0v566h-176v134h496v-134h-176v-566h-144z" />
    <glyph glyph-name="U" unicode="U" horiz-adv-x="655" 
d="M326 -11q-124 0 -194.5 72t-70.5 211v428h145v-429q0 -73 32.5 -110.5t89.5 -37.5t89.5 37t32.5 108v432h144v-425q0 -141 -71.5 -213.5t-196.5 -72.5z" />
    <glyph glyph-name="V" unicode="V" horiz-adv-x="640" 
d="M253 -4l-236 704h157l148 -482l148 482h153l-236 -704h-134z" />
    <glyph glyph-name="W" unicode="W" horiz-adv-x="965" 
d="M222 -4l-200 704h153l118 -461l128 463h126l129 -463l117 461h150l-200 -704h-133l-128 445l-128 -445h-132z" />
    <glyph glyph-name="X" unicode="X" horiz-adv-x="631" 
d="M438 700h161l-200 -342l208 -358h-165l-128 240l-129 -240h-161l207 356l-198 344h165l119 -227z" />
    <glyph glyph-name="Y" unicode="Y" horiz-adv-x="617" 
d="M236 0v276l-228 424h164l138 -275l139 275h160l-228 -422v-278h-145z" />
    <glyph glyph-name="Z" unicode="Z" horiz-adv-x="599" 
d="M51 0v111l319 460h-309v129h488v-111l-319 -460h319v-129h-498z" />
    <glyph glyph-name="bracketleft" unicode="[" horiz-adv-x="412" 
d="M77 -130v830h285v-109h-152v-612h152v-109h-285z" />
    <glyph glyph-name="backslash" unicode="\" horiz-adv-x="464" 
d="M366 -119l-376 908h120l377 -908h-121z" />
    <glyph glyph-name="bracketright" unicode="]" horiz-adv-x="412" 
d="M50 -130v109h152v612h-152v109h285v-830h-285z" />
    <glyph glyph-name="asciicircum" unicode="^" horiz-adv-x="500" 
d="M73 496l126 202h102l126 -202h-100l-78 120l-78 -120h-98z" />
    <glyph glyph-name="underscore" unicode="_" horiz-adv-x="556" 
d="M-2 -157v109h560v-109h-560z" />
    <glyph glyph-name="grave" unicode="`" horiz-adv-x="500" 
d="M244 589l-121 113l119 55l104 -168h-102z" />
    <glyph glyph-name="a" unicode="a" horiz-adv-x="518" 
d="M188 -10q-68 0 -113.5 43.5t-45.5 119.5v6q0 85 50.5 128t136.5 43q56 0 112 -22v16q0 46 -26.5 70t-74.5 24q-52 0 -123 -30l-39 111q86 43 183 43q108 0 163 -55t55 -162v-325h-139v58q-52 -68 -139 -68zM235 94q41 -1 68 22t27 60v45q-36 17 -79 17q-40 0 -62.5 -19.5
t-22.5 -55.5v-2q0 -32 18.5 -49t50.5 -18z" />
    <glyph glyph-name="b" unicode="b" horiz-adv-x="586" 
d="M344 -10q-86 0 -145 79v-69h-142v722h142v-260q58 84 145 84q86 0 145 -70t59 -200v-16q0 -130 -59 -200t-145 -70zM302 114q45 0 74.5 41t29.5 108v10q0 67 -29.5 108t-74.5 41t-75 -41t-30 -108v-10q0 -67 30 -108t75 -41z" />
    <glyph glyph-name="c" unicode="c" horiz-adv-x="484" 
d="M279 -12q-106 0 -174.5 76.5t-68.5 195.5v12q0 119 69.5 196.5t178.5 77.5q103 0 175 -72l-77 -103q-46 48 -96 48q-49 0 -79 -41.5t-30 -107.5v-4q0 -68 30 -109.5t82 -41.5q50 0 97 49l75 -94q-74 -82 -182 -82z" />
    <glyph glyph-name="d" unicode="d" horiz-adv-x="586" 
d="M242 -10q-86 0 -145 70t-59 200v16q0 130 59 200t145 70q84 0 145 -79v255h142v-722h-142v74q-58 -84 -145 -84zM284 114q45 0 75 41t30 108v10q0 67 -30 108t-75 41t-74.5 -41t-29.5 -108v-10q0 -67 29.5 -108t74.5 -41z" />
    <glyph glyph-name="e" unicode="e" horiz-adv-x="533" 
d="M286 -12q-108 0 -179.5 75.5t-71.5 198.5v9q0 119 66.5 197t167.5 78q110 0 169 -79.5t59 -205.5q0 -25 -1 -46h-320q9 -52 39.5 -80t76.5 -28q57 0 112 53l73 -86q-78 -86 -191 -86zM175 309h185q-5 56 -28.5 88t-62.5 32t-63.5 -31.5t-30.5 -88.5z" />
    <glyph glyph-name="f" unicode="f" horiz-adv-x="335" 
d="M79 0v416h-54v116h54v36q0 80 40 120t117 40q49 0 88 -12v-117q-31 9 -52 9q-52 0 -52 -55v-21h104v-116h-103v-416h-142z" />
    <glyph glyph-name="g" unicode="g" horiz-adv-x="586" 
d="M264 -153q-108 0 -204 45l44 110q70 -39 152 -39q132 0 132 127v34q-64 -84 -150 -84q-85 0 -142.5 65.5t-57.5 186.5v3q0 120 58 185.5t142 65.5q85 0 149 -79v69h142v-438q0 -124 -61 -187q-65 -64 -204 -64zM284 162q46 0 75.5 36t29.5 95v1q0 58 -29.5 94t-75.5 36
t-75 -35.5t-29 -94.5v-1q0 -60 29 -95.5t75 -35.5z" />
    <glyph glyph-name="h" unicode="h" horiz-adv-x="548" 
d="M57 0v722h142v-258q59 82 138 82q74 0 116 -48.5t42 -132.5v-365h-142v323q0 95 -76 95q-36 0 -57 -24.5t-21 -70.5v-323h-142z" />
    <glyph glyph-name="i" unicode="i" horiz-adv-x="267" 
d="M59 593v129h148v-129h-148zM62 0v536h142v-536h-142z" />
    <glyph glyph-name="j" unicode="j" horiz-adv-x="267" 
d="M59 593v129h148v-129h-148zM46 -154q-28 0 -60 5v111q18 -2 25 -2q51 0 51 57v519h142v-531q0 -159 -158 -159z" />
    <glyph glyph-name="k" unicode="k" horiz-adv-x="520" 
d="M57 0v722h142v-384l146 198h166l-170 -213l174 -323h-162l-110 215l-44 -57v-158h-142z" />
    <glyph glyph-name="l" unicode="l" horiz-adv-x="267" 
d="M62 0v722h142v-722h-142z" />
    <glyph glyph-name="m" unicode="m" horiz-adv-x="834" 
d="M57 0v536h142v-72q58 82 139 82q91 0 132 -78q65 78 152 78q73 0 116 -46.5t43 -133.5v-366h-141v323q0 95 -74 95q-36 0 -56 -24.5t-20 -70.5v-323h-142v323q0 95 -73 95q-36 0 -56 -24.5t-20 -70.5v-323h-142z" />
    <glyph glyph-name="n" unicode="n" horiz-adv-x="548" 
d="M57 0v536h142v-72q59 82 138 82q74 0 116 -48.5t42 -132.5v-365h-142v323q0 95 -76 95q-36 0 -57 -24.5t-21 -70.5v-323h-142z" />
    <glyph glyph-name="o" unicode="o" horiz-adv-x="577" 
d="M288 -12q-109 0 -180.5 77t-71.5 196v11q0 119 72 196.5t181 77.5t180 -76.5t71 -196.5v-11q0 -119 -71.5 -196.5t-180.5 -77.5zM289 111q51 0 81 42.5t30 109.5v7q0 66 -31 109.5t-81 43.5q-52 0 -82 -42.5t-30 -109.5v-7q0 -66 31.5 -109.5t81.5 -43.5z" />
    <glyph glyph-name="p" unicode="p" horiz-adv-x="586" 
d="M57 -151v687h142v-74q58 84 145 84q86 0 145 -70t59 -200v-16q0 -130 -59 -200t-145 -70t-145 79v-220h-142zM302 114q45 0 74.5 41t29.5 108v10q0 67 -29.5 108t-74.5 41t-75 -41t-30 -108v-10q0 -67 30 -108t75 -41z" />
    <glyph glyph-name="q" unicode="q" horiz-adv-x="586" 
d="M387 -151v225q-58 -84 -145 -84q-86 0 -145 70t-59 200v16q0 130 59 200t145 70q84 0 145 -79v69h142v-687h-142zM284 114q45 0 75 41t30 108v10q0 67 -30 108t-75 41t-74.5 -41t-29.5 -108v-10q0 -67 29.5 -108t74.5 -41z" />
    <glyph glyph-name="r" unicode="r" horiz-adv-x="367" 
d="M57 0v536h142v-95q44 109 145 104v-154h-6q-67 0 -103 -41.5t-36 -124.5v-225h-142z" />
    <glyph glyph-name="s" unicode="s" horiz-adv-x="438" 
d="M219 -10q-112 0 -203 74l62 100q78 -60 143 -60q28 0 42.5 11.5t14.5 29.5v2q0 5 -1.5 9.5t-4.5 9t-6 7.5t-10 7t-11.5 7t-13.5 7t-15 6.5l-18 7.5t-18 8q-69 30 -105 65t-36 97v2q0 75 52 119.5t132 44.5q95 0 177 -58l-57 -102q-71 46 -122 46q-25 0 -38.5 -11
t-13.5 -27v-2q0 -18 20.5 -31.5t64.5 -33.5q4 -1 6.5 -2.5t5.5 -2.5q70 -33 106 -68t36 -93v-2q0 -80 -52.5 -123.5t-136.5 -43.5z" />
    <glyph glyph-name="t" unicode="t" horiz-adv-x="363" 
d="M221 -9q-67 0 -104.5 32.5t-37.5 110.5v282h-54v120h54v137h142v-137h106v-120h-106v-253q0 -46 44 -46q31 0 61 15v-113q-49 -28 -105 -28z" />
    <glyph glyph-name="u" unicode="u" horiz-adv-x="547" 
d="M211 -10q-75 0 -116.5 48.5t-41.5 132.5v365h141v-323q0 -95 76 -95q37 0 57.5 24.5t20.5 70.5v323h142v-536h-142v72q-57 -82 -137 -82z" />
    <glyph glyph-name="v" unicode="v" horiz-adv-x="527" 
d="M198 -4l-181 540h148l100 -356l101 356h144l-180 -540h-132z" />
    <glyph glyph-name="w" unicode="w" horiz-adv-x="759" 
d="M162 -4l-142 540h143l73 -317l83 319h121l84 -320l74 318h141l-144 -540h-131l-85 318l-87 -318h-130z" />
    <glyph glyph-name="x" unicode="x" horiz-adv-x="514" 
d="M174 536l84 -157l85 157h147l-155 -261l161 -275h-151l-89 167l-90 -167h-148l160 273l-154 263h150z" />
    <glyph glyph-name="y" unicode="y" horiz-adv-x="527" 
d="M266 181l98 355h144l-176 -543q-27 -81 -63 -114.5t-98 -33.5q-61 0 -115 32l39 106q31 -18 58 -18q33 0 46 34l-182 537h148z" />
    <glyph glyph-name="z" unicode="z" horiz-adv-x="480" 
d="M38 0v100l236 320h-228v116h398v-100l-237 -320h237v-116h-406z" />
    <glyph glyph-name="braceleft" unicode="{" horiz-adv-x="437" 
d="M375 -141q-119 17 -169 62.5t-50 121.5q0 14 5 47t5 47q0 51 -24 73t-76 22h-25v110h25q52 0 76 22t24 73q0 14 -5 47t-5 47q0 76 50 121.5t169 62.5l22 -96q-64 -14 -88 -37t-24 -67q0 -17 5.5 -50t5.5 -49q0 -100 -109 -129q109 -29 109 -129q0 -16 -5.5 -49t-5.5 -50
q0 -44 24 -67t88 -37z" />
    <glyph glyph-name="bar" unicode="|" horiz-adv-x="320" 
d="M104 -119v908h112v-908h-112z" />
    <glyph glyph-name="braceright" unicode="}" horiz-adv-x="437" 
d="M63 -141l-23 96q65 14 89 37t24 67q0 17 -5.5 50t-5.5 49q0 100 109 129q-109 29 -109 129q0 16 5.5 49t5.5 50q0 44 -24 67t-89 37l23 96q119 -17 169 -62.5t50 -121.5q0 -14 -5 -47t-5 -47q0 -51 24 -73t76 -22h24v-110h-24q-52 0 -76 -22t-24 -73q0 -14 5 -47t5 -47
q0 -76 -50 -121.5t-169 -62.5z" />
    <glyph glyph-name="asciitilde" unicode="~" horiz-adv-x="468" 
d="M310 240q-36 0 -84 23q-40 18 -55 18q-19 0 -29 -11t-21 -38l-76 23q30 129 113 129q36 0 84 -23q40 -17 55 -17q35 0 53 49l73 -23q-30 -130 -113 -130z" />
    <glyph glyph-name="uni00A0" unicode="&#xa0;" horiz-adv-x="224" 
 />
    <glyph glyph-name="exclamdown" unicode="&#xa1;" horiz-adv-x="294" 
d="M69 546v154h155v-154h-155zM63 0v20l45 448h77l46 -448v-20h-168z" />
    <glyph glyph-name="cent" unicode="&#xa2;" horiz-adv-x="498" 
d="M381 706l-12 -85q55 -16 97 -60l-76 -102q-24 24 -42 33l-40 -289q41 5 85 46l74 -93q-73 -76 -173 -80l-11 -82h-97l13 97q-72 27 -115.5 96t-43.5 161v11q0 115 66 191.5t168 81.5l10 74h97zM179 353q0 -87 43 -125l38 273q-37 -11 -59 -50t-22 -96v-2z" />
    <glyph glyph-name="sterling" unicode="&#xa3;" horiz-adv-x="557" 
d="M49 0v95l68 25v151h-67v122h67v91q0 113 58 168q58 58 154 58q122 0 195 -96l-101 -94q-40 53 -87 53q-30 0 -49 -19q-24 -22 -24 -74v-87h188v-122h-188v-145h256v-126h-470z" />
    <glyph glyph-name="yen" unicode="&#xa5;" horiz-adv-x="602" 
d="M76 258v104h119l-182 338h161l128 -267l131 267h156l-184 -338h121v-104h-156v-61h156v-104h-156v-93h-139v93h-155v104h155v61h-155z" />
    <glyph glyph-name="section" unicode="&#xa7;" horiz-adv-x="566" 
d="M435 233q39 -34 39 -90v-2q0 -69 -51 -110t-139 -41q-122 0 -200 75l70 87q61 -52 125 -52q61 0 61 37v1q0 18 -21 30.5t-83 31.5q-102 28 -147 61t-45 87v2q0 82 87 117q-39 35 -39 90v2q0 69 51.5 110t139.5 41q121 0 199 -75l-70 -87q-59 52 -125 52q-28 0 -44 -10
t-16 -27v-1q0 -17 20.5 -30t82.5 -32q102 -28 147 -60.5t45 -87.5v-2q0 -82 -87 -117zM344 286q22 0 37 12.5t15 32.5v1q0 20 -21 34t-68 28q-61 20 -85 20q-21 0 -36 -12.5t-15 -32.5v-1q0 -20 21 -33.5t67 -28.5q61 -20 85 -20z" />
    <glyph glyph-name="dieresis" unicode="&#xa8;" horiz-adv-x="500" 
d="M277 590v126h134v-126h-134zM89 590v126h134v-126h-134z" />
    <glyph glyph-name="copyright" unicode="&#xa9;" horiz-adv-x="739" 
d="M369 -12q-138 0 -231 102.5t-93 253.5v11q0 151 93.5 254t231.5 103t231 -102.5t93 -253.5v-11q0 -151 -93.5 -254t-231.5 -103zM369 28q123 0 204 90.5t81 226.5v12q0 135 -80.5 225t-203.5 90t-204 -90.5t-81 -226.5v-12q0 -135 80.5 -225t203.5 -90zM376 155
q-76 0 -123.5 54t-47.5 141v6q0 88 49 142.5t125 54.5q73 0 124 -48l-48 -63q-37 35 -76 35t-64.5 -33t-25.5 -88v-4q0 -56 25 -88.5t66 -32.5q38 0 77 37l48 -57q-52 -56 -129 -56z" />
    <glyph glyph-name="ordfeminine" unicode="&#xaa;" horiz-adv-x="349" 
d="M135 400q-38 0 -62.5 23.5t-24.5 65.5v4q0 47 27.5 70.5t75.5 23.5q29 0 62 -12v9q0 51 -57 51q-31 0 -67 -17l-23 61q48 24 103 24q57 0 88 -29q31 -30 31 -90v-179h-76v32q-29 -37 -77 -37zM44 285v60h251v-60h-251zM161 457q23 0 38 12.5t15 32.5v25q-24 10 -44 10
q-47 0 -47 -40v-4q0 -36 38 -36z" />
    <glyph glyph-name="guillemotleft" unicode="&#xab;" horiz-adv-x="589" 
d="M449 42l-167 222v8l167 222l99 -51l-113 -174l114 -174zM203 42l-167 222v8l167 222l99 -51l-113 -174l114 -174z" />
    <glyph glyph-name="registered" unicode="&#xae;" horiz-adv-x="352" 
d="M176 359q-68 0 -114 49.5t-46 123.5v6q0 74 46 124t114 50t114 -50t46 -124v-5q0 -73 -46 -123.5t-114 -50.5zM176 379q60 0 99.5 44.5t39.5 109.5v5q0 66 -39.5 110t-99.5 44t-99.5 -44.5t-39.5 -109.5v-6q0 -65 39.5 -109t99.5 -44zM108 445v186h74q73 0 73 -61v-1
q0 -41 -35 -56l40 -68h-53l-34 58h-18v-58h-47zM155 542h24q28 0 28 24q0 25 -28 25h-24v-49z" />
    <glyph glyph-name="macron" unicode="&#xaf;" horiz-adv-x="500" 
d="M90 593v97h320v-97h-320z" />
    <glyph glyph-name="degree" unicode="&#xb0;" horiz-adv-x="419" 
d="M209 366q-63 0 -108.5 48t-45.5 120v4q0 72 45.5 120t108.5 48q65 0 110.5 -48t45.5 -120v-4q0 -72 -45.5 -120t-110.5 -48zM209 442q33 0 54.5 26t21.5 67v2q0 42 -21.5 68t-54.5 26t-54 -26t-21 -68v-2q0 -41 21.5 -67t53.5 -26z" />
    <glyph glyph-name="plusminus" unicode="&#xb1;" horiz-adv-x="563" 
d="M505 354l-160 1l1 -161h-129l1 161l-160 -1v127l160 -1l-1 161h129l-1 -161l160 1v-127zM504 0h-446v120h446v-120z" />
    <glyph glyph-name="two.sup" unicode="&#xb2;" 
d="M45 431v72l117 111q33 31 45 47.5t12 35.5q0 20 -13.5 31.5t-33.5 11.5q-33 0 -77 -46l-52 53q31 36 62 53.5t74 17.5q57 0 91.5 -30.5t34.5 -81.5q0 -34 -14.5 -60.5t-52.5 -62.5l-83 -77h151v-75h-261z" />
    <glyph glyph-name="three.sup" unicode="&#xb3;" 
d="M170 422q-75 0 -135 51l44 64q43 -38 90 -38q22 0 37.5 12.5t15.5 33.5q0 46 -72 46h-34l-10 54l91 89h-139v75h243v-64l-99 -93q47 -5 76 -31t29 -73q0 -57 -37 -91.5t-100 -34.5z" />
    <glyph glyph-name="acute" unicode="&#xb4;" horiz-adv-x="500" 
d="M150 589l104 168l119 -55l-121 -113h-102z" />
    <glyph glyph-name="mu" unicode="&#xb5;" horiz-adv-x="590" 
d="M572 115v-110q-37 -11 -78 -11q-81 0 -110 60q-35 -60 -98 -60q-33 0 -62.5 17.5t-42.5 50.5h-2q17 -72 17 -123v-90h-139v687h142v-325q0 -95 78 -95q38 0 59 24.5t21 70.5v325h142v-376q0 -48 45 -48q16 0 28 3z" />
    <glyph glyph-name="paragraph" unicode="&#xb6;" horiz-adv-x="522" 
d="M306 0v228h-17q-115 2 -187.5 62.5t-72.5 172.5v2q0 112 72 173.5t190 61.5h160v-700h-145z" />
    <glyph glyph-name="periodcentered" unicode="&#xb7;" horiz-adv-x="267" 
d="M56 233v154h155v-154h-155z" />
    <glyph glyph-name="cedilla" unicode="&#xb8;" horiz-adv-x="500" 
d="M247 -159l-119 48l89 131h98z" />
    <glyph glyph-name="one.sup" unicode="&#xb9;" horiz-adv-x="287" 
d="M207 431h-85v294l-68 -27l-18 72l108 44h63v-383z" />
    <glyph glyph-name="ordmasculine" unicode="&#xba;" horiz-adv-x="349" 
d="M174 399q-59 0 -97 42t-38 107v7q0 66 38.5 108t97.5 42t97 -42t38 -107v-7q0 -65 -39 -107.5t-97 -42.5zM46 285v60h256v-60h-256zM175 466q26 0 42 23.5t16 59.5v5q0 36 -16 59.5t-43 23.5t-42.5 -22.5t-15.5 -59.5v-5q0 -37 16 -60.5t43 -23.5z" />
    <glyph glyph-name="guillemotright" unicode="&#xbb;" horiz-adv-x="589" 
d="M385 42l-99 51l114 174l-115 174l100 53l168 -222v-8zM139 42l-99 51l114 174l-114 174l99 53l168 -222v-8z" />
    <glyph glyph-name="onequarter" unicode="&#xbc;" horiz-adv-x="729" 
d="M207 322h-85v293l-68 -27l-18 73l108 44h63v-383zM105 0l223 367l194 333h77l-223 -367l-194 -333h-77zM651 75v-77h-77v77h-166l-6 78l157 229h92v-239h45v-68h-45zM576 142v149h-2l-101 -149h103z" />
    <glyph glyph-name="onehalf" unicode="&#xbd;" horiz-adv-x="729" 
d="M424 0v72l117 111q33 31 45 47.5t12 35.5q0 20 -13.5 31.5t-33.5 11.5q-33 0 -77 -46l-52 53q31 36 62 53.5t74 17.5q57 0 91.5 -30.5t34.5 -81.5q0 -34 -14.5 -60.5t-52.5 -62.5l-83 -77h151v-75h-261zM94 0l223 367l194 333h77l-223 -367l-194 -333h-77zM207 322h-85
v293l-68 -27l-18 73l108 44h63v-383z" />
    <glyph glyph-name="threequarters" unicode="&#xbe;" horiz-adv-x="794" 
d="M719 75v-77h-77v77h-166l-6 78l157 229h92v-239h45v-68h-45zM644 142v149h-2l-101 -149h103zM168 0l223 367l194 333h77l-223 -367l-194 -333h-77zM170 313q-77 0 -135 51l44 63q46 -38 90 -38q22 0 37.5 13t15.5 34q0 46 -72 46h-34l-10 54l91 88h-139v76h243v-64
l-99 -93q47 -6 76 -32t29 -73q0 -57 -37 -91t-100 -34z" />
    <glyph glyph-name="questiondown" unicode="&#xbf;" horiz-adv-x="479" 
d="M188 546v154h154v-154h-154zM255 -8q-102 0 -163 54t-61 146v1q0 154 173 196l12 79h95l20 -166l-5 -5q-151 -13 -151 -99v-2q0 -34 23 -53t62 -19q67 0 125 60l82 -99q-93 -93 -212 -93z" />
    <glyph glyph-name="Agrave" unicode="&#xc0;" horiz-adv-x="674" 
d="M17 0l251 704h138l251 -704h-150l-52 152h-241l-51 -152h-146zM258 280h153l-76 228zM395 755h-108l-125 93l122 55z" />
    <glyph glyph-name="Aacute" unicode="&#xc1;" horiz-adv-x="674" 
d="M17 0l251 704h138l251 -704h-150l-52 152h-241l-51 -152h-146zM258 280h153l-76 228zM277 755l111 148l122 -55l-125 -93h-108z" />
    <glyph glyph-name="Acircumflex" unicode="&#xc2;" horiz-adv-x="674" 
d="M17 0l251 704h138l251 -704h-150l-52 152h-241l-51 -152h-146zM258 280h153l-76 228zM159 752l112 139h130l112 -139h-110l-68 54l-68 -54h-108z" />
    <glyph glyph-name="Atilde" unicode="&#xc3;" horiz-adv-x="674" 
d="M17 0l251 704h138l251 -704h-150l-52 152h-241l-51 -152h-146zM258 280h153l-76 228zM419 755q-31 0 -86 21q-39 16 -55 16q-18 0 -28.5 -10.5t-19.5 -34.5l-77 22q16 66 41 97.5t69 31.5q35 0 87 -22q41 -15 54 -15q18 0 28 10.5t20 35.5l77 -23q-16 -66 -41 -97.5
t-69 -31.5z" />
    <glyph glyph-name="Adieresis" unicode="&#xc4;" horiz-adv-x="674" 
d="M17 0l251 704h138l251 -704h-150l-52 152h-241l-51 -152h-146zM258 280h153l-76 228zM368 756v121h134v-121h-134zM170 756v121h134v-121h-134z" />
    <glyph glyph-name="Aring" unicode="&#xc5;" horiz-adv-x="675" 
d="M18 0l236 668q-29 29 -29 70q0 45 33 74t80 29t80 -29t33 -74q0 -41 -30 -71l237 -667h-150l-52 152h-241l-51 -152h-146zM259 280h153l-76 228zM338 687q24 0 40 15t16 36q0 22 -16 37t-40 15t-40 -15t-16 -37q0 -21 16 -36t40 -15z" />
    <glyph glyph-name="AE" unicode="&#xc6;" horiz-adv-x="900" 
d="M6 0l320 700h526v-131h-290v-151h253v-131h-253v-156h294v-131h-438v152h-198l-68 -152h-146zM278 280h140v289h-15z" />
    <glyph glyph-name="Ccedilla" unicode="&#xc7;" horiz-adv-x="619" 
d="M322 -159l-119 48l74 110q-107 25 -169.5 117.5t-62.5 228.5v9q0 158 89 257t228 99q134 0 225 -93l-87 -112q-68 70 -143 70q-71 0 -117 -61t-46 -162v-3q0 -102 47 -163t118 -61t144 73l87 -103q-47 -48 -96 -74t-115 -30z" />
    <glyph glyph-name="Egrave" unicode="&#xc8;" horiz-adv-x="569" 
d="M356 749h-108l-125 93l122 55zM70 0v700h451v-131h-307v-151h270v-131h-270v-156h311v-131h-455z" />
    <glyph glyph-name="Eacute" unicode="&#xc9;" horiz-adv-x="569" 
d="M237 749l111 148l122 -55l-125 -93h-108zM70 0v700h451v-131h-307v-151h270v-131h-270v-156h311v-131h-455z" />
    <glyph glyph-name="Ecircumflex" unicode="&#xca;" horiz-adv-x="569" 
d="M70 0v700h451v-131h-307v-151h270v-131h-270v-156h311v-131h-455zM120 749l112 139h130l112 -139h-110l-68 54l-68 -54h-108z" />
    <glyph glyph-name="Edieresis" unicode="&#xcb;" horiz-adv-x="569" 
d="M329 750v121h134v-121h-134zM131 750v121h134v-121h-134zM70 0v700h451v-131h-307v-151h270v-131h-270v-156h311v-131h-455z" />
    <glyph glyph-name="Igrave" unicode="&#xcc;" horiz-adv-x="295" 
d="M75 0v700h145v-700h-145zM207 749h-108l-125 93l122 55z" />
    <glyph glyph-name="Iacute" unicode="&#xcd;" horiz-adv-x="295" 
d="M75 0v700h145v-700h-145zM89 749l111 148l122 -55l-125 -93h-108z" />
    <glyph glyph-name="Icircumflex" unicode="&#xce;" horiz-adv-x="295" 
d="M75 0v700h145v-700h-145zM-29 749l112 139h130l112 -139h-110l-68 54l-68 -54h-108z" />
    <glyph glyph-name="Idieresis" unicode="&#xcf;" horiz-adv-x="295" 
d="M75 0v700h145v-700h-145zM180 750v121h134v-121h-134zM-18 750v121h134v-121h-134z" />
    <glyph glyph-name="Eth" unicode="&#xd0;" horiz-adv-x="698" 
d="M93 0v288h-63v128h63v284h226q150 0 242.5 -95.5t92.5 -249.5v-9q0 -154 -92.5 -250t-242.5 -96h-226zM359 288h-121v-157h80q85 0 135.5 57t50.5 159v5q0 103 -50.5 160t-135.5 57h-80v-153h121v-128z" />
    <glyph glyph-name="Ntilde" unicode="&#xd1;" horiz-adv-x="683" 
d="M423 749q-31 0 -86 21q-39 16 -55 16q-18 0 -28.5 -10.5t-19.5 -34.5l-77 22q16 66 41 97.5t69 31.5q35 0 87 -22q41 -15 54 -15q18 0 28 10.5t20 35.5l77 -23q-16 -66 -41 -97.5t-69 -31.5zM70 0v700h133l268 -408v408h142v-700h-124l-277 423v-423h-142z" />
    <glyph glyph-name="Ograve" unicode="&#xd2;" horiz-adv-x="723" 
d="M419 755h-108l-125 93l122 55zM361 -12q-140 0 -228 99t-88 256v12q0 157 89 257t228 100q140 0 228 -99t88 -256v-12q0 -157 -89 -257t-228 -100zM362 122q74 0 120 61t46 163v7q0 102 -46.5 163.5t-120.5 61.5t-120.5 -61t-46.5 -163v-7q0 -102 47 -163.5t121 -61.5z
" />
    <glyph glyph-name="Oacute" unicode="&#xd3;" horiz-adv-x="723" 
d="M302 755l111 148l122 -55l-125 -93h-108zM361 -12q-140 0 -228 99t-88 256v12q0 157 89 257t228 100q140 0 228 -99t88 -256v-12q0 -157 -89 -257t-228 -100zM362 122q74 0 120 61t46 163v7q0 102 -46.5 163.5t-120.5 61.5t-120.5 -61t-46.5 -163v-7q0 -102 47 -163.5
t121 -61.5z" />
    <glyph glyph-name="Ocircumflex" unicode="&#xd4;" horiz-adv-x="723" 
d="M361 -12q-140 0 -228 99t-88 256v12q0 157 89 257t228 100q140 0 228 -99t88 -256v-12q0 -157 -89 -257t-228 -100zM362 122q74 0 120 61t46 163v7q0 102 -46.5 163.5t-120.5 61.5t-120.5 -61t-46.5 -163v-7q0 -102 47 -163.5t121 -61.5zM184 755l112 139h130l112 -139
h-110l-68 54l-68 -54h-108z" />
    <glyph glyph-name="Otilde" unicode="&#xd5;" horiz-adv-x="723" 
d="M443 755q-31 0 -86 21q-39 16 -55 16q-18 0 -28.5 -10.5t-19.5 -34.5l-77 22q16 66 41 97.5t69 31.5q35 0 87 -22q41 -15 54 -15q18 0 28 10.5t20 35.5l77 -23q-16 -66 -41 -97.5t-69 -31.5zM361 -12q-140 0 -228 99t-88 256v12q0 157 89 257t228 100q140 0 228 -99
t88 -256v-12q0 -157 -89 -257t-228 -100zM362 122q74 0 120 61t46 163v7q0 102 -46.5 163.5t-120.5 61.5t-120.5 -61t-46.5 -163v-7q0 -102 47 -163.5t121 -61.5z" />
    <glyph glyph-name="Odieresis" unicode="&#xd6;" horiz-adv-x="723" 
d="M393 756v121h134v-121h-134zM195 756v121h134v-121h-134zM361 -12q-140 0 -228 99t-88 256v12q0 157 89 257t228 100q140 0 228 -99t88 -256v-12q0 -157 -89 -257t-228 -100zM362 122q74 0 120 61t46 163v7q0 102 -46.5 163.5t-120.5 61.5t-120.5 -61t-46.5 -163v-7
q0 -102 47 -163.5t121 -61.5z" />
    <glyph glyph-name="multiply" unicode="&#xd7;" horiz-adv-x="563" 
d="M416 123l-135 142l-135 -142l-91 86l142 142l-142 143l92 87l135 -142l135 142l91 -86l-142 -142l142 -143z" />
    <glyph glyph-name="Oslash" unicode="&#xd8;" horiz-adv-x="723" 
d="M558 705h124l-80 -109q76 -97 76 -239v-12q0 -157 -89 -257t-228 -100q-92 0 -166 47l-30 -40h-124l79 109q-75 95 -75 239v12q0 157 89 257t228 100q91 0 165 -47zM362 119q75 0 122 61.5t47 164.5v9q0 68 -21 117l-236 -324q39 -28 88 -28zM192 346q0 -66 20 -117
l236 324q-39 28 -87 28q-76 0 -122.5 -61.5t-46.5 -164.5v-9z" />
    <glyph glyph-name="Ugrave" unicode="&#xd9;" horiz-adv-x="655" 
d="M386 749h-108l-125 93l122 55zM326 -11q-124 0 -194.5 72t-70.5 211v428h145v-429q0 -73 32.5 -110.5t89.5 -37.5t89.5 37t32.5 108v432h144v-425q0 -141 -71.5 -213.5t-196.5 -72.5z" />
    <glyph glyph-name="Uacute" unicode="&#xda;" horiz-adv-x="655" 
d="M268 749l111 148l122 -55l-125 -93h-108zM326 -11q-124 0 -194.5 72t-70.5 211v428h145v-429q0 -73 32.5 -110.5t89.5 -37.5t89.5 37t32.5 108v432h144v-425q0 -141 -71.5 -213.5t-196.5 -72.5z" />
    <glyph glyph-name="Ucircumflex" unicode="&#xdb;" horiz-adv-x="655" 
d="M326 -11q-124 0 -194.5 72t-70.5 211v428h145v-429q0 -73 32.5 -110.5t89.5 -37.5t89.5 37t32.5 108v432h144v-425q0 -141 -71.5 -213.5t-196.5 -72.5zM150 749l112 139h130l112 -139h-110l-68 54l-68 -54h-108z" />
    <glyph glyph-name="Udieresis" unicode="&#xdc;" horiz-adv-x="655" 
d="M359 750v121h134v-121h-134zM161 750v121h134v-121h-134zM326 -11q-124 0 -194.5 72t-70.5 211v428h145v-429q0 -73 32.5 -110.5t89.5 -37.5t89.5 37t32.5 108v432h144v-425q0 -141 -71.5 -213.5t-196.5 -72.5z" />
    <glyph glyph-name="Yacute" unicode="&#xdd;" horiz-adv-x="617" 
d="M236 0v276l-228 424h164l138 -275l139 275h160l-228 -422v-278h-145zM249 749l111 148l122 -55l-125 -93h-108z" />
    <glyph glyph-name="Thorn" unicode="&#xde;" horiz-adv-x="584" 
d="M70 0v700h145v-100h88q118 0 187 -64.5t69 -175.5v-2q0 -117 -73.5 -181t-188.5 -64h-82v-113h-145zM215 243h81q55 0 86 31t31 81v1q0 55 -30.5 83.5t-88.5 28.5h-79v-225z" />
    <glyph glyph-name="germandbls" unicode="&#xdf;" horiz-adv-x="553" 
d="M268 -2v110q110 8 110 97v1q0 40 -30 67t-80 35v95q78 51 78 123v1q0 37 -19 59t-51 22q-36 0 -57 -27t-21 -74v-507h-141v502q0 105 60 165.5t164 60.5q95 0 149 -52.5t54 -132.5v-4q0 -103 -86 -162q119 -54 119 -174v-4q0 -97 -66.5 -150.5t-182.5 -50.5z" />
    <glyph glyph-name="agrave" unicode="&#xe0;" horiz-adv-x="518" 
d="M188 -10q-68 0 -113.5 43.5t-45.5 119.5v6q0 85 50.5 128t136.5 43q56 0 112 -22v16q0 46 -26.5 70t-74.5 24q-52 0 -123 -30l-39 111q86 43 183 43q108 0 163 -55t55 -162v-325h-139v58q-52 -68 -139 -68zM235 94q41 -1 68 22t27 60v45q-36 17 -79 17q-40 0 -62.5 -19.5
t-22.5 -55.5v-2q0 -32 18.5 -49t50.5 -18zM214 589l-121 113l119 55l104 -168h-102z" />
    <glyph glyph-name="aacute" unicode="&#xe1;" horiz-adv-x="518" 
d="M188 -10q-68 0 -113.5 43.5t-45.5 119.5v6q0 85 50.5 128t136.5 43q56 0 112 -22v16q0 46 -26.5 70t-74.5 24q-52 0 -123 -30l-39 111q86 43 183 43q108 0 163 -55t55 -162v-325h-139v58q-52 -68 -139 -68zM235 94q41 -1 68 22t27 60v45q-36 17 -79 17q-40 0 -62.5 -19.5
t-22.5 -55.5v-2q0 -32 18.5 -49t50.5 -18zM202 589l104 168l119 -55l-121 -113h-102z" />
    <glyph glyph-name="acircumflex" unicode="&#xe2;" horiz-adv-x="518" 
d="M188 -10q-68 0 -113.5 43.5t-45.5 119.5v6q0 85 50.5 128t136.5 43q56 0 112 -22v16q0 46 -26.5 70t-74.5 24q-52 0 -123 -30l-39 111q86 43 183 43q108 0 163 -55t55 -162v-325h-139v58q-52 -68 -139 -68zM235 94q41 -1 68 22t27 60v45q-36 17 -79 17q-40 0 -62.5 -19.5
t-22.5 -55.5v-2q0 -32 18.5 -49t50.5 -18zM86 589l109 151h128l109 -151h-105l-69 64l-69 -64h-103z" />
    <glyph glyph-name="atilde" unicode="&#xe3;" horiz-adv-x="518" 
d="M188 -10q-68 0 -113.5 43.5t-45.5 119.5v6q0 85 50.5 128t136.5 43q56 0 112 -22v16q0 46 -26.5 70t-74.5 24q-52 0 -123 -30l-39 111q86 43 183 43q108 0 163 -55t55 -162v-325h-139v58q-52 -68 -139 -68zM235 94q41 -1 68 22t27 60v45q-36 17 -79 17q-40 0 -62.5 -19.5
t-22.5 -55.5v-2q0 -32 18.5 -49t50.5 -18zM339 588q-31 0 -82 22q-42 16 -54 16q-19 0 -28.5 -10.5t-19.5 -35.5l-76 22q16 66 40 97.5t68 31.5q28 0 82 -21q40 -17 54 -17q18 0 28 10.5t20 35.5l76 -22q-16 -66 -40 -97.5t-68 -31.5z" />
    <glyph glyph-name="adieresis" unicode="&#xe4;" horiz-adv-x="518" 
d="M188 -10q-68 0 -113.5 43.5t-45.5 119.5v6q0 85 50.5 128t136.5 43q56 0 112 -22v16q0 46 -26.5 70t-74.5 24q-52 0 -123 -30l-39 111q86 43 183 43q108 0 163 -55t55 -162v-325h-139v58q-52 -68 -139 -68zM235 94q41 -1 68 22t27 60v45q-36 17 -79 17q-40 0 -62.5 -19.5
t-22.5 -55.5v-2q0 -32 18.5 -49t50.5 -18zM286 590v126h134v-126h-134zM98 590v126h134v-126h-134z" />
    <glyph glyph-name="aring" unicode="&#xe5;" horiz-adv-x="518" 
d="M188 -10q-68 0 -113.5 43.5t-45.5 119.5v6q0 85 50.5 128t136.5 43q56 0 112 -22v16q0 46 -26.5 70t-74.5 24q-52 0 -123 -30l-39 111q86 43 183 43q108 0 163 -55t55 -162v-325h-139v58q-52 -68 -139 -68zM235 94q41 -1 68 22t27 60v45q-36 17 -79 17q-40 0 -62.5 -19.5
t-22.5 -55.5v-2q0 -32 18.5 -49t50.5 -18zM259 585q-46 0 -78.5 31.5t-32.5 77.5t32.5 77.5t78.5 31.5t78.5 -31.5t32.5 -77.5t-32.5 -77.5t-78.5 -31.5zM259 635q24 0 41 17t17 42t-17 42.5t-41 17.5t-41 -17.5t-17 -42.5t17 -42t41 -17z" />
    <glyph glyph-name="ae" unicode="&#xe6;" horiz-adv-x="823" 
d="M205 -10q-79 0 -127.5 44.5t-48.5 121.5v3q0 85 50.5 128t136.5 43q56 0 112 -22v16q0 46 -26 70t-74 24q-54 0 -124 -32l-39 113q86 43 183 43q110 0 161 -65q61 69 153 69q108 0 166.5 -80t58.5 -205q0 -25 -1 -46h-320q9 -53 39.5 -80.5t76.5 -27.5q62 0 112 53
l73 -86q-77 -86 -191 -86q-116 0 -184 88q-84 -86 -187 -86zM465 309h185q-5 56 -28.5 88t-62.5 32t-63.5 -31.5t-30.5 -88.5zM237 95q61 0 111 56q-12 37 -15 70q-37 17 -81 17q-40 0 -63 -19t-23 -55v-3q0 -31 20 -48.5t51 -17.5z" />
    <glyph glyph-name="ccedilla" unicode="&#xe7;" horiz-adv-x="484" 
d="M247 -159l-119 48l75 111q-76 24 -121.5 94t-45.5 166v12q0 119 69.5 196.5t178.5 77.5q103 0 175 -72l-77 -103q-46 48 -96 48q-49 0 -79 -41.5t-30 -107.5v-4q0 -68 30 -109.5t82 -41.5q50 0 97 49l75 -94q-67 -73 -158 -81z" />
    <glyph glyph-name="egrave" unicode="&#xe8;" horiz-adv-x="533" 
d="M286 -12q-108 0 -179.5 75.5t-71.5 198.5v9q0 119 66.5 197t167.5 78q110 0 169 -79.5t59 -205.5q0 -25 -1 -46h-320q9 -52 39.5 -80t76.5 -28q57 0 112 53l73 -86q-78 -86 -191 -86zM175 309h185q-5 56 -28.5 88t-62.5 32t-63.5 -31.5t-30.5 -88.5zM222 589l-121 113
l119 55l104 -168h-102z" />
    <glyph glyph-name="eacute" unicode="&#xe9;" horiz-adv-x="533" 
d="M210 589l104 168l119 -55l-121 -113h-102zM286 -12q-108 0 -179.5 75.5t-71.5 198.5v9q0 119 66.5 197t167.5 78q110 0 169 -79.5t59 -205.5q0 -25 -1 -46h-320q9 -52 39.5 -80t76.5 -28q57 0 112 53l73 -86q-78 -86 -191 -86zM175 309h185q-5 56 -28.5 88t-62.5 32
t-63.5 -31.5t-30.5 -88.5z" />
    <glyph glyph-name="ecircumflex" unicode="&#xea;" horiz-adv-x="533" 
d="M94 589l109 151h128l109 -151h-105l-69 64l-69 -64h-103zM286 -12q-108 0 -179.5 75.5t-71.5 198.5v9q0 119 66.5 197t167.5 78q110 0 169 -79.5t59 -205.5q0 -25 -1 -46h-320q9 -52 39.5 -80t76.5 -28q57 0 112 53l73 -86q-78 -86 -191 -86zM175 309h185q-5 56 -28.5 88
t-62.5 32t-63.5 -31.5t-30.5 -88.5z" />
    <glyph glyph-name="edieresis" unicode="&#xeb;" horiz-adv-x="533" 
d="M294 590v126h134v-126h-134zM106 590v126h134v-126h-134zM286 -12q-108 0 -179.5 75.5t-71.5 198.5v9q0 119 66.5 197t167.5 78q110 0 169 -79.5t59 -205.5q0 -25 -1 -46h-320q9 -52 39.5 -80t76.5 -28q57 0 112 53l73 -86q-78 -86 -191 -86zM175 309h185q-5 56 -28.5 88
t-62.5 32t-63.5 -31.5t-30.5 -88.5z" />
    <glyph glyph-name="igrave" unicode="&#xec;" horiz-adv-x="267" 
d="M62 0v536h142v-536h-142zM88 589l-121 113l119 55l104 -168h-102z" />
    <glyph glyph-name="iacute" unicode="&#xed;" horiz-adv-x="267" 
d="M78 589l104 168l119 -55l-121 -113h-102zM62 0v536h142v-536h-142z" />
    <glyph glyph-name="icircumflex" unicode="&#xee;" horiz-adv-x="267" 
d="M-39 589l109 151h128l109 -151h-105l-69 64l-69 -64h-103zM62 0v536h142v-536h-142z" />
    <glyph glyph-name="idieresis" unicode="&#xef;" horiz-adv-x="267" 
d="M161 590v126h134v-126h-134zM-27 590v126h134v-126h-134zM62 0v536h142v-536h-142z" />
    <glyph glyph-name="eth" unicode="&#xf0;" horiz-adv-x="577" 
d="M474 647l-66 -19q131 -159 131 -332v-10q0 -132 -68.5 -215t-184.5 -83q-108 0 -179 78t-71 200v13q0 110 60 182.5t145 72.5q53 0 104 -33q-24 42 -68 91l-107 -29l-27 77l69 19q-33 30 -74 63h179l28 -26l103 28zM288 111q52 0 82 42.5t30 108.5v6q0 67 -31 109.5
t-82 42.5q-52 0 -81.5 -41.5t-29.5 -108.5v-6q0 -66 31 -109.5t81 -43.5z" />
    <glyph glyph-name="ntilde" unicode="&#xf1;" horiz-adv-x="548" 
d="M57 0v536h142v-72q59 82 138 82q74 0 116 -48.5t42 -132.5v-365h-142v323q0 95 -76 95q-36 0 -57 -24.5t-21 -70.5v-323h-142zM356 588q-31 0 -82 22q-42 16 -54 16q-19 0 -28.5 -10.5t-19.5 -35.5l-76 22q16 66 40 97.5t68 31.5q28 0 82 -21q40 -17 54 -17q18 0 28 10.5
t20 35.5l76 -22q-16 -66 -40 -97.5t-68 -31.5z" />
    <glyph glyph-name="ograve" unicode="&#xf2;" horiz-adv-x="577" 
d="M288 -12q-109 0 -180.5 77t-71.5 196v11q0 119 72 196.5t181 77.5t180 -76.5t71 -196.5v-11q0 -119 -71.5 -196.5t-180.5 -77.5zM289 111q51 0 81 42.5t30 109.5v7q0 66 -31 109.5t-81 43.5q-52 0 -82 -42.5t-30 -109.5v-7q0 -66 31.5 -109.5t81.5 -43.5zM243 589
l-121 113l119 55l104 -168h-102z" />
    <glyph glyph-name="oacute" unicode="&#xf3;" horiz-adv-x="577" 
d="M231 589l104 168l119 -55l-121 -113h-102zM288 -12q-109 0 -180.5 77t-71.5 196v11q0 119 72 196.5t181 77.5t180 -76.5t71 -196.5v-11q0 -119 -71.5 -196.5t-180.5 -77.5zM289 111q51 0 81 42.5t30 109.5v7q0 66 -31 109.5t-81 43.5q-52 0 -82 -42.5t-30 -109.5v-7
q0 -66 31.5 -109.5t81.5 -43.5z" />
    <glyph glyph-name="ocircumflex" unicode="&#xf4;" horiz-adv-x="577" 
d="M115 589l109 151h128l109 -151h-105l-69 64l-69 -64h-103zM288 -12q-109 0 -180.5 77t-71.5 196v11q0 119 72 196.5t181 77.5t180 -76.5t71 -196.5v-11q0 -119 -71.5 -196.5t-180.5 -77.5zM289 111q51 0 81 42.5t30 109.5v7q0 66 -31 109.5t-81 43.5q-52 0 -82 -42.5
t-30 -109.5v-7q0 -66 31.5 -109.5t81.5 -43.5z" />
    <glyph glyph-name="otilde" unicode="&#xf5;" horiz-adv-x="577" 
d="M288 -12q-109 0 -180.5 77t-71.5 196v11q0 119 72 196.5t181 77.5t180 -76.5t71 -196.5v-11q0 -119 -71.5 -196.5t-180.5 -77.5zM289 111q51 0 81 42.5t30 109.5v7q0 66 -31 109.5t-81 43.5q-52 0 -82 -42.5t-30 -109.5v-7q0 -66 31.5 -109.5t81.5 -43.5zM368 588
q-31 0 -82 22q-42 16 -54 16q-19 0 -28.5 -10.5t-19.5 -35.5l-76 22q16 66 40 97.5t68 31.5q28 0 82 -21q40 -17 54 -17q18 0 28 10.5t20 35.5l76 -22q-16 -66 -40 -97.5t-68 -31.5z" />
    <glyph glyph-name="odieresis" unicode="&#xf6;" horiz-adv-x="577" 
d="M315 590v126h134v-126h-134zM127 590v126h134v-126h-134zM288 -12q-109 0 -180.5 77t-71.5 196v11q0 119 72 196.5t181 77.5t180 -76.5t71 -196.5v-11q0 -119 -71.5 -196.5t-180.5 -77.5zM289 111q51 0 81 42.5t30 109.5v7q0 66 -31 109.5t-81 43.5q-52 0 -82 -42.5
t-30 -109.5v-7q0 -66 31.5 -109.5t81.5 -43.5z" />
    <glyph glyph-name="divide" unicode="&#xf7;" horiz-adv-x="563" 
d="M210 484v136h143v-136h-143zM508 291h-453v122h453v-122zM210 84v136h143v-136h-143z" />
    <glyph glyph-name="oslash" unicode="&#xf8;" horiz-adv-x="577" 
d="M441 541h113l-69 -91q55 -76 55 -177v-11q0 -119 -71.5 -196.5t-180.5 -77.5q-72 0 -129 34l-23 -28h-114l69 90q-55 72 -55 177v11q0 119 72 196.5t181 77.5q69 0 128 -35zM289 108q54 0 85 43.5t31 111.5v7q0 32 -10 65l-161 -211q23 -16 55 -16zM172 264q0 -35 9 -65
l161 211q-26 16 -54 16q-54 0 -85 -43t-31 -112v-7z" />
    <glyph glyph-name="ugrave" unicode="&#xf9;" horiz-adv-x="547" 
d="M211 -10q-75 0 -116.5 48.5t-41.5 132.5v365h141v-323q0 -95 76 -95q37 0 57.5 24.5t20.5 70.5v323h142v-536h-142v72q-57 -82 -137 -82zM227 589l-121 113l119 55l104 -168h-102z" />
    <glyph glyph-name="uacute" unicode="&#xfa;" horiz-adv-x="547" 
d="M215 589l104 168l119 -55l-121 -113h-102zM211 -10q-75 0 -116.5 48.5t-41.5 132.5v365h141v-323q0 -95 76 -95q37 0 57.5 24.5t20.5 70.5v323h142v-536h-142v72q-57 -82 -137 -82z" />
    <glyph glyph-name="ucircumflex" unicode="&#xfb;" horiz-adv-x="547" 
d="M99 589l109 151h128l109 -151h-105l-69 64l-69 -64h-103zM211 -10q-75 0 -116.5 48.5t-41.5 132.5v365h141v-323q0 -95 76 -95q37 0 57.5 24.5t20.5 70.5v323h142v-536h-142v72q-57 -82 -137 -82z" />
    <glyph glyph-name="udieresis" unicode="&#xfc;" horiz-adv-x="547" 
d="M299 590v126h134v-126h-134zM111 590v126h134v-126h-134zM211 -10q-75 0 -116.5 48.5t-41.5 132.5v365h141v-323q0 -95 76 -95q37 0 57.5 24.5t20.5 70.5v323h142v-536h-142v72q-57 -82 -137 -82z" />
    <glyph glyph-name="yacute" unicode="&#xfd;" horiz-adv-x="527" 
d="M266 181l98 355h144l-176 -543q-27 -81 -63 -114.5t-98 -33.5q-61 0 -115 32l39 106q31 -18 58 -18q33 0 46 34l-182 537h148zM206 589l104 168l119 -55l-121 -113h-102z" />
    <glyph glyph-name="thorn" unicode="&#xfe;" horiz-adv-x="586" 
d="M57 -151v873h142v-260q58 84 145 84q86 0 145 -70t59 -200v-16q0 -130 -59 -200t-145 -70t-145 79v-220h-142zM302 114q45 0 74.5 41t29.5 108v10q0 67 -29.5 108t-74.5 41t-75 -41t-30 -108v-10q0 -67 30 -108t75 -41z" />
    <glyph glyph-name="ydieresis" unicode="&#xff;" horiz-adv-x="527" 
d="M266 181l98 355h144l-176 -543q-27 -81 -63 -114.5t-98 -33.5q-61 0 -115 32l39 106q31 -18 58 -18q33 0 46 34l-182 537h148zM290 590v126h134v-126h-134zM102 590v126h134v-126h-134z" />
    <glyph glyph-name="Amacron" unicode="&#x100;" horiz-adv-x="674" 
d="M17 0l251 704h138l251 -704h-150l-52 152h-241l-51 -152h-146zM258 280h153l-76 228zM166 759v99h340v-99h-340z" />
    <glyph glyph-name="amacron" unicode="&#x101;" horiz-adv-x="518" 
d="M188 -10q-68 0 -113.5 43.5t-45.5 119.5v6q0 85 50.5 128t136.5 43q56 0 112 -22v16q0 46 -26.5 70t-74.5 24q-52 0 -123 -30l-39 111q86 43 183 43q108 0 163 -55t55 -162v-325h-139v58q-52 -68 -139 -68zM235 94q41 -1 68 22t27 60v45q-36 17 -79 17q-40 0 -62.5 -19.5
t-22.5 -55.5v-2q0 -32 18.5 -49t50.5 -18zM99 593v97h320v-97h-320z" />
    <glyph glyph-name="Abreve" unicode="&#x102;" horiz-adv-x="674" 
d="M17 0l251 704h138l251 -704h-150l-52 152h-241l-51 -152h-146zM258 280h153l-76 228zM336 752q-72 0 -117.5 36t-50.5 102h94q16 -47 74 -47t74 47h94q-5 -66 -50.5 -102t-117.5 -36z" />
    <glyph glyph-name="abreve" unicode="&#x103;" horiz-adv-x="518" 
d="M188 -10q-68 0 -113.5 43.5t-45.5 119.5v6q0 85 50.5 128t136.5 43q56 0 112 -22v16q0 46 -26.5 70t-74.5 24q-52 0 -123 -30l-39 111q86 43 183 43q108 0 163 -55t55 -162v-325h-139v58q-52 -68 -139 -68zM235 94q41 -1 68 22t27 60v45q-36 17 -79 17q-40 0 -62.5 -19.5
t-22.5 -55.5v-2q0 -32 18.5 -49t50.5 -18zM259 585q-70 0 -115.5 38.5t-51.5 108.5h93q15 -56 74 -56t74 56h93q-6 -70 -51.5 -108.5t-115.5 -38.5z" />
    <glyph glyph-name="Aogonek" unicode="&#x104;" horiz-adv-x="674" 
d="M662 -91v-68q-23 -3 -43 -3q-59 0 -91 22t-32 60t34 80h-23l-52 152h-241l-51 -152h-146l251 704h138l251 -704h-32q-24 -28 -24 -55q0 -39 61 -36zM258 280h153l-76 228z" />
    <glyph glyph-name="aogonek" unicode="&#x105;" horiz-adv-x="518" 
d="M468 -91v-68q-22 -3 -43 -3q-59 0 -91 22t-32 60t34 80h-9v58q-52 -68 -139 -68q-68 0 -113.5 43.5t-45.5 119.5v6q0 85 50.5 128t136.5 43q56 0 112 -22v16q0 46 -26.5 70t-74.5 24q-52 0 -123 -30l-39 111q86 43 183 43q108 0 163 -55t55 -162v-325h-35
q-24 -28 -24 -55q0 -39 61 -36zM235 94q41 -1 68 22t27 60v45q-36 17 -79 17q-40 0 -62.5 -19.5t-22.5 -55.5v-2q0 -32 18.5 -49t50.5 -18z" />
    <glyph glyph-name="Cacute" unicode="&#x106;" horiz-adv-x="619" 
d="M353 -10q-138 0 -223 97.5t-85 257.5v9q0 158 89 257t228 99q134 0 225 -93l-87 -112q-68 70 -143 70q-71 0 -117 -61t-46 -162v-3q0 -102 47 -163t118 -61t144 73l87 -103q-51 -52 -106 -78.5t-131 -26.5zM285 755l111 148l122 -55l-125 -93h-108z" />
    <glyph glyph-name="cacute" unicode="&#x107;" horiz-adv-x="484" 
d="M216 589l104 168l119 -55l-121 -113h-102zM279 -12q-106 0 -174.5 76.5t-68.5 195.5v12q0 119 69.5 196.5t178.5 77.5q103 0 175 -72l-77 -103q-46 48 -96 48q-49 0 -79 -41.5t-30 -107.5v-4q0 -68 30 -109.5t82 -41.5q50 0 97 49l75 -94q-74 -82 -182 -82z" />
    <glyph glyph-name="Cdotaccent" unicode="&#x10a;" horiz-adv-x="619" 
d="M275 756v121h138v-121h-138zM353 -10q-138 0 -223 97.5t-85 257.5v9q0 158 89 257t228 99q134 0 225 -93l-87 -112q-68 70 -143 70q-71 0 -117 -61t-46 -162v-3q0 -102 47 -163t118 -61t144 73l87 -103q-51 -52 -106 -78.5t-131 -26.5z" />
    <glyph glyph-name="cdotaccent" unicode="&#x10b;" horiz-adv-x="484" 
d="M279 -12q-106 0 -174.5 76.5t-68.5 195.5v12q0 119 69.5 196.5t178.5 77.5q103 0 175 -72l-77 -103q-46 48 -96 48q-49 0 -79 -41.5t-30 -107.5v-4q0 -68 30 -109.5t82 -41.5q50 0 97 49l75 -94q-74 -82 -182 -82zM205 590v126h136v-126h-136z" />
    <glyph glyph-name="Ccaron" unicode="&#x10c;" horiz-adv-x="619" 
d="M353 -10q-138 0 -223 97.5t-85 257.5v9q0 158 89 257t228 99q134 0 225 -93l-87 -112q-68 70 -143 70q-71 0 -117 -61t-46 -162v-3q0 -102 47 -163t118 -61t144 73l87 -103q-51 -52 -106 -78.5t-131 -26.5zM521 894l-112 -139h-130l-112 139h110l68 -54l68 54h108z" />
    <glyph glyph-name="ccaron" unicode="&#x10d;" horiz-adv-x="484" 
d="M446 740l-109 -151h-128l-109 151h105l69 -64l69 64h103zM279 -12q-106 0 -174.5 76.5t-68.5 195.5v12q0 119 69.5 196.5t178.5 77.5q103 0 175 -72l-77 -103q-46 48 -96 48q-49 0 -79 -41.5t-30 -107.5v-4q0 -68 30 -109.5t82 -41.5q50 0 97 49l75 -94q-74 -82 -182 -82
z" />
    <glyph glyph-name="Dcaron" unicode="&#x10e;" horiz-adv-x="674" 
d="M70 0v700h226q151 0 242.5 -95t91.5 -250v-9q0 -155 -91.5 -250.5t-242.5 -95.5h-226zM295 569h-80v-438h80q84 0 134.5 57t50.5 159v5q0 102 -50.5 159.5t-134.5 57.5zM502 888l-112 -139h-130l-112 139h110l68 -54l68 54h108z" />
    <glyph glyph-name="dcaron" unicode="&#x10f;" horiz-adv-x="586" 
d="M570 582l10 190h100v-3l-53 -187h-57zM242 -10q-86 0 -145 70t-59 200v16q0 130 59 200t145 70q84 0 145 -79v255h142v-722h-142v74q-58 -84 -145 -84zM284 114q45 0 75 41t30 108v10q0 67 -30 108t-75 41t-74.5 -41t-29.5 -108v-10q0 -67 29.5 -108t74.5 -41z" />
    <glyph glyph-name="Dcroat" unicode="&#x110;" horiz-adv-x="698" 
d="M93 0v288h-63v128h63v284h226q150 0 242.5 -95.5t92.5 -249.5v-9q0 -154 -92.5 -250t-242.5 -96h-226zM359 288h-121v-157h80q85 0 135.5 57t50.5 159v5q0 103 -50.5 160t-135.5 57h-80v-153h121v-128z" />
    <glyph glyph-name="dcroat" unicode="&#x111;" horiz-adv-x="586" 
d="M255 589v86h132v47h142v-47h57v-87h-57v-588h-142v74q-58 -84 -145 -84q-86 0 -145 70t-59 200v16q0 130 59 200t145 70q84 0 145 -79v122h-132zM284 114q45 0 75 41t30 108v10q0 67 -30 108t-75 41t-74.5 -41t-29.5 -108v-10q0 -67 29.5 -108t74.5 -41z" />
    <glyph glyph-name="Emacron" unicode="&#x112;" horiz-adv-x="569" 
d="M127 753v99h340v-99h-340zM70 0v700h451v-131h-307v-151h270v-131h-270v-156h311v-131h-455z" />
    <glyph glyph-name="emacron" unicode="&#x113;" horiz-adv-x="533" 
d="M286 -12q-108 0 -179.5 75.5t-71.5 198.5v9q0 119 66.5 197t167.5 78q110 0 169 -79.5t59 -205.5q0 -25 -1 -46h-320q9 -52 39.5 -80t76.5 -28q57 0 112 53l73 -86q-78 -86 -191 -86zM175 309h185q-5 56 -28.5 88t-62.5 32t-63.5 -31.5t-30.5 -88.5zM107 593v97h320v-97
h-320z" />
    <glyph glyph-name="Ebreve" unicode="&#x114;" horiz-adv-x="569" 
d="M297 746q-72 0 -117.5 36t-50.5 102h94q16 -47 74 -47t74 47h94q-5 -66 -50.5 -102t-117.5 -36zM70 0v700h451v-131h-307v-151h270v-131h-270v-156h311v-131h-455z" />
    <glyph glyph-name="ebreve" unicode="&#x115;" horiz-adv-x="533" 
d="M286 -12q-108 0 -179.5 75.5t-71.5 198.5v9q0 119 66.5 197t167.5 78q110 0 169 -79.5t59 -205.5q0 -25 -1 -46h-320q9 -52 39.5 -80t76.5 -28q57 0 112 53l73 -86q-78 -86 -191 -86zM175 309h185q-5 56 -28.5 88t-62.5 32t-63.5 -31.5t-30.5 -88.5zM267 585
q-70 0 -115.5 38.5t-51.5 108.5h93q15 -56 74 -56t74 56h93q-6 -70 -51.5 -108.5t-115.5 -38.5z" />
    <glyph glyph-name="Edotaccent" unicode="&#x116;" horiz-adv-x="569" 
d="M228 750v121h138v-121h-138zM70 0v700h451v-131h-307v-151h270v-131h-270v-156h311v-131h-455z" />
    <glyph glyph-name="edotaccent" unicode="&#x117;" horiz-adv-x="533" 
d="M286 -12q-108 0 -179.5 75.5t-71.5 198.5v9q0 119 66.5 197t167.5 78q110 0 169 -79.5t59 -205.5q0 -25 -1 -46h-320q9 -52 39.5 -80t76.5 -28q57 0 112 53l73 -86q-78 -86 -191 -86zM175 309h185q-5 56 -28.5 88t-62.5 32t-63.5 -31.5t-30.5 -88.5zM199 590v126h136
v-126h-136z" />
    <glyph glyph-name="Eogonek" unicode="&#x118;" horiz-adv-x="569" 
d="M70 0v700h451v-131h-307v-151h270v-131h-270v-156h311v-131h-38q-24 -28 -24 -55q0 -39 61 -36v-68q-22 -3 -43 -3q-59 0 -91 22t-32 60t34 80h-322z" />
    <glyph glyph-name="eogonek" unicode="&#x119;" horiz-adv-x="533" 
d="M175 309h185q-5 56 -28.5 88t-62.5 32t-63.5 -31.5t-30.5 -88.5zM404 160l73 -86q-7 -9 -45 -46q-47 -44 -47 -79q0 -43 61 -40v-68q-24 -3 -44 -3q-58 0 -90.5 21.5t-32.5 56.5q0 33 31 74q-12 -2 -24 -2q-108 0 -179.5 75.5t-71.5 198.5v9q0 119 66.5 197t167.5 78
q110 0 169 -79.5t59 -205.5q0 -4 -0.5 -22.5t-0.5 -23.5h-320q9 -52 39.5 -80t76.5 -28q57 0 112 53z" />
    <glyph glyph-name="Ecaron" unicode="&#x11a;" horiz-adv-x="569" 
d="M474 888l-112 -139h-130l-112 139h110l68 -54l68 54h108zM70 0v700h451v-131h-307v-151h270v-131h-270v-156h311v-131h-455z" />
    <glyph glyph-name="ecaron" unicode="&#x11b;" horiz-adv-x="533" 
d="M440 740l-109 -151h-128l-109 151h105l69 -64l69 64h103zM286 -12q-108 0 -179.5 75.5t-71.5 198.5v9q0 119 66.5 197t167.5 78q110 0 169 -79.5t59 -205.5q0 -25 -1 -46h-320q9 -52 39.5 -80t76.5 -28q57 0 112 53l73 -86q-78 -86 -191 -86zM175 309h185q-5 56 -28.5 88
t-62.5 32t-63.5 -31.5t-30.5 -88.5z" />
    <glyph glyph-name="Gbreve" unicode="&#x11e;" horiz-adv-x="672" 
d="M358 752q-72 0 -117.5 36t-50.5 102h94q16 -47 74 -47t74 47h94q-5 -66 -50.5 -102t-117.5 -36zM369 -10q-143 0 -233.5 96.5t-90.5 258.5v9q0 155 92 255.5t235 100.5q132 0 229 -82l-86 -113q-65 60 -145 60q-76 0 -126 -62t-50 -158v-8q0 -105 51 -165t131 -60
q64 0 104 29v124h-127v126h265v-324q-116 -87 -249 -87z" />
    <glyph glyph-name="gbreve" unicode="&#x11f;" horiz-adv-x="586" 
d="M264 -153q-108 0 -204 45l44 110q70 -39 152 -39q132 0 132 127v34q-64 -84 -150 -84q-85 0 -142.5 65.5t-57.5 186.5v3q0 120 58 185.5t142 65.5q85 0 149 -79v69h142v-438q0 -124 -61 -187q-65 -64 -204 -64zM284 162q46 0 75.5 36t29.5 95v1q0 58 -29.5 94t-75.5 36
t-75 -35.5t-29 -94.5v-1q0 -60 29 -95.5t75 -35.5zM300 585q-70 0 -115.5 38.5t-51.5 108.5h93q15 -56 74 -56t74 56h93q-6 -70 -51.5 -108.5t-115.5 -38.5z" />
    <glyph glyph-name="Gdotaccent" unicode="&#x120;" horiz-adv-x="672" 
d="M289 756v121h138v-121h-138zM369 -10q-143 0 -233.5 96.5t-90.5 258.5v9q0 155 92 255.5t235 100.5q132 0 229 -82l-86 -113q-65 60 -145 60q-76 0 -126 -62t-50 -158v-8q0 -105 51 -165t131 -60q64 0 104 29v124h-127v126h265v-324q-116 -87 -249 -87z" />
    <glyph glyph-name="gdotaccent" unicode="&#x121;" horiz-adv-x="586" 
d="M264 -153q-108 0 -204 45l44 110q70 -39 152 -39q132 0 132 127v34q-64 -84 -150 -84q-85 0 -142.5 65.5t-57.5 186.5v3q0 120 58 185.5t142 65.5q85 0 149 -79v69h142v-438q0 -124 -61 -187q-65 -64 -204 -64zM284 162q46 0 75.5 36t29.5 95v1q0 58 -29.5 94t-75.5 36
t-75 -35.5t-29 -94.5v-1q0 -60 29 -95.5t75 -35.5zM232 590v126h136v-126h-136z" />
    <glyph glyph-name="Gcommaaccent" unicode="&#x122;" horiz-adv-x="672" 
d="M291 -274l-7 44q37 4 54 20t15 46h-59v107h128v-92q0 -64 -32.5 -93.5t-98.5 -31.5zM369 -10q-143 0 -233.5 96.5t-90.5 258.5v9q0 155 92 255.5t235 100.5q132 0 229 -82l-86 -113q-65 60 -145 60q-76 0 -126 -62t-50 -158v-8q0 -105 51 -165t131 -60q64 0 104 29v124
h-127v126h265v-324q-116 -87 -249 -87z" />
    <glyph glyph-name="gcommaaccent" unicode="&#x123;" horiz-adv-x="586" 
d="M365 807l7 -44q-37 -4 -54 -20t-15 -46h59v-107h-128v92q0 64 32.5 93.5t98.5 31.5zM264 -153q-108 0 -204 45l44 110q70 -39 152 -39q132 0 132 127v34q-64 -84 -150 -84q-85 0 -142.5 65.5t-57.5 186.5v3q0 120 58 185.5t142 65.5q85 0 149 -79v69h142v-438
q0 -124 -61 -187q-65 -64 -204 -64zM284 162q46 0 75.5 36t29.5 95v1q0 58 -29.5 94t-75.5 36t-75 -35.5t-29 -94.5v-1q0 -60 29 -95.5t75 -35.5z" />
    <glyph glyph-name="Hbar" unicode="&#x126;" horiz-adv-x="665" 
d="M12 513v105h60v82h145v-83h231v83h144v-82h60v-105h-60v-513h-144v285h-231v-285h-145v513h-60zM217 419h231v96h-231v-96z" />
    <glyph glyph-name="hbar" unicode="&#x127;" horiz-adv-x="548" 
d="M331 589h-132v-125q59 82 138 82q74 0 116 -48.5t42 -132.5v-365h-142v323q0 95 -76 95q-36 0 -57 -24.5t-21 -70.5v-323h-142v588h-57v87h57v47h142v-47h132v-86z" />
    <glyph glyph-name="Imacron" unicode="&#x12a;" horiz-adv-x="295" 
d="M75 0v700h145v-700h-145zM-22 753v99h340v-99h-340z" />
    <glyph glyph-name="imacron" unicode="&#x12b;" horiz-adv-x="267" 
d="M62 0v536h142v-536h-142zM-26 593v97h320v-97h-320z" />
    <glyph glyph-name="Ibreve" unicode="&#x12c;" horiz-adv-x="295" 
d="M75 0v700h145v-700h-145zM148 746q-72 0 -117.5 36t-50.5 102h94q16 -47 74 -47t74 47h94q-5 -66 -50.5 -102t-117.5 -36z" />
    <glyph glyph-name="ibreve" unicode="&#x12d;" horiz-adv-x="267" 
d="M62 0v536h142v-536h-142zM134 585q-70 0 -115.5 38.5t-51.5 108.5h93q15 -56 74 -56t74 56h93q-6 -70 -51.5 -108.5t-115.5 -38.5z" />
    <glyph glyph-name="Iogonek" unicode="&#x12e;" horiz-adv-x="295" 
d="M75 0v700h145v-700h-25q-24 -28 -24 -55q0 -39 61 -36v-68q-22 -3 -43 -3q-59 0 -91 22t-32 60t34 80h-25z" />
    <glyph glyph-name="iogonek" unicode="&#x12f;" horiz-adv-x="267" 
d="M62 0v536h142v-536h-23q-24 -28 -24 -55q0 -39 61 -36v-68q-23 -3 -43 -3q-59 0 -91 22t-32 60t34 80h-24zM59 593v129h148v-129h-148z" />
    <glyph glyph-name="Idotaccent" unicode="&#x130;" horiz-adv-x="295" 
d="M75 0v700h145v-700h-145zM79 750v121h138v-121h-138z" />
    <glyph glyph-name="dotlessi" unicode="&#x131;" horiz-adv-x="267" 
d="M62 0v536h142v-536h-142z" />
    <glyph glyph-name="Kcommaaccent" unicode="&#x136;" horiz-adv-x="633" 
d="M251 -268l-7 44q37 4 54 20t15 46h-59v107h128v-92q0 -64 -32.5 -93.5t-98.5 -31.5zM70 0v700h145v-302l229 302h171l-235 -297l245 -403h-170l-175 288l-65 -82v-206h-145z" />
    <glyph glyph-name="kcommaaccent" unicode="&#x137;" horiz-adv-x="520" 
d="M202 -271l-7 44q37 4 54 20t15 46h-59v107h128v-92q0 -64 -32.5 -93.5t-98.5 -31.5zM57 0v722h142v-384l146 198h166l-170 -213l174 -323h-162l-110 215l-44 -57v-158h-142z" />
    <glyph glyph-name="Lacute" unicode="&#x139;" horiz-adv-x="525" 
d="M103 749l111 148l122 -55l-125 -93h-108zM70 0v700h145v-567h283v-133h-428z" />
    <glyph glyph-name="lacute" unicode="&#x13a;" horiz-adv-x="267" 
d="M81 759l111 148l122 -55l-125 -93h-108zM62 0v722h142v-722h-142z" />
    <glyph glyph-name="Lcommaaccent" unicode="&#x13b;" horiz-adv-x="525" 
d="M216 -271l-7 44q37 4 54 20t15 46h-59v107h128v-92q0 -64 -32.5 -93.5t-98.5 -31.5zM70 0v700h145v-567h283v-133h-428z" />
    <glyph glyph-name="lcommaaccent" unicode="&#x13c;" horiz-adv-x="267" 
d="M67 -271l-7 44q37 4 54 20t15 46h-59v107h128v-92q0 -64 -32.5 -93.5t-98.5 -31.5zM62 0v722h142v-722h-142z" />
    <glyph glyph-name="Lcaron" unicode="&#x13d;" horiz-adv-x="525" 
d="M269 511l10 190h100v-3l-53 -187h-57zM70 0v700h145v-567h283v-133h-428z" />
    <glyph glyph-name="lcaron" unicode="&#x13e;" horiz-adv-x="267" 
d="M246 582l10 190h100v-3l-53 -187h-57zM62 0v722h142v-722h-142z" />
    <glyph glyph-name="Ldot" unicode="&#x13f;" horiz-adv-x="525" 
d="M348 313v127h130v-127h-130zM70 0v700h145v-567h283v-133h-428z" />
    <glyph glyph-name="ldot" unicode="&#x140;" horiz-adv-x="356" 
d="M256 312v120h111v-120h-111zM62 0v722h142v-722h-142z" />
    <glyph glyph-name="Lslash" unicode="&#x141;" horiz-adv-x="549" 
d="M362 374l-126 -59v-182h286v-133h-429v248l-63 -30v136l63 30v316h143v-249l126 60v-137z" />
    <glyph glyph-name="lslash" unicode="&#x142;" horiz-adv-x="319" 
d="M297 374l-67 -35v-339h-140v266l-68 -35v134l68 35v322h140v-249l67 35v-134z" />
    <glyph glyph-name="Nacute" unicode="&#x143;" horiz-adv-x="683" 
d="M282 749l111 148l122 -55l-125 -93h-108zM70 0v700h133l268 -408v408h142v-700h-124l-277 423v-423h-142z" />
    <glyph glyph-name="nacute" unicode="&#x144;" horiz-adv-x="548" 
d="M218 589l104 168l119 -55l-121 -113h-102zM57 0v536h142v-72q59 82 138 82q74 0 116 -48.5t42 -132.5v-365h-142v323q0 95 -76 95q-36 0 -57 -24.5t-21 -70.5v-323h-142z" />
    <glyph glyph-name="Ncommaaccent" unicode="&#x145;" horiz-adv-x="683" 
d="M274 -268l-7 44q37 4 54 20t15 46h-59v107h128v-92q0 -64 -32.5 -93.5t-98.5 -31.5zM70 0v700h133l268 -408v408h142v-700h-124l-277 423v-423h-142z" />
    <glyph glyph-name="ncommaaccent" unicode="&#x146;" horiz-adv-x="548" 
d="M208 -271l-7 44q37 4 54 20t15 46h-59v107h128v-92q0 -64 -32.5 -93.5t-98.5 -31.5zM57 0v536h142v-72q59 82 138 82q74 0 116 -48.5t42 -132.5v-365h-142v323q0 95 -76 95q-36 0 -57 -24.5t-21 -70.5v-323h-142z" />
    <glyph glyph-name="Ncaron" unicode="&#x147;" horiz-adv-x="683" 
d="M517 888l-112 -139h-130l-112 139h110l68 -54l68 54h108zM70 0v700h133l268 -408v408h142v-700h-124l-277 423v-423h-142z" />
    <glyph glyph-name="ncaron" unicode="&#x148;" horiz-adv-x="548" 
d="M448 740l-109 -151h-128l-109 151h105l69 -64l69 64h103zM57 0v536h142v-72q59 82 138 82q74 0 116 -48.5t42 -132.5v-365h-142v323q0 95 -76 95q-36 0 -57 -24.5t-21 -70.5v-323h-142z" />
    <glyph glyph-name="Omacron" unicode="&#x14c;" horiz-adv-x="723" 
d="M191 759v99h340v-99h-340zM361 -12q-140 0 -228 99t-88 256v12q0 157 89 257t228 100q140 0 228 -99t88 -256v-12q0 -157 -89 -257t-228 -100zM362 122q74 0 120 61t46 163v7q0 102 -46.5 163.5t-120.5 61.5t-120.5 -61t-46.5 -163v-7q0 -102 47 -163.5t121 -61.5z" />
    <glyph glyph-name="omacron" unicode="&#x14d;" horiz-adv-x="577" 
d="M128 593v97h320v-97h-320zM288 -12q-109 0 -180.5 77t-71.5 196v11q0 119 72 196.5t181 77.5t180 -76.5t71 -196.5v-11q0 -119 -71.5 -196.5t-180.5 -77.5zM289 111q51 0 81 42.5t30 109.5v7q0 66 -31 109.5t-81 43.5q-52 0 -82 -42.5t-30 -109.5v-7q0 -66 31.5 -109.5
t81.5 -43.5z" />
    <glyph glyph-name="Obreve" unicode="&#x14e;" horiz-adv-x="723" 
d="M361 752q-72 0 -117.5 36t-50.5 102h94q16 -47 74 -47t74 47h94q-5 -66 -50.5 -102t-117.5 -36zM361 -12q-140 0 -228 99t-88 256v12q0 157 89 257t228 100q140 0 228 -99t88 -256v-12q0 -157 -89 -257t-228 -100zM362 122q74 0 120 61t46 163v7q0 102 -46.5 163.5
t-120.5 61.5t-120.5 -61t-46.5 -163v-7q0 -102 47 -163.5t121 -61.5z" />
    <glyph glyph-name="obreve" unicode="&#x14f;" horiz-adv-x="577" 
d="M288 -12q-109 0 -180.5 77t-71.5 196v11q0 119 72 196.5t181 77.5t180 -76.5t71 -196.5v-11q0 -119 -71.5 -196.5t-180.5 -77.5zM289 111q51 0 81 42.5t30 109.5v7q0 66 -31 109.5t-81 43.5q-52 0 -82 -42.5t-30 -109.5v-7q0 -66 31.5 -109.5t81.5 -43.5zM288 585
q-70 0 -115.5 38.5t-51.5 108.5h93q15 -56 74 -56t74 56h93q-6 -70 -51.5 -108.5t-115.5 -38.5z" />
    <glyph glyph-name="Ohungarumlaut" unicode="&#x150;" horiz-adv-x="723" 
d="M361 -12q-140 0 -228 99t-88 256v12q0 157 89 257t228 100q140 0 228 -99t88 -256v-12q0 -157 -89 -257t-228 -100zM362 122q74 0 120 61t46 163v7q0 102 -46.5 163.5t-120.5 61.5t-120.5 -61t-46.5 -163v-7q0 -102 47 -163.5t121 -61.5zM215 755l110 148l116 -55
l-124 -93h-102zM383 755l111 148l115 -55l-123 -93h-103z" />
    <glyph glyph-name="ohungarumlaut" unicode="&#x151;" horiz-adv-x="577" 
d="M309 589l103 168l115 -55l-121 -113h-97zM147 589l102 168l115 -55l-120 -113h-97zM288 -12q-109 0 -180.5 77t-71.5 196v11q0 119 72 196.5t181 77.5t180 -76.5t71 -196.5v-11q0 -119 -71.5 -196.5t-180.5 -77.5zM289 111q51 0 81 42.5t30 109.5v7q0 66 -31 109.5
t-81 43.5q-52 0 -82 -42.5t-30 -109.5v-7q0 -66 31.5 -109.5t81.5 -43.5z" />
    <glyph glyph-name="OE" unicode="&#x152;" horiz-adv-x="921" 
d="M379 0q-150 0 -242 95.5t-92 249.5v9q0 154 92 250t242 96h494v-131h-290v-151h253v-131h-253v-156h294v-131h-498zM379 131h60v438h-59q-85 0 -135.5 -57t-50.5 -159v-5q0 -102 50.5 -159.5t134.5 -57.5z" />
    <glyph glyph-name="oe" unicode="&#x153;" horiz-adv-x="894" 
d="M282 -12q-103 0 -174.5 77.5t-71.5 195.5v11q0 118 72 196t178 78q108 0 174 -84q66 84 170 84q110 0 169 -79.5t59 -205.5q0 -4 -2 -46h-319q20 -108 116 -108q62 0 112 53l73 -86q-77 -86 -191 -86q-117 0 -188 87q-66 -87 -177 -87zM535 309h186q-5 56 -28.5 88
t-62.5 32t-63.5 -31.5t-31.5 -88.5zM286 111q50 0 78.5 42.5t28.5 109.5v7q0 66 -29.5 109.5t-78.5 43.5q-50 0 -79.5 -43t-29.5 -109v-7q0 -66 30.5 -109.5t79.5 -43.5z" />
    <glyph glyph-name="Racute" unicode="&#x154;" horiz-adv-x="627" 
d="M70 0v700h263q123 0 190 -67q59 -59 59 -162v-4q0 -150 -130 -207l149 -260h-166l-129 230h-91v-230h-145zM215 358h107q54 0 84 28.5t30 76.5v1q0 52 -30.5 78.5t-86.5 26.5h-104v-211zM246 749l111 148l122 -55l-125 -93h-108z" />
    <glyph glyph-name="racute" unicode="&#x155;" horiz-adv-x="367" 
d="M143 589l104 168l119 -55l-121 -113h-102zM57 0v536h142v-95q44 109 145 104v-154h-6q-67 0 -103 -41.5t-36 -124.5v-225h-142z" />
    <glyph glyph-name="Rcommaaccent" unicode="&#x156;" horiz-adv-x="627" 
d="M70 0v700h263q123 0 190 -67q59 -59 59 -162v-4q0 -150 -130 -207l149 -260h-166l-129 230h-91v-230h-145zM215 358h107q54 0 84 28.5t30 76.5v1q0 52 -30.5 78.5t-86.5 26.5h-104v-211zM238 -268l-7 44q37 4 54 20t15 46h-59v107h128v-92q0 -64 -32.5 -93.5t-98.5 -31.5
z" />
    <glyph glyph-name="rcommaaccent" unicode="&#x157;" horiz-adv-x="367" 
d="M68 -271l-7 44q37 4 54 20t15 46h-59v107h128v-92q0 -64 -32.5 -93.5t-98.5 -31.5zM57 0v536h142v-95q44 109 145 104v-154h-6q-67 0 -103 -41.5t-36 -124.5v-225h-142z" />
    <glyph glyph-name="Rcaron" unicode="&#x158;" horiz-adv-x="627" 
d="M70 0v700h263q123 0 190 -67q59 -59 59 -162v-4q0 -150 -130 -207l149 -260h-166l-129 230h-91v-230h-145zM215 358h107q54 0 84 28.5t30 76.5v1q0 52 -30.5 78.5t-86.5 26.5h-104v-211zM482 888l-112 -139h-130l-112 139h110l68 -54l68 54h108z" />
    <glyph glyph-name="rcaron" unicode="&#x159;" horiz-adv-x="367" 
d="M372 740l-109 -151h-128l-109 151h105l69 -64l69 64h103zM57 0v536h142v-95q44 109 145 104v-154h-6q-67 0 -103 -41.5t-36 -124.5v-225h-142z" />
    <glyph glyph-name="Sacute" unicode="&#x15a;" horiz-adv-x="550" 
d="M278 -9q-149 0 -259 103l86 107q91 -79 174 -79q42 0 66 19t24 50v1q0 28 -24 48t-96 47q-105 40 -153 85.5t-48 129.5v2q0 91 64 148t165 57q131 0 226 -86l-81 -110q-79 65 -149 65q-37 0 -59 -17t-22 -44v-1q0 -30 25.5 -50t107.5 -54q98 -38 143 -84.5t45 -124.5v-2
q0 -96 -65.5 -153t-169.5 -57zM219 755l111 148l122 -55l-125 -93h-108z" />
    <glyph glyph-name="sacute" unicode="&#x15b;" horiz-adv-x="438" 
d="M165 589l104 168l119 -55l-121 -113h-102zM219 -10q-112 0 -203 74l62 100q78 -60 143 -60q28 0 42.5 11.5t14.5 29.5v2q0 5 -1.5 9.5t-4.5 9t-6 7.5t-10 7t-11.5 7t-13.5 7t-15 6.5l-18 7.5t-18 8q-69 30 -105 65t-36 97v2q0 75 52 119.5t132 44.5q95 0 177 -58
l-57 -102q-71 46 -122 46q-25 0 -38.5 -11t-13.5 -27v-2q0 -18 20.5 -31.5t64.5 -33.5q4 -1 6.5 -2.5t5.5 -2.5q70 -33 106 -68t36 -93v-2q0 -80 -52.5 -123.5t-136.5 -43.5z" />
    <glyph glyph-name="Scedilla" unicode="&#x15e;" horiz-adv-x="550" 
d="M271 -159l-119 48l72 106q-118 16 -205 99l86 107q91 -79 174 -79q42 0 66 19t24 50v1q0 28 -24 48t-96 47q-105 40 -153 85.5t-48 129.5v2q0 91 64 148t165 57q131 0 226 -86l-81 -110q-79 65 -149 65q-37 0 -59 -17t-22 -44v-1q0 -30 25.5 -50t107.5 -54
q98 -38 143 -84.5t45 -124.5v-2q0 -83 -50.5 -137.5t-133.5 -68.5z" />
    <glyph glyph-name="scedilla" unicode="&#x15f;" horiz-adv-x="438" 
d="M209 -159l-119 48l72 107q-80 13 -146 68l62 100q78 -60 143 -60q28 0 42.5 11.5t14.5 29.5v2q0 5 -1.5 9.5t-4.5 9t-6 7.5t-10 7t-11.5 7t-13.5 7t-15 6.5l-18 7.5t-18 8q-69 30 -105 65t-36 97v2q0 75 52 119.5t132 44.5q95 0 177 -58l-57 -102q-71 46 -122 46
q-25 0 -38.5 -11t-13.5 -27v-2q0 -18 20.5 -31.5t64.5 -33.5q4 -1 6.5 -2.5t5.5 -2.5q70 -33 106 -68t36 -93v-2q0 -68 -38.5 -110t-102.5 -53z" />
    <glyph glyph-name="Scaron" unicode="&#x160;" horiz-adv-x="550" 
d="M278 -9q-149 0 -259 103l86 107q91 -79 174 -79q42 0 66 19t24 50v1q0 28 -24 48t-96 47q-105 40 -153 85.5t-48 129.5v2q0 91 64 148t165 57q131 0 226 -86l-81 -110q-79 65 -149 65q-37 0 -59 -17t-22 -44v-1q0 -30 25.5 -50t107.5 -54q98 -38 143 -84.5t45 -124.5v-2
q0 -96 -65.5 -153t-169.5 -57zM456 894l-112 -139h-130l-112 139h110l68 -54l68 54h108z" />
    <glyph glyph-name="scaron" unicode="&#x161;" horiz-adv-x="438" 
d="M396 740l-109 -151h-128l-109 151h105l69 -64l69 64h103zM219 -10q-112 0 -203 74l62 100q78 -60 143 -60q28 0 42.5 11.5t14.5 29.5v2q0 5 -1.5 9.5t-4.5 9t-6 7.5t-10 7t-11.5 7t-13.5 7t-15 6.5l-18 7.5t-18 8q-69 30 -105 65t-36 97v2q0 75 52 119.5t132 44.5
q95 0 177 -58l-57 -102q-71 46 -122 46q-25 0 -38.5 -11t-13.5 -27v-2q0 -18 20.5 -31.5t64.5 -33.5q4 -1 6.5 -2.5t5.5 -2.5q70 -33 106 -68t36 -93v-2q0 -80 -52.5 -123.5t-136.5 -43.5z" />
    <glyph glyph-name="Tcommaaccent" unicode="&#x162;" horiz-adv-x="552" 
d="M209 -271l-7 44q37 4 54 20t15 46h-59v107h128v-92q0 -64 -32.5 -93.5t-98.5 -31.5zM204 0v566h-176v134h496v-134h-176v-566h-144z" />
    <glyph glyph-name="Tcommaaccent" unicode="&#x21a;" horiz-adv-x="552" 
d="M209 -271l-7 44q37 4 54 20t15 46h-59v107h128v-92q0 -64 -32.5 -93.5t-98.5 -31.5zM204 0v566h-176v134h496v-134h-176v-566h-144z" />
    <glyph glyph-name="tcommaaccent" unicode="&#x163;" horiz-adv-x="363" 
d="M129 -271l-7 44q37 4 54 20t15 46h-59v107h128v-92q0 -64 -32.5 -93.5t-98.5 -31.5zM221 -9q-67 0 -104.5 32.5t-37.5 110.5v282h-54v120h54v137h142v-137h106v-120h-106v-253q0 -46 44 -46q31 0 61 15v-113q-49 -28 -105 -28z" />
    <glyph glyph-name="tcommaaccent" unicode="&#x21b;" horiz-adv-x="363" 
d="M129 -271l-7 44q37 4 54 20t15 46h-59v107h128v-92q0 -64 -32.5 -93.5t-98.5 -31.5zM221 -9q-67 0 -104.5 32.5t-37.5 110.5v282h-54v120h54v137h142v-137h106v-120h-106v-253q0 -46 44 -46q31 0 61 15v-113q-49 -28 -105 -28z" />
    <glyph glyph-name="Tcaron" unicode="&#x164;" horiz-adv-x="552" 
d="M453 888l-112 -139h-130l-112 139h110l68 -54l68 54h108zM204 0v566h-176v134h496v-134h-176v-566h-144z" />
    <glyph glyph-name="tcaron" unicode="&#x165;" horiz-adv-x="363" 
d="M271 582l10 190h100v-3l-53 -187h-57zM221 -9q-67 0 -104.5 32.5t-37.5 110.5v282h-54v120h54v137h142v-137h106v-120h-106v-253q0 -46 44 -46q31 0 61 15v-113q-49 -28 -105 -28z" />
    <glyph glyph-name="Umacron" unicode="&#x16a;" horiz-adv-x="655" 
d="M157 753v99h340v-99h-340zM326 -11q-124 0 -194.5 72t-70.5 211v428h145v-429q0 -73 32.5 -110.5t89.5 -37.5t89.5 37t32.5 108v432h144v-425q0 -141 -71.5 -213.5t-196.5 -72.5z" />
    <glyph glyph-name="umacron" unicode="&#x16b;" horiz-adv-x="547" 
d="M211 -10q-75 0 -116.5 48.5t-41.5 132.5v365h141v-323q0 -95 76 -95q37 0 57.5 24.5t20.5 70.5v323h142v-536h-142v72q-57 -82 -137 -82zM112 593v97h320v-97h-320z" />
    <glyph glyph-name="Ubreve" unicode="&#x16c;" horiz-adv-x="655" 
d="M327 738q-72 0 -117.5 36t-50.5 102h94q16 -47 74 -47t74 47h94q-5 -66 -50.5 -102t-117.5 -36zM326 -11q-124 0 -194.5 72t-70.5 211v428h145v-429q0 -73 32.5 -110.5t89.5 -37.5t89.5 37t32.5 108v432h144v-425q0 -141 -71.5 -213.5t-196.5 -72.5z" />
    <glyph glyph-name="ubreve" unicode="&#x16d;" horiz-adv-x="547" 
d="M211 -10q-75 0 -116.5 48.5t-41.5 132.5v365h141v-323q0 -95 76 -95q37 0 57.5 24.5t20.5 70.5v323h142v-536h-142v72q-57 -82 -137 -82zM272 585q-70 0 -115.5 38.5t-51.5 108.5h93q15 -56 74 -56t74 56h93q-6 -70 -51.5 -108.5t-115.5 -38.5z" />
    <glyph glyph-name="Uring" unicode="&#x16e;" horiz-adv-x="655" 
d="M326 -11q-124 0 -194.5 72t-70.5 211v428h145v-429q0 -73 32.5 -110.5t89.5 -37.5t89.5 37t32.5 108v432h144v-425q0 -141 -71.5 -213.5t-196.5 -72.5zM327 726q-47 0 -80 29t-33 73t33 73t80 29t80 -29t33 -73t-33 -73t-80 -29zM327 777q24 0 40 15t16 36
q0 22 -15.5 36.5t-40.5 14.5t-40.5 -14.5t-15.5 -36.5q0 -21 16 -36t40 -15z" />
    <glyph glyph-name="uring" unicode="&#x16f;" horiz-adv-x="547" 
d="M272 574q-46 0 -78.5 31.5t-32.5 77.5t32.5 77.5t78.5 31.5t78.5 -31.5t32.5 -77.5t-32.5 -77.5t-78.5 -31.5zM272 624q24 0 41 17t17 42t-17 42.5t-41 17.5t-41 -17.5t-17 -42.5t17 -42t41 -17zM211 -10q-75 0 -116.5 48.5t-41.5 132.5v365h141v-323q0 -95 76 -95
q37 0 57.5 24.5t20.5 70.5v323h142v-536h-142v72q-57 -82 -137 -82z" />
    <glyph glyph-name="Uhungarumlaut" unicode="&#x170;" horiz-adv-x="655" 
d="M326 -11q-124 0 -194.5 72t-70.5 211v428h145v-429q0 -73 32.5 -110.5t89.5 -37.5t89.5 37t32.5 108v432h144v-425q0 -141 -71.5 -213.5t-196.5 -72.5zM181 749l110 148l116 -55l-124 -93h-102zM349 749l111 148l115 -55l-123 -93h-103z" />
    <glyph glyph-name="uhungarumlaut" unicode="&#x171;" horiz-adv-x="547" 
d="M211 -10q-75 0 -116.5 48.5t-41.5 132.5v365h141v-323q0 -95 76 -95q37 0 57.5 24.5t20.5 70.5v323h142v-536h-142v72q-57 -82 -137 -82zM293 589l103 168l115 -55l-121 -113h-97zM131 589l102 168l115 -55l-120 -113h-97z" />
    <glyph glyph-name="Uogonek" unicode="&#x172;" horiz-adv-x="655" 
d="M407 -91v-68q-23 -3 -43 -3q-59 0 -91 22t-32 60q0 35 29 74q-99 15 -154 85.5t-55 192.5v428h145v-429q0 -73 32.5 -110.5t89.5 -37.5t89.5 37t32.5 108v432h144v-425q0 -130 -61 -202t-170 -82q-17 -25 -17 -46q0 -39 61 -36z" />
    <glyph glyph-name="uogonek" unicode="&#x173;" horiz-adv-x="547" 
d="M211 -10q-75 0 -116.5 48.5t-41.5 132.5v365h141v-323q0 -95 76 -95q37 0 57.5 24.5t20.5 70.5v323h142v-536h-29q-24 -28 -24 -55q0 -39 61 -36v-68q-22 -3 -43 -3q-59 0 -91 22t-32 60t34 80h-18v72q-57 -82 -137 -82z" />
    <glyph glyph-name="Wcircumflex" unicode="&#x174;" horiz-adv-x="965" 
d="M222 -4l-200 704h153l118 -461l128 463h126l129 -463l117 461h150l-200 -704h-133l-128 445l-128 -445h-132zM305 749l112 139h130l112 -139h-110l-68 54l-68 -54h-108z" />
    <glyph glyph-name="wcircumflex" unicode="&#x175;" horiz-adv-x="759" 
d="M205 589l109 151h128l109 -151h-105l-69 64l-69 -64h-103zM162 -4l-142 540h143l73 -317l83 319h121l84 -320l74 318h141l-144 -540h-131l-85 318l-87 -318h-130z" />
    <glyph glyph-name="Ycircumflex" unicode="&#x176;" horiz-adv-x="617" 
d="M236 0v276l-228 424h164l138 -275l139 275h160l-228 -422v-278h-145zM131 749l112 139h130l112 -139h-110l-68 54l-68 -54h-108z" />
    <glyph glyph-name="ycircumflex" unicode="&#x177;" horiz-adv-x="527" 
d="M266 181l98 355h144l-176 -543q-27 -81 -63 -114.5t-98 -33.5q-61 0 -115 32l39 106q31 -18 58 -18q33 0 46 34l-182 537h148zM90 589l109 151h128l109 -151h-105l-69 64l-69 -64h-103z" />
    <glyph glyph-name="Ydieresis" unicode="&#x178;" horiz-adv-x="617" 
d="M236 0v276l-228 424h164l138 -275l139 275h160l-228 -422v-278h-145zM340 750v121h134v-121h-134zM142 750v121h134v-121h-134z" />
    <glyph glyph-name="Zacute" unicode="&#x179;" horiz-adv-x="599" 
d="M51 0v111l319 460h-309v129h488v-111l-319 -460h319v-129h-498zM245 749l111 148l122 -55l-125 -93h-108z" />
    <glyph glyph-name="zacute" unicode="&#x17a;" horiz-adv-x="480" 
d="M185 589l104 168l119 -55l-121 -113h-102zM38 0v100l236 320h-228v116h398v-100l-237 -320h237v-116h-406z" />
    <glyph glyph-name="Zdotaccent" unicode="&#x17b;" horiz-adv-x="599" 
d="M236 750v121h138v-121h-138zM51 0v111l319 460h-309v129h488v-111l-319 -460h319v-129h-498z" />
    <glyph glyph-name="zdotaccent" unicode="&#x17c;" horiz-adv-x="480" 
d="M38 0v100l236 320h-228v116h398v-100l-237 -320h237v-116h-406zM175 590v126h136v-126h-136z" />
    <glyph glyph-name="Zcaron" unicode="&#x17d;" horiz-adv-x="599" 
d="M482 888l-112 -139h-130l-112 139h110l68 -54l68 54h108zM51 0v111l319 460h-309v129h488v-111l-319 -460h319v-129h-498z" />
    <glyph glyph-name="zcaron" unicode="&#x17e;" horiz-adv-x="480" 
d="M416 740l-109 -151h-128l-109 151h105l69 -64l69 64h103zM38 0v100l236 320h-228v116h398v-100l-237 -320h237v-116h-406z" />
    <glyph glyph-name="uni018F" unicode="&#x18f;" horiz-adv-x="679" 
d="M69 605q102 107 253 107q137 0 225 -98t88 -258v-11q0 -157 -84.5 -257t-215.5 -100q-142 0 -216 102.5t-74 268.5q0 32 2 56h433q-13 81 -56.5 121.5t-104.5 40.5q-88 0 -168 -75zM335 119q60 0 99 46t48 128h-286q8 -81 44 -127.5t95 -46.5z" />
    <glyph glyph-name="florin" unicode="&#x192;" horiz-adv-x="476" 
d="M90 -5q-37 0 -58 5v118q18 -3 34 -3q27 0 42 13.5t20 44.5l24 176h-60v117h78l11 81q12 78 54 118t121 40q56 0 91 -11v-120q-36 9 -59 9q-60 0 -70 -67l-7 -50h106v-117h-123l-28 -197q-13 -84 -55 -120.5t-121 -36.5z" />
    <glyph glyph-name="Aringacute" unicode="&#x1fa;" horiz-adv-x="675" 
d="M18 0l236 668q-29 29 -29 70q0 45 33 74t80 29t80 -29t33 -74q0 -41 -30 -71l237 -667h-150l-52 152h-241l-51 -152h-146zM259 280h153l-76 228zM276 865l113 129l122 -56l-126 -73h-109zM338 687q24 0 40 15t16 36q0 22 -16 37t-40 15t-40 -15t-16 -37q0 -21 16 -36
t40 -15z" />
    <glyph glyph-name="aringacute" unicode="&#x1fb;" horiz-adv-x="518" 
d="M204 833l106 136l118 -53l-120 -83h-104zM188 -10q-68 0 -113.5 43.5t-45.5 119.5v6q0 85 50.5 128t136.5 43q56 0 112 -22v16q0 46 -26.5 70t-74.5 24q-52 0 -123 -30l-39 111q86 43 183 43q108 0 163 -55t55 -162v-325h-139v58q-52 -68 -139 -68zM235 94q41 -1 68 22
t27 60v45q-36 17 -79 17q-40 0 -62.5 -19.5t-22.5 -55.5v-2q0 -32 18.5 -49t50.5 -18zM259 585q-46 0 -78.5 31.5t-32.5 77.5t32.5 77.5t78.5 31.5t78.5 -31.5t32.5 -77.5t-32.5 -77.5t-78.5 -31.5zM259 635q24 0 41 17t17 42t-17 42.5t-41 17.5t-41 -17.5t-17 -42.5t17 -42
t41 -17z" />
    <glyph glyph-name="AEacute" unicode="&#x1fc;" horiz-adv-x="900" 
d="M467 749l111 148l122 -55l-125 -93h-108zM6 0l320 700h526v-131h-290v-151h253v-131h-253v-156h294v-131h-438v152h-198l-68 -152h-146zM278 280h140v289h-15z" />
    <glyph glyph-name="aeacute" unicode="&#x1fd;" horiz-adv-x="823" 
d="M351 589l104 168l119 -55l-121 -113h-102zM205 -10q-79 0 -127.5 44.5t-48.5 121.5v3q0 85 50.5 128t136.5 43q56 0 112 -22v16q0 46 -26 70t-74 24q-54 0 -124 -32l-39 113q86 43 183 43q110 0 161 -65q61 69 153 69q108 0 166.5 -80t58.5 -205q0 -25 -1 -46h-320
q9 -53 39.5 -80.5t76.5 -27.5q62 0 112 53l73 -86q-77 -86 -191 -86q-116 0 -184 88q-84 -86 -187 -86zM465 309h185q-5 56 -28.5 88t-62.5 32t-63.5 -31.5t-30.5 -88.5zM237 95q61 0 111 56q-12 37 -15 70q-37 17 -81 17q-40 0 -63 -19t-23 -55v-3q0 -31 20 -48.5t51 -17.5
z" />
    <glyph glyph-name="Oslashacute" unicode="&#x1fe;" horiz-adv-x="723" 
d="M558 705h124l-80 -109q76 -97 76 -239v-12q0 -157 -89 -257t-228 -100q-92 0 -166 47l-30 -40h-124l79 109q-75 95 -75 239v12q0 157 89 257t228 100q91 0 165 -47zM362 119q75 0 122 61.5t47 164.5v9q0 68 -21 117l-236 -324q39 -28 88 -28zM192 346q0 -66 20 -117
l236 324q-39 28 -87 28q-76 0 -122.5 -61.5t-46.5 -164.5v-9zM302 755l111 148l122 -55l-125 -93h-108z" />
    <glyph glyph-name="oslashacute" unicode="&#x1ff;" horiz-adv-x="577" 
d="M441 541h113l-69 -91q55 -76 55 -177v-11q0 -119 -71.5 -196.5t-180.5 -77.5q-72 0 -129 34l-23 -28h-114l69 90q-55 72 -55 177v11q0 119 72 196.5t181 77.5q69 0 128 -35zM231 589l104 168l119 -55l-121 -113h-102zM289 108q54 0 85 43.5t31 111.5v7q0 32 -10 65
l-161 -211q23 -16 55 -16zM172 264q0 -35 9 -65l161 211q-26 16 -54 16q-54 0 -85 -43t-31 -112v-7z" />
    <glyph glyph-name="Scommaaccent" unicode="&#x218;" horiz-adv-x="550" 
d="M209 -274l-7 44q37 4 54 20t15 46h-59v107h128v-92q0 -64 -32.5 -93.5t-98.5 -31.5zM278 -9q-149 0 -259 103l86 107q91 -79 174 -79q42 0 66 19t24 50v1q0 28 -24 48t-96 47q-105 40 -153 85.5t-48 129.5v2q0 91 64 148t165 57q131 0 226 -86l-81 -110q-79 65 -149 65
q-37 0 -59 -17t-22 -44v-1q0 -30 25.5 -50t107.5 -54q98 -38 143 -84.5t45 -124.5v-2q0 -96 -65.5 -153t-169.5 -57z" />
    <glyph glyph-name="scommaaccent" unicode="&#x219;" horiz-adv-x="438" 
d="M154 -271l-7 44q37 4 54 20t15 46h-59v107h128v-92q0 -64 -32.5 -93.5t-98.5 -31.5zM219 -10q-112 0 -203 74l62 100q78 -60 143 -60q28 0 42.5 11.5t14.5 29.5v2q0 5 -1.5 9.5t-4.5 9t-6 7.5t-10 7t-11.5 7t-13.5 7t-15 6.5l-18 7.5t-18 8q-69 30 -105 65t-36 97v2
q0 75 52 119.5t132 44.5q95 0 177 -58l-57 -102q-71 46 -122 46q-25 0 -38.5 -11t-13.5 -27v-2q0 -18 20.5 -31.5t64.5 -33.5q4 -1 6.5 -2.5t5.5 -2.5q70 -33 106 -68t36 -93v-2q0 -80 -52.5 -123.5t-136.5 -43.5z" />
    <glyph glyph-name="schwa" unicode="&#x259;" horiz-adv-x="533" 
d="M247 548q108 0 179.5 -75.5t71.5 -198.5v-9q0 -119 -66.5 -197t-167.5 -78q-110 0 -169 79.5t-59 205.5q0 25 1 46h320q-9 52 -39.5 80t-76.5 28q-57 0 -112 -53l-73 86q78 86 191 86zM358 227h-185q5 -56 28.5 -88t62.5 -32t63.5 31.5t30.5 88.5z" />
    <glyph glyph-name="circumflex" unicode="&#x2c6;" horiz-adv-x="500" 
d="M77 589l109 151h128l109 -151h-105l-69 64l-69 -64h-103z" />
    <glyph glyph-name="caron" unicode="&#x2c7;" horiz-adv-x="500" 
d="M423 740l-109 -151h-128l-109 151h105l69 -64l69 64h103z" />
    <glyph glyph-name="breve" unicode="&#x2d8;" horiz-adv-x="500" 
d="M250 585q-70 0 -115.5 38.5t-51.5 108.5h93q15 -56 74 -56t74 56h93q-6 -70 -51.5 -108.5t-115.5 -38.5z" />
    <glyph glyph-name="dotaccent" unicode="&#x2d9;" horiz-adv-x="500" 
d="M182 590v126h136v-126h-136z" />
    <glyph glyph-name="ring" unicode="&#x2da;" horiz-adv-x="500" 
d="M250 585q-46 0 -78.5 31.5t-32.5 77.5t32.5 77.5t78.5 31.5t78.5 -31.5t32.5 -77.5t-32.5 -77.5t-78.5 -31.5zM250 635q24 0 41 17t17 42t-17 42.5t-41 17.5t-41 -17.5t-17 -42.5t17 -42t41 -17z" />
    <glyph glyph-name="ogonek" unicode="&#x2db;" horiz-adv-x="500" 
d="M343 -91v-68q-22 -3 -43 -3q-59 0 -91 22t-32 60q0 40 43 90h95q-33 -36 -33 -65q0 -39 61 -36z" />
    <glyph glyph-name="tilde" unicode="&#x2dc;" horiz-adv-x="500" 
d="M326 588q-31 0 -82 22q-42 16 -54 16q-19 0 -28.5 -10.5t-19.5 -35.5l-76 22q16 66 40 97.5t68 31.5q28 0 82 -21q40 -17 54 -17q18 0 28 10.5t20 35.5l76 -22q-16 -66 -40 -97.5t-68 -31.5z" />
    <glyph glyph-name="hungarumlaut" unicode="&#x2dd;" horiz-adv-x="500" 
d="M225 589l103 168l115 -55l-121 -113h-97zM63 589l102 168l115 -55l-120 -113h-97z" />
    <glyph glyph-name="commaaccent" unicode="&#x326;" horiz-adv-x="500" 
d="M184 -271l-7 44q37 4 54 20t15 46h-59v107h128v-92q0 -64 -32.5 -93.5t-98.5 -31.5z" />
    <glyph glyph-name="uni0384" unicode="&#x384;" horiz-adv-x="500" 
d="M165 589l66 171l118 -54l-93 -117h-91z" />
    <glyph glyph-name="uni0385" unicode="&#x385;" horiz-adv-x="500" 
d="M337 590v123h119v-123h-119zM44 590v123h119v-123h-119zM186 590l40 193l114 -25l-77 -168h-77z" />
    <glyph glyph-name="uni0386" unicode="&#x386;" horiz-adv-x="674" 
d="M17 0l251 704h138l251 -704h-150l-52 152h-241l-51 -152h-146zM258 280h153l-76 228zM24 509l10 191h130l-67 -191h-73z" />
    <glyph glyph-name="uni0387" unicode="&#x387;" horiz-adv-x="277" 
d="M61 382v154h155v-154h-155z" />
    <glyph glyph-name="uni0388" unicode="&#x388;" horiz-adv-x="569" 
d="M-100 509l10 191h130l-67 -191h-73zM70 0v700h451v-131h-307v-151h270v-131h-270v-156h311v-131h-455z" />
    <glyph glyph-name="uni0389" unicode="&#x389;" horiz-adv-x="660" 
d="M70 0v700h145v-281h230v281h145v-700h-145v285h-230v-285h-145zM-100 509l10 191h130l-67 -191h-73z" />
    <glyph glyph-name="uni038A" unicode="&#x38a;" horiz-adv-x="295" 
d="M75 0v700h145v-700h-145zM-96 509l10 191h130l-67 -191h-73z" />
    <glyph glyph-name="uni038C" unicode="&#x38c;" horiz-adv-x="723" 
d="M-71 511l10 191h130l-67 -191h-73zM361 -12q-140 0 -228 99t-88 256v12q0 157 89 257t228 100q140 0 228 -99t88 -256v-12q0 -157 -89 -257t-228 -100zM362 122q74 0 120 61t46 163v7q0 102 -46.5 163.5t-120.5 61.5t-120.5 -61t-46.5 -163v-7q0 -102 47 -163.5
t121 -61.5z" />
    <glyph glyph-name="uni038E" unicode="&#x38e;" horiz-adv-x="617" 
d="M236 0v276l-228 424h164l138 -275l139 275h160l-228 -422v-278h-145zM-141 509l10 191h130l-67 -191h-73z" />
    <glyph glyph-name="uni038F" unicode="&#x38f;" horiz-adv-x="740" 
d="M371 712q143 0 226 -84.5t83 -226.5v-4q0 -149 -123 -270h136v-127h-269v124q50 53 78 112t28 143v2q0 94 -42.5 145.5t-117.5 51.5q-74 0 -116.5 -50.5t-42.5 -142.5v-2q0 -149 105 -259v-124h-268v127h135q-123 121 -123 270v4q0 137 84 224t227 87zM-70 511l10 191
h130l-67 -191h-73z" />
    <glyph glyph-name="uni0390" unicode="&#x390;" horiz-adv-x="288" 
d="M216 590v123h119v-123h-119zM-77 590v123h119v-123h-119zM65 590l40 193l114 -25l-77 -168h-77zM56 146v390h141v-375q0 -48 45 -48q14 0 28 2v-109q-33 -12 -79 -12q-67 0 -101 35.5t-34 116.5z" />
    <glyph glyph-name="uni0391" unicode="&#x391;" horiz-adv-x="674" 
d="M17 0l251 704h138l251 -704h-150l-52 152h-241l-51 -152h-146zM258 280h153l-76 228z" />
    <glyph glyph-name="uni0392" unicode="&#x392;" horiz-adv-x="625" 
d="M70 0v700h260q122 0 183 -61q47 -49 47 -119v-3q0 -102 -95 -153q61 -23 93 -62.5t32 -104.5v-5q0 -93 -68 -142.5t-185 -49.5h-267zM417 493v1q0 38 -25.5 58t-72.5 20h-108v-158h101q49 0 77 20t28 59zM447 211q0 38 -28 59.5t-81 21.5h-127v-164h130q50 0 78 21t28 61
v1z" />
    <glyph glyph-name="uni0393" unicode="&#x393;" horiz-adv-x="525" 
d="M70 0v700h428v-133h-283v-567h-145z" />
    <glyph glyph-name="uni0394" unicode="&#x394;" horiz-adv-x="672" 
d="M48 0l-12 107l224 597h152l225 -597l-12 -107h-577zM194 129h281l-141 396z" />
    <glyph glyph-name="uni0395" unicode="&#x395;" horiz-adv-x="569" 
d="M70 0v700h451v-131h-307v-151h270v-131h-270v-156h311v-131h-455z" />
    <glyph glyph-name="uni0396" unicode="&#x396;" horiz-adv-x="599" 
d="M51 0v111l319 460h-309v129h488v-111l-319 -460h319v-129h-498z" />
    <glyph glyph-name="uni0397" unicode="&#x397;" horiz-adv-x="660" 
d="M70 0v700h145v-281h230v281h145v-700h-145v285h-230v-285h-145z" />
    <glyph glyph-name="uni0398" unicode="&#x398;" horiz-adv-x="723" 
d="M361 -12q-140 0 -228 99t-88 256v12q0 157 89 257t228 100q140 0 228 -99t88 -256v-12q0 -157 -89 -257t-228 -100zM362 120q78 0 123.5 59t45.5 165v11q0 105 -46.5 165t-123.5 60q-78 0 -123.5 -59t-45.5 -165v-11q0 -106 46 -165.5t124 -59.5zM468 416v-127h-213v127
h213z" />
    <glyph glyph-name="uni0399" unicode="&#x399;" horiz-adv-x="295" 
d="M75 0v700h145v-700h-145z" />
    <glyph glyph-name="uni039A" unicode="&#x39a;" horiz-adv-x="633" 
d="M70 0v700h145v-302l229 302h171l-235 -297l245 -403h-170l-175 288l-65 -82v-206h-145z" />
    <glyph glyph-name="uni039B" unicode="&#x39b;" horiz-adv-x="656" 
d="M395 704l244 -704h-157l-156 477l-156 -477h-153l245 704h133z" />
    <glyph glyph-name="uni039C" unicode="&#x39c;" horiz-adv-x="755" 
d="M70 0v700h152l156 -284l154 284h153v-700h-142v447l-165 -289h-3l-164 287v-445h-141z" />
    <glyph glyph-name="uni039D" unicode="&#x39d;" horiz-adv-x="683" 
d="M70 0v700h133l268 -408v408h142v-700h-124l-277 423v-423h-142z" />
    <glyph glyph-name="uni039E" unicode="&#x39e;" horiz-adv-x="561" 
d="M512 568h-463v132h463v-132zM491 286h-421v132h421v-132zM517 0h-473v132h473v-132z" />
    <glyph glyph-name="uni039F" unicode="&#x39f;" horiz-adv-x="723" 
d="M361 -12q-140 0 -228 99t-88 256v12q0 157 89 257t228 100q140 0 228 -99t88 -256v-12q0 -157 -89 -257t-228 -100zM362 122q74 0 120 61t46 163v7q0 102 -46.5 163.5t-120.5 61.5t-120.5 -61t-46.5 -163v-7q0 -102 47 -163.5t121 -61.5z" />
    <glyph glyph-name="uni03A0" unicode="&#x3a0;" horiz-adv-x="656" 
d="M70 0v700h516v-700h-144v567h-227v-567h-145z" />
    <glyph glyph-name="uni03A1" unicode="&#x3a1;" horiz-adv-x="584" 
d="M70 0v700h233q118 0 187 -64.5t69 -175.5v-2q0 -116 -73 -179.5t-189 -65.5h-82v-213h-145zM215 343h81q55 0 86 31t31 81v1q0 55 -30.5 84t-88.5 29h-79v-226z" />
    <glyph glyph-name="uni03A3" unicode="&#x3a3;" horiz-adv-x="589" 
d="M430 350l-185 -221h300v-129h-492v109l200 241l-198 241v109h486v-129h-295z" />
    <glyph glyph-name="uni03A4" unicode="&#x3a4;" horiz-adv-x="552" 
d="M204 0v566h-176v134h496v-134h-176v-566h-144z" />
    <glyph glyph-name="uni03A5" unicode="&#x3a5;" horiz-adv-x="617" 
d="M236 0v276l-228 424h164l138 -275l139 275h160l-228 -422v-278h-145z" />
    <glyph glyph-name="uni03A6" unicode="&#x3a6;" horiz-adv-x="860" 
d="M358 -8v70q-147 7 -232.5 85t-85.5 204v1q0 126 85.5 204t232.5 85v67h144v-67q147 -6 233 -84t86 -204v-1q0 -126 -86 -204.5t-233 -85.5v-70h-144zM672 353q0 72 -45 115.5t-128 47.5v-329q84 3 128.5 47t44.5 117v2zM188 351q0 -72 45 -116t128 -48v329
q-84 -4 -128.5 -47.5t-44.5 -115.5v-2z" />
    <glyph glyph-name="uni03A7" unicode="&#x3a7;" horiz-adv-x="631" 
d="M438 700h161l-200 -342l208 -358h-165l-128 240l-129 -240h-161l207 356l-198 344h165l119 -227z" />
    <glyph glyph-name="uni03A8" unicode="&#x3a8;" horiz-adv-x="773" 
d="M718 700v-277q0 -266 -260 -278v-145h-143v145q-124 4 -192 71.5t-68 203.5v280h143v-280q0 -74 29 -107t90 -35v422h139v-422q61 2 90 34t29 104v284h143z" />
    <glyph glyph-name="uni03A9" unicode="&#x3a9;" horiz-adv-x="740" 
d="M371 712q143 0 226 -84.5t83 -226.5v-4q0 -149 -123 -270h136v-127h-269v124q50 53 78 112t28 143v2q0 94 -42.5 145.5t-117.5 51.5q-74 0 -116.5 -50.5t-42.5 -142.5v-2q0 -149 105 -259v-124h-268v127h135q-123 121 -123 270v4q0 137 84 224t227 87z" />
    <glyph glyph-name="uni03AA" unicode="&#x3aa;" horiz-adv-x="295" 
d="M75 0v700h145v-700h-145zM180 750v121h134v-121h-134zM-18 750v121h134v-121h-134z" />
    <glyph glyph-name="uni03AB" unicode="&#x3ab;" horiz-adv-x="617" 
d="M236 0v276l-228 424h164l138 -275l139 275h160l-228 -422v-278h-145zM340 749v121h134v-121h-134zM142 749v121h134v-121h-134z" />
    <glyph glyph-name="uni03AC" unicode="&#x3ac;" horiz-adv-x="620" 
d="M602 115v-110q-37 -11 -79 -11q-97 0 -122 76q-62 -80 -153 -80q-90 0 -150 69.5t-60 200.5v16q0 130 59 200t145 70q84 0 145 -79v69h142v-376q0 -48 44 -48q17 0 29 3zM284 114q45 0 75 41t30 108v10q0 67 -30 108t-75 41t-74.5 -41t-29.5 -108v-10q0 -67 29.5 -108
t74.5 -41zM272 590l66 171l118 -54l-93 -117h-91z" />
    <glyph glyph-name="uni03AD" unicode="&#x3ad;" horiz-adv-x="487" 
d="M207 590l66 171l118 -54l-93 -117h-91zM348 215h-89q-85 0 -85 -53v-1q0 -55 85 -55q72 0 149 51l55 -99q-94 -68 -215 -68q-101 0 -156 41t-55 114v1q0 87 91 124q-80 37 -80 118v1q0 69 55.5 112t154.5 43q115 0 200 -64l-63 -100q-62 48 -130 48q-39 0 -59.5 -15.5
t-20.5 -38.5v-1q0 -51 74 -51h89v-107z" />
    <glyph glyph-name="uni03AE" unicode="&#x3ae;" horiz-adv-x="548" 
d="M232 590l66 171l118 -54l-93 -117h-91zM199 0h-142v536h142v-72q59 82 138 82q74 0 116 -48.5t42 -132.5v-516h-142v474q0 95 -76 95q-36 0 -57 -24.5t-21 -70.5v-323z" />
    <glyph glyph-name="uni03AF" unicode="&#x3af;" horiz-adv-x="288" 
d="M86 589l66 171l118 -54l-93 -117h-91zM56 146v390h141v-375q0 -48 45 -48q14 0 28 2v-109q-33 -12 -79 -12q-67 0 -101 35.5t-34 116.5z" />
    <glyph glyph-name="uni03B0" unicode="&#x3b0;" horiz-adv-x="550" 
d="M361 589v123h119v-123h-119zM68 589v123h119v-123h-119zM210 589l40 193l114 -25l-77 -168h-77zM274 -12q-105 0 -163.5 56.5t-58.5 165.5v326h142v-324q0 -100 81 -100t81 98v326h142v-323q0 -110 -59.5 -167.5t-164.5 -57.5z" />
    <glyph glyph-name="uni03B1" unicode="&#x3b1;" horiz-adv-x="620" 
d="M602 115v-110q-37 -11 -79 -11q-97 0 -122 76q-62 -80 -153 -80q-90 0 -150 69.5t-60 200.5v16q0 130 59 200t145 70q84 0 145 -79v69h142v-376q0 -48 44 -48q17 0 29 3zM284 114q45 0 75 41t30 108v10q0 67 -30 108t-75 41t-74.5 -41t-29.5 -108v-10q0 -67 29.5 -108
t74.5 -41z" />
    <glyph glyph-name="uni03B2" unicode="&#x3b2;" horiz-adv-x="578" 
d="M358 -10q-106 0 -159 79v-220h-142v633q0 115 63.5 181t177.5 66q107 0 165 -54t58 -141v-2q0 -133 -117 -173q69 -19 103.5 -59t34.5 -112v-2q0 -89 -49.5 -142.5t-134.5 -53.5zM316 113q40 0 63 24t23 63v1q0 54 -34.5 78.5t-110.5 24.5h-60v-33q0 -158 119 -158z
M197 486v-78h62q61 0 92 28.5t31 81.5q0 41 -22 67t-62 26q-47 0 -74 -33.5t-27 -91.5z" />
    <glyph glyph-name="uni03B3" unicode="&#x3b3;" horiz-adv-x="527" 
d="M335 -151h-142v170l-176 517h148l100 -345l100 345h145l-175 -514v-173z" />
    <glyph glyph-name="uni03B4" unicode="&#x3b4;" horiz-adv-x="566" 
d="M105 616v106h371v-117l-193 4l100 -86q75 -65 109.5 -127t34.5 -146q0 -117 -67.5 -189.5t-180.5 -72.5q-108 0 -175.5 71t-67.5 183v1q0 89 39 150.5t129 125.5zM389 242q0 52 -21 94t-79 100q-115 -90 -115 -192v-1q0 -58 29 -96t78 -38q48 0 78 38.5t30 93.5v1z" />
    <glyph glyph-name="uni03B5" unicode="&#x3b5;" horiz-adv-x="487" 
d="M348 215h-89q-85 0 -85 -53v-1q0 -55 85 -55q72 0 149 51l55 -99q-94 -68 -215 -68q-101 0 -156 41t-55 114v1q0 87 91 124q-80 37 -80 118v1q0 69 55.5 112t154.5 43q115 0 200 -64l-63 -100q-62 48 -130 48q-39 0 -59.5 -15.5t-20.5 -38.5v-1q0 -51 74 -51h89v-107z
" />
    <glyph glyph-name="uni03B6" unicode="&#x3b6;" horiz-adv-x="486" 
d="M450 92v-211h-129v107l-90 17q-100 19 -148.5 63.5t-48.5 122.5q0 50 18 91.5t64 102.5l166 220h-211v117h381v-107l-232 -306q-46 -61 -46 -101v-1q0 -36 25 -55t83 -30z" />
    <glyph glyph-name="uni03B7" unicode="&#x3b7;" horiz-adv-x="548" 
d="M199 0h-142v536h142v-72q59 82 138 82q74 0 116 -48.5t42 -132.5v-516h-142v474q0 95 -76 95q-36 0 -57 -24.5t-21 -70.5v-323z" />
    <glyph glyph-name="uni03B8" unicode="&#x3b8;" horiz-adv-x="587" 
d="M292 -12q-112 0 -180 93.5t-68 261.5v30q0 168 69 261.5t181 93.5q113 0 180.5 -93.5t67.5 -261.5v-30q0 -168 -68.5 -261.5t-181.5 -93.5zM294 108q51 0 79.5 50t31.5 144h-224q8 -194 113 -194zM293 608q-104 0 -112 -191h224q-4 93 -33 142t-79 49z" />
    <glyph glyph-name="uni03B9" unicode="&#x3b9;" horiz-adv-x="288" 
d="M56 146v390h141v-375q0 -48 45 -48q14 0 28 2v-109q-33 -12 -79 -12q-67 0 -101 35.5t-34 116.5z" />
    <glyph glyph-name="uni03BA" unicode="&#x3ba;" horiz-adv-x="522" 
d="M199 536v-208l148 208h167l-169 -227l169 -309h-162l-105 198l-48 -65v-133h-142v536h142z" />
    <glyph glyph-name="uni03BB" unicode="&#x3bb;" horiz-adv-x="539" 
d="M164 0h-145l186 530l-10 28q-17 48 -63 48q-26 0 -53 -9v118q42 14 85 14q64 0 100 -29t59 -100l201 -600h-147l-106 358z" />
    <glyph glyph-name="uni03BC" unicode="&#x3bc;" horiz-adv-x="590" 
d="M572 115v-110q-37 -11 -78 -11q-81 0 -110 60q-35 -60 -98 -60q-33 0 -62.5 17.5t-42.5 50.5h-2q17 -72 17 -123v-90h-139v687h142v-325q0 -95 78 -95q38 0 59 24.5t21 70.5v325h142v-376q0 -48 45 -48q16 0 28 3z" />
    <glyph glyph-name="uni03BD" unicode="&#x3bd;" horiz-adv-x="527" 
d="M198 -4l-181 540h148l100 -356l101 356h144l-180 -540h-132z" />
    <glyph glyph-name="uni03BE" unicode="&#x3be;" horiz-adv-x="485" 
d="M480 662l-69 -108q-57 48 -115 48q-42 0 -67.5 -24.5t-25.5 -64.5q0 -43 31.5 -68t88.5 -25h66v-118h-88q-61 0 -93 -24.5t-32 -65.5q0 -42 29.5 -64.5t106.5 -34.5l133 -22v-210h-129v107l-83 15q-98 18 -147.5 63.5t-49.5 128.5v1q0 127 129 171q-101 50 -101 159v1
q0 86 61.5 143t167.5 57t187 -65z" />
    <glyph glyph-name="uni03BF" unicode="&#x3bf;" horiz-adv-x="577" 
d="M288 -12q-109 0 -180.5 77t-71.5 196v11q0 119 72 196.5t181 77.5t180 -76.5t71 -196.5v-11q0 -119 -71.5 -196.5t-180.5 -77.5zM289 111q51 0 81 42.5t30 109.5v7q0 66 -31 109.5t-81 43.5q-52 0 -82 -42.5t-30 -109.5v-7q0 -66 31.5 -109.5t81.5 -43.5z" />
    <glyph glyph-name="uni03C0" unicode="&#x3c0;" horiz-adv-x="627" 
d="M377 146v263h-141v-409h-142v409h-73v127h571v-127h-74v-248q0 -48 45 -48q14 0 28 2v-109q-33 -12 -79 -12q-67 0 -101 35.5t-34 116.5z" />
    <glyph glyph-name="uni03C1" unicode="&#x3c1;" horiz-adv-x="579" 
d="M50 -151v419q0 129 65.5 203.5t179.5 74.5q112 0 179 -75t67 -197v-12q0 -129 -59 -200.5t-142 -71.5q-90 0 -148 79v-220h-142zM295 114q45 0 74.5 41t29.5 108v11q0 68 -30 109t-75 41t-74.5 -41t-29.5 -109v-11q0 -67 30 -108t75 -41z" />
    <glyph glyph-name="uni03C2" unicode="&#x3c2;" horiz-adv-x="486" 
d="M310 -119v109l-48 12q-226 56 -226 271v4q0 116 68.5 192.5t178.5 76.5q107 0 177 -73l-78 -106q-48 52 -98 52q-48 0 -77.5 -40.5t-29.5 -100.5q0 -71 38.5 -110.5t130.5 -56.5l93 -17v-213h-129z" />
    <glyph glyph-name="uni03C3" unicode="&#x3c3;" horiz-adv-x="602" 
d="M286 -12q-109 0 -179.5 75t-70.5 192v10q0 120 72.5 195.5t193.5 75.5h279v-123l-119 3q73 -70 73 -170q0 -113 -70 -185.5t-179 -72.5zM287 111q51 0 80 40t29 105v6q0 68 -29 109.5t-81 41.5t-81 -41.5t-29 -107.5v-6q0 -65 30 -106t81 -41z" />
    <glyph glyph-name="uni03C4" unicode="&#x3c4;" horiz-adv-x="492" 
d="M462 409h-152v-236q0 -33 14.5 -47t44.5 -14q26 0 55 7v-111q-45 -15 -96 -15q-82 0 -120.5 37t-38.5 126v253h-144v127h437v-127z" />
    <glyph glyph-name="uni03C5" unicode="&#x3c5;" horiz-adv-x="550" 
d="M274 -12q-105 0 -163.5 56.5t-58.5 165.5v326h142v-324q0 -100 81 -100t81 98v326h142v-323q0 -110 -59.5 -167.5t-164.5 -57.5z" />
    <glyph glyph-name="uni03C6" unicode="&#x3c6;" horiz-adv-x="758" 
d="M449 -151h-140v149q-126 7 -199.5 80.5t-73.5 187.5v3q0 113 73.5 186.5t199.5 82.5v184h140v-184q126 -7 199.5 -80.5t73.5 -187.5v-3q0 -113 -73.5 -187t-199.5 -82v-149zM584 268q0 66 -36.5 106t-101.5 44v-301q67 4 102.5 44t35.5 106v1zM174 268q0 -66 36.5 -106.5
t101.5 -44.5v301q-66 -4 -102 -43.5t-36 -105.5v-1z" />
    <glyph glyph-name="uni03C7" unicode="&#x3c7;" horiz-adv-x="536" 
d="M167 536l102 -212l103 212h150l-174 -327l191 -360h-154l-118 245l-120 -245h-150l190 358l-173 329h153z" />
    <glyph glyph-name="uni03C8" unicode="&#x3c8;" horiz-adv-x="748" 
d="M444 -151h-140v149q-120 2 -186 63t-66 181v294h141v-291q0 -59 29 -90t83 -33v600h138v-600q53 2 83 33t30 89v292h140v-291q0 -121 -66.5 -183t-185.5 -64v-149z" />
    <glyph glyph-name="uni03C9" unicode="&#x3c9;" horiz-adv-x="782" 
d="M323 430h136v-178q0 -135 73 -135q70 0 70 128q0 136 -103 291h149q93 -135 93 -294v-1q0 -117 -48.5 -185t-140.5 -68q-116 0 -162 123q-46 -123 -161 -123q-92 0 -140 68t-48 185v1q0 159 93 294h147q-101 -152 -101 -291q0 -128 71 -128q72 0 72 135v178z" />
    <glyph glyph-name="uni03CA" unicode="&#x3ca;" horiz-adv-x="288" 
d="M156 590v126h134v-126h-134zM-32 590v126h134v-126h-134zM56 146v390h141v-375q0 -48 45 -48q14 0 28 2v-109q-33 -12 -79 -12q-67 0 -101 35.5t-34 116.5z" />
    <glyph glyph-name="uni03CB" unicode="&#x3cb;" horiz-adv-x="550" 
d="M301 589v126h134v-126h-134zM113 589v126h134v-126h-134zM274 -12q-105 0 -163.5 56.5t-58.5 165.5v326h142v-324q0 -100 81 -100t81 98v326h142v-323q0 -110 -59.5 -167.5t-164.5 -57.5z" />
    <glyph glyph-name="uni03CC" unicode="&#x3cc;" horiz-adv-x="577" 
d="M244 590l66 171l118 -54l-93 -117h-91zM288 -12q-109 0 -180.5 77t-71.5 196v11q0 119 72 196.5t181 77.5t180 -76.5t71 -196.5v-11q0 -119 -71.5 -196.5t-180.5 -77.5zM289 111q51 0 81 42.5t30 109.5v7q0 66 -31 109.5t-81 43.5q-52 0 -82 -42.5t-30 -109.5v-7
q0 -66 31.5 -109.5t81.5 -43.5z" />
    <glyph glyph-name="uni03CD" unicode="&#x3cd;" horiz-adv-x="550" 
d="M231 588l66 171l118 -54l-93 -117h-91zM274 -12q-105 0 -163.5 56.5t-58.5 165.5v326h142v-324q0 -100 81 -100t81 98v326h142v-323q0 -110 -59.5 -167.5t-164.5 -57.5z" />
    <glyph glyph-name="uni03CE" unicode="&#x3ce;" horiz-adv-x="782" 
d="M323 430h136v-178q0 -135 73 -135q70 0 70 128q0 136 -103 291h149q93 -135 93 -294v-1q0 -117 -48.5 -185t-140.5 -68q-116 0 -162 123q-46 -123 -161 -123q-92 0 -140 68t-48 185v1q0 159 93 294h147q-101 -152 -101 -291q0 -128 71 -128q72 0 72 135v178zM347 588
l66 171l118 -54l-93 -117h-91z" />
    <glyph glyph-name="uni0400" unicode="&#x400;" horiz-adv-x="569" 
d="M356 749h-108l-125 93l122 55zM70 0v700h451v-131h-307v-151h270v-131h-270v-156h311v-131h-455z" />
    <glyph glyph-name="uni0401" unicode="&#x401;" horiz-adv-x="569" 
d="M329 750v121h134v-121h-134zM131 750v121h134v-121h-134zM70 0v700h451v-131h-307v-151h270v-131h-270v-156h311v-131h-455z" />
    <glyph glyph-name="uni0402" unicode="&#x402;" horiz-adv-x="716" 
d="M520 700v-134h-180v-130q59 9 113 9q112 0 172.5 -56t60.5 -168v-1q0 -107 -60 -164.5t-171 -57.5h-18v127h3q101 0 101 89v1q0 52 -25 75.5t-82 23.5q-47 0 -94 -8v-306h-144v566h-167v134h491z" />
    <glyph glyph-name="uni0403" unicode="&#x403;" horiz-adv-x="525" 
d="M224 749l111 148l122 -55l-125 -93h-108zM70 0v700h428v-133h-283v-567h-145z" />
    <glyph glyph-name="uni0404" unicode="&#x404;" horiz-adv-x="619" 
d="M353 -10q-138 0 -223 97.5t-85 257.5v9q0 158 87.5 257t226.5 99q134 0 228 -89l-88 -110q-67 65 -140 65q-62 0 -106.5 -43t-56.5 -118h256v-124h-257q10 -80 54.5 -123.5t109.5 -43.5q44 0 77.5 17t68.5 52l85 -101q-100 -102 -237 -102z" />
    <glyph glyph-name="uni0405" unicode="&#x405;" horiz-adv-x="550" 
d="M278 -9q-149 0 -259 103l86 107q91 -79 174 -79q42 0 66 19t24 50v1q0 28 -24 48t-96 47q-105 40 -153 85.5t-48 129.5v2q0 91 64 148t165 57q131 0 226 -86l-81 -110q-79 65 -149 65q-37 0 -59 -17t-22 -44v-1q0 -30 25.5 -50t107.5 -54q98 -38 143 -84.5t45 -124.5v-2
q0 -96 -65.5 -153t-169.5 -57z" />
    <glyph glyph-name="uni0406" unicode="&#x406;" horiz-adv-x="295" 
d="M75 0v700h145v-700h-145z" />
    <glyph glyph-name="uni0407" unicode="&#x407;" horiz-adv-x="295" 
d="M75 0v700h145v-700h-145zM180 750v121h134v-121h-134zM-18 750v121h134v-121h-134z" />
    <glyph glyph-name="uni0408" unicode="&#x408;" horiz-adv-x="484" 
d="M201 -9q-119 0 -192 89l88 102q48 -55 99 -55q80 0 80 103v470h146v-477q0 -114 -60 -174q-58 -58 -161 -58z" />
    <glyph glyph-name="uni0409" unicode="&#x409;" horiz-adv-x="920" 
d="M411 0v574h-5l-254 -574h-146l320 700h229v-223h76q121 0 190.5 -60t69.5 -175v-1q0 -113 -70.5 -177t-196.5 -64h-213zM555 131h75q55 0 85 29t30 80t-28.5 79t-85.5 28h-76v-216z" />
    <glyph glyph-name="uni040A" unicode="&#x40a;" horiz-adv-x="945" 
d="M437 0v285h-222v-285h-145v700h145v-281h222v281h143v-223h77q121 0 190 -60t69 -175v-1q0 -114 -70.5 -177.5t-196.5 -63.5h-212zM580 131h76q55 0 85 29t30 80q0 50 -29 78.5t-85 28.5h-77v-216z" />
    <glyph glyph-name="uni040B" unicode="&#x40b;" horiz-adv-x="739" 
d="M520 700v-134h-180v-131q63 10 114 10q232 0 232 -224v-221h-145v207q0 55 -25.5 80.5t-79.5 25.5q-51 0 -96 -9v-304h-144v566h-167v134h491z" />
    <glyph glyph-name="uni040C" unicode="&#x40c;" horiz-adv-x="640" 
d="M70 0v700h145l-2 -284h43l196 284h172l-250 -341l264 -359h-174l-208 288h-43l2 -288h-145zM270 748l111 148l122 -55l-125 -93h-108z" />
    <glyph glyph-name="uni040D" unicode="&#x40d;" horiz-adv-x="683" 
d="M400 748h-108l-125 93l122 55zM613 0h-143v442l-270 -442h-130v700h143v-427l261 427h139v-700z" />
    <glyph glyph-name="uni040E" unicode="&#x40e;" horiz-adv-x="624" 
d="M288 0h-156l113 236l-230 464h160l149 -314l136 314h157zM318 745q-72 0 -117.5 36t-50.5 102h94q16 -47 74 -47t74 47h94q-5 -66 -50.5 -102t-117.5 -36z" />
    <glyph glyph-name="uni040F" unicode="&#x40f;" horiz-adv-x="656" 
d="M261 -133v133h-191v700h145v-567h227v567h144v-700h-191v-133h-134z" />
    <glyph glyph-name="uni0410" unicode="&#x410;" horiz-adv-x="674" 
d="M17 0l251 704h138l251 -704h-150l-52 152h-241l-51 -152h-146zM258 280h153l-76 228z" />
    <glyph glyph-name="uni0411" unicode="&#x411;" horiz-adv-x="613" 
d="M70 0v700h453v-130h-312v-139h121q115 0 180 -53.5t65 -156.5v-1q0 -103 -66.5 -161.5t-187.5 -58.5h-253zM211 129h118q48 0 75.5 24t27.5 64q0 41 -26 64t-76 23h-119v-175z" />
    <glyph glyph-name="uni0412" unicode="&#x412;" horiz-adv-x="625" 
d="M70 0v700h260q122 0 183 -61q47 -49 47 -119v-3q0 -102 -95 -153q61 -23 93 -62.5t32 -104.5v-5q0 -93 -68 -142.5t-185 -49.5h-267zM417 493v1q0 38 -25.5 58t-72.5 20h-108v-158h101q49 0 77 20t28 59zM447 211q0 38 -28 59.5t-81 21.5h-127v-164h130q50 0 78 21t28 61
v1z" />
    <glyph glyph-name="uni0413" unicode="&#x413;" horiz-adv-x="525" 
d="M70 0v700h428v-133h-283v-567h-145z" />
    <glyph glyph-name="uni0414" unicode="&#x414;" horiz-adv-x="731" 
d="M24 133h62l202 571h155l200 -571h64v-266h-135v133h-414v-133h-134v266zM364 520l-133 -393h263z" />
    <glyph glyph-name="uni0415" unicode="&#x415;" horiz-adv-x="569" 
d="M70 0v700h451v-131h-307v-151h270v-131h-270v-156h311v-131h-455z" />
    <glyph glyph-name="uni0416" unicode="&#x416;" horiz-adv-x="952" 
d="M24 700h167l185 -286h30l-1 286h143l-3 -286h31l187 286h165l-232 -343l250 -357h-167l-200 290h-34l3 -290h-143l1 290h-36l-200 -290h-164l251 357z" />
    <glyph glyph-name="uni0417" unicode="&#x417;" horiz-adv-x="571" 
d="M115 511l-77 104q108 95 246 95q110 0 172 -50t62 -136q0 -116 -113 -164q128 -38 128 -163q0 -93 -70.5 -150t-191.5 -57q-139 0 -244 90l78 108q86 -66 165 -66q53 0 85 22.5t32 64.5q0 39 -31.5 60.5t-90.5 21.5h-101v123h102q52 0 80 23.5t28 62.5v1q0 36 -26 57
t-73 21q-78 0 -160 -68z" />
    <glyph glyph-name="uni0418" unicode="&#x418;" horiz-adv-x="683" 
d="M613 0h-143v442l-270 -442h-130v700h143v-427l261 427h139v-700z" />
    <glyph glyph-name="uni0419" unicode="&#x419;" horiz-adv-x="683" 
d="M340 745q-72 0 -117.5 36t-50.5 102h94q16 -47 74 -47t74 47h94q-5 -66 -50.5 -102t-117.5 -36zM613 0h-143v442l-270 -442h-130v700h143v-427l261 427h139v-700z" />
    <glyph glyph-name="uni041A" unicode="&#x41a;" horiz-adv-x="640" 
d="M70 0v700h145l-2 -284h43l196 284h172l-250 -341l264 -359h-174l-208 288h-43l2 -288h-145z" />
    <glyph glyph-name="uni041B" unicode="&#x41b;" horiz-adv-x="656" 
d="M395 704l244 -704h-157l-156 477l-156 -477h-153l245 704h133z" />
    <glyph glyph-name="uni041C" unicode="&#x41c;" horiz-adv-x="755" 
d="M70 0v700h152l156 -284l154 284h153v-700h-142v447l-165 -289h-3l-164 287v-445h-141z" />
    <glyph glyph-name="uni041D" unicode="&#x41d;" horiz-adv-x="660" 
d="M70 0v700h145v-281h230v281h145v-700h-145v285h-230v-285h-145z" />
    <glyph glyph-name="uni041E" unicode="&#x41e;" horiz-adv-x="723" 
d="M361 -12q-140 0 -228 99t-88 256v12q0 157 89 257t228 100q140 0 228 -99t88 -256v-12q0 -157 -89 -257t-228 -100zM362 122q74 0 120 61t46 163v7q0 102 -46.5 163.5t-120.5 61.5t-120.5 -61t-46.5 -163v-7q0 -102 47 -163.5t121 -61.5z" />
    <glyph glyph-name="uni041F" unicode="&#x41f;" horiz-adv-x="656" 
d="M70 0v700h516v-700h-144v567h-227v-567h-145z" />
    <glyph glyph-name="uni0420" unicode="&#x420;" horiz-adv-x="584" 
d="M70 0v700h233q118 0 187 -64.5t69 -175.5v-2q0 -116 -73 -179.5t-189 -65.5h-82v-213h-145zM215 343h81q55 0 86 31t31 81v1q0 55 -30.5 84t-88.5 29h-79v-226z" />
    <glyph glyph-name="uni0421" unicode="&#x421;" horiz-adv-x="619" 
d="M353 -10q-138 0 -223 97.5t-85 257.5v9q0 158 89 257t228 99q134 0 225 -93l-87 -112q-68 70 -143 70q-71 0 -117 -61t-46 -162v-3q0 -102 47 -163t118 -61t144 73l87 -103q-51 -52 -106 -78.5t-131 -26.5z" />
    <glyph glyph-name="uni0422" unicode="&#x422;" horiz-adv-x="552" 
d="M204 0v566h-176v134h496v-134h-176v-566h-144z" />
    <glyph glyph-name="uni0423" unicode="&#x423;" horiz-adv-x="624" 
d="M288 0h-156l113 236l-230 464h160l149 -314l136 314h157z" />
    <glyph glyph-name="uni0424" unicode="&#x424;" horiz-adv-x="860" 
d="M358 -8v70q-147 7 -232.5 85t-85.5 204v1q0 126 85.5 204t232.5 85v67h144v-67q147 -6 233 -84t86 -204v-1q0 -126 -86 -204.5t-233 -85.5v-70h-144zM672 353q0 72 -45 115.5t-128 47.5v-329q84 3 128.5 47t44.5 117v2zM188 351q0 -72 45 -116t128 -48v329
q-84 -4 -128.5 -47.5t-44.5 -115.5v-2z" />
    <glyph glyph-name="uni0425" unicode="&#x425;" horiz-adv-x="631" 
d="M438 700h161l-200 -342l208 -358h-165l-128 240l-129 -240h-161l207 356l-198 344h165l119 -227z" />
    <glyph glyph-name="uni0426" unicode="&#x426;" horiz-adv-x="690" 
d="M533 -133v133h-463v700h145v-567h227v567h145v-567h80v-266h-134z" />
    <glyph glyph-name="uni0427" unicode="&#x427;" horiz-adv-x="623" 
d="M408 0v234q-67 -12 -121 -12q-111 0 -171.5 55.5t-60.5 168.5v254h144v-239q0 -56 25.5 -80.5t80.5 -24.5q57 0 103 12v332h145v-700h-145z" />
    <glyph glyph-name="uni0428" unicode="&#x428;" horiz-adv-x="981" 
d="M70 0v700h145v-567h203v567h145v-567h203v567h145v-700h-841z" />
    <glyph glyph-name="uni0429" unicode="&#x429;" horiz-adv-x="1013" 
d="M70 0v700h145v-567h203v567h145v-567h203v567h145v-567h79v-266h-134v133h-786z" />
    <glyph glyph-name="uni042A" unicode="&#x42a;" horiz-adv-x="717" 
d="M199 0v570h-171v130h316v-223h83q121 0 191 -60t70 -174v-2q0 -114 -70.5 -177.5t-198.5 -63.5h-220zM344 131h82q55 0 85.5 29t30.5 79v1q0 51 -29 79t-86 28h-83v-216z" />
    <glyph glyph-name="uni042B" unicode="&#x42b;" horiz-adv-x="857" 
d="M70 0v700h145v-223h83q122 0 191.5 -60t69.5 -174v-2q0 -114 -70.5 -177.5t-198.5 -63.5h-220zM642 0v700h145v-700h-145zM215 131h82q55 0 85.5 29t30.5 79v1q0 51 -29 79t-86 28h-83v-216z" />
    <glyph glyph-name="uni042C" unicode="&#x42c;" horiz-adv-x="588" 
d="M70 0v700h145v-223h83q122 0 191.5 -60t69.5 -174v-2q0 -114 -70.5 -177.5t-198.5 -63.5h-220zM215 131h82q55 0 85.5 29t30.5 79v1q0 51 -29 79t-86 28h-83v-216z" />
    <glyph glyph-name="uni042D" unicode="&#x42d;" horiz-adv-x="619" 
d="M166 291v124h257q-12 77 -54 119t-102 42q-79 0 -154 -65l-79 106q103 93 241 93q134 0 216.5 -96t82.5 -259v-9q0 -160 -86 -258t-223 -98q-138 0 -236 93l84 107q74 -66 149 -66q62 0 106.5 44t55.5 123h-258z" />
    <glyph glyph-name="uni042E" unicode="&#x42e;" horiz-adv-x="963" 
d="M70 0v700h145v-281h96q17 131 100 212t202 81q134 0 219.5 -100t85.5 -255v-12q0 -155 -86.5 -256t-219.5 -101q-121 0 -203 82t-99 215h-95v-285h-145zM613 122q71 0 113 60t42 164v7q0 103 -43 164t-113 61q-71 0 -113.5 -60t-42.5 -164v-7q0 -103 43 -164t114 -61z
" />
    <glyph glyph-name="uni042F" unicode="&#x42f;" horiz-adv-x="627" 
d="M557 700v-700h-144v230h-84l-137 -230h-167l155 254q-62 25 -98.5 77.5t-36.5 127.5v2q0 116 72 177.5t202 61.5h238zM413 569h-104q-56 0 -87 -27.5t-31 -79.5q0 -48 29.5 -76t85.5 -28h107v211z" />
    <glyph glyph-name="uni0430" unicode="&#x430;" horiz-adv-x="518" 
d="M188 -10q-68 0 -113.5 43.5t-45.5 119.5v6q0 85 50.5 128t136.5 43q56 0 112 -22v16q0 46 -26.5 70t-74.5 24q-52 0 -123 -30l-39 111q86 43 183 43q108 0 163 -55t55 -162v-325h-139v58q-52 -68 -139 -68zM235 94q41 -1 68 22t27 60v45q-36 17 -79 17q-40 0 -62.5 -19.5
t-22.5 -55.5v-2q0 -32 18.5 -49t50.5 -18z" />
    <glyph glyph-name="uni0431" unicode="&#x431;" horiz-adv-x="572" 
d="M284 -12q-100 0 -163 63q-81 81 -81 258q0 178 61 273.5t201 119.5l169 29l21 -130l-171 -27q-74 -12 -110 -46t-47 -101q63 65 162 65t154 -62t55 -174v-4q0 -118 -69.5 -191t-181.5 -73zM287 108q49 0 78.5 39t29.5 102v2q0 61 -27.5 97.5t-76.5 36.5q-52 0 -81 -38.5
t-29 -100.5v-1q0 -61 28.5 -99t77.5 -38z" />
    <glyph glyph-name="uni0432" unicode="&#x432;" horiz-adv-x="522" 
d="M57 0v536h226q88 0 138 -36t50 -103q0 -80 -76 -118q94 -35 94 -125v-1q0 -75 -56 -114t-149 -39h-227zM195 221v-117h83q74 0 74 59v1q0 57 -77 57h-80zM195 320h69q70 0 70 57q0 55 -69 55h-70v-112z" />
    <glyph glyph-name="uni0433" unicode="&#x433;" horiz-adv-x="438" 
d="M57 0v536h355v-129h-213v-407h-142z" />
    <glyph glyph-name="uni0434" unicode="&#x434;" horiz-adv-x="600" 
d="M376 540l151 -412h55v-247h-126v120h-312v-120h-126v247h55l151 412h152zM299 382l-87 -260h173z" />
    <glyph glyph-name="uni0435" unicode="&#x435;" horiz-adv-x="533" 
d="M286 -12q-108 0 -179.5 75.5t-71.5 198.5v9q0 119 66.5 197t167.5 78q110 0 169 -79.5t59 -205.5q0 -25 -1 -46h-320q9 -52 39.5 -80t76.5 -28q57 0 112 53l73 -86q-78 -86 -191 -86zM175 309h185q-5 56 -28.5 88t-62.5 32t-63.5 -31.5t-30.5 -88.5z" />
    <glyph glyph-name="uni0436" unicode="&#x436;" horiz-adv-x="794" 
d="M466 536l-3 -205h32l130 205h159l-178 -262l184 -274h-160l-135 210h-32l3 -210h-138l2 210h-32l-134 -210h-160l185 267l-179 269h161l128 -205h31l-2 205h138z" />
    <glyph glyph-name="uni0437" unicode="&#x437;" horiz-adv-x="482" 
d="M24 56l65 99q71 -49 137 -49q41 0 63 15t22 42q0 52 -86 52h-87v107h85q78 0 78 53v1q0 23 -19.5 37.5t-53.5 14.5q-67 0 -133 -51l-65 95q88 74 211 74q90 0 143.5 -41t53.5 -108v-1q0 -85 -86 -123q96 -33 96 -125v-1q0 -69 -58.5 -114t-160.5 -45q-116 0 -205 68z" />
    <glyph glyph-name="uni0438" unicode="&#x438;" horiz-adv-x="562" 
d="M57 0v536h141v-287l173 287h133v-536h-140v295l-179 -295h-128z" />
    <glyph glyph-name="uni0439" unicode="&#x439;" horiz-adv-x="562" 
d="M57 0v536h141v-287l173 287h133v-536h-140v295l-179 -295h-128zM280 584q-70 0 -115.5 38.5t-51.5 108.5h93q15 -56 74 -56t74 56h93q-6 -70 -51.5 -108.5t-115.5 -38.5z" />
    <glyph glyph-name="uni043A" unicode="&#x43a;" horiz-adv-x="532" 
d="M199 536v-203h30l128 203h166l-181 -261l185 -275h-163l-133 208h-32v-208h-142v536h142z" />
    <glyph glyph-name="uni043B" unicode="&#x43b;" horiz-adv-x="551" 
d="M345 540l191 -540h-150l-111 353l-113 -353h-146l190 540h139z" />
    <glyph glyph-name="uni043C" unicode="&#x43c;" horiz-adv-x="637" 
d="M57 0v536h146l115 -206l116 206h145v-536h-137v314l-123 -214h-3l-122 212v-312h-137z" />
    <glyph glyph-name="uni043D" unicode="&#x43d;" horiz-adv-x="562" 
d="M57 0v536h142v-201h164v201h141v-536h-141v205h-164v-205h-142z" />
    <glyph glyph-name="uni043E" unicode="&#x43e;" horiz-adv-x="577" 
d="M288 -12q-109 0 -180.5 77t-71.5 196v11q0 119 72 196.5t181 77.5t180 -76.5t71 -196.5v-11q0 -119 -71.5 -196.5t-180.5 -77.5zM289 111q51 0 81 42.5t30 109.5v7q0 66 -31 109.5t-81 43.5q-52 0 -82 -42.5t-30 -109.5v-7q0 -66 31.5 -109.5t81.5 -43.5z" />
    <glyph glyph-name="uni043F" unicode="&#x43f;" horiz-adv-x="562" 
d="M57 0v536h447v-536h-141v407h-164v-407h-142z" />
    <glyph glyph-name="uni0440" unicode="&#x440;" horiz-adv-x="586" 
d="M57 -151v687h142v-74q58 84 145 84q86 0 145 -70t59 -200v-16q0 -130 -59 -200t-145 -70t-145 79v-220h-142zM302 114q45 0 74.5 41t29.5 108v10q0 67 -29.5 108t-74.5 41t-75 -41t-30 -108v-10q0 -67 30 -108t75 -41z" />
    <glyph glyph-name="uni0441" unicode="&#x441;" horiz-adv-x="484" 
d="M279 -12q-106 0 -174.5 76.5t-68.5 195.5v12q0 119 69.5 196.5t178.5 77.5q103 0 175 -72l-77 -103q-46 48 -96 48q-49 0 -79 -41.5t-30 -107.5v-4q0 -68 30 -109.5t82 -41.5q50 0 97 49l75 -94q-74 -82 -182 -82z" />
    <glyph glyph-name="uni0442" unicode="&#x442;" horiz-adv-x="490" 
d="M174 0v409h-146v127h433v-127h-146v-409h-141z" />
    <glyph glyph-name="uni0443" unicode="&#x443;" horiz-adv-x="527" 
d="M266 181l98 355h144l-176 -543q-27 -81 -63 -114.5t-98 -33.5q-61 0 -115 32l39 106q31 -18 58 -18q33 0 46 34l-182 537h148z" />
    <glyph glyph-name="uni0444" unicode="&#x444;" horiz-adv-x="758" 
d="M449 -151h-140v149q-126 7 -199.5 80.5t-73.5 187.5v3q0 113 73.5 186.5t199.5 82.5v184h140v-184q126 -7 199.5 -80.5t73.5 -187.5v-3q0 -113 -73.5 -187t-199.5 -82v-149zM584 268q0 66 -36.5 106t-101.5 44v-301q67 4 102.5 44t35.5 106v1zM174 268q0 -66 36.5 -106.5
t101.5 -44.5v301q-66 -4 -102 -43.5t-36 -105.5v-1z" />
    <glyph glyph-name="uni0445" unicode="&#x445;" horiz-adv-x="514" 
d="M174 536l84 -157l85 157h147l-155 -261l161 -275h-151l-89 167l-90 -167h-148l160 273l-154 263h150z" />
    <glyph glyph-name="uni0446" unicode="&#x446;" horiz-adv-x="587" 
d="M439 -119v119h-382v536h142v-407h164v407h141v-408h62v-247h-127z" />
    <glyph glyph-name="uni0447" unicode="&#x447;" horiz-adv-x="530" 
d="M330 0v169q-41 -12 -89 -12q-197 0 -197 186v193h141v-179q0 -39 18.5 -55.5t58.5 -16.5q35 0 68 11v240h142v-536h-142z" />
    <glyph glyph-name="uni0448" unicode="&#x448;" horiz-adv-x="835" 
d="M57 0v536h142v-407h147v407h142v-407h147v407h142v-536h-720z" />
    <glyph glyph-name="uni0449" unicode="&#x449;" horiz-adv-x="860" 
d="M57 0v536h142v-407h147v407h142v-407h147v407h142v-408h62v-247h-127v119h-655z" />
    <glyph glyph-name="uni044A" unicode="&#x44a;" horiz-adv-x="594" 
d="M152 0v412h-128v124h269v-155h68q94 0 151 -48t57 -139v-1q0 -90 -59 -141.5t-164 -51.5h-194zM292 267v-152h57q39 0 59.5 20t20.5 56q0 35 -20.5 55.5t-57.5 20.5h-59z" />
    <glyph glyph-name="uni044B" unicode="&#x44b;" horiz-adv-x="737" 
d="M198 536v-155h69q93 0 150 -48t57 -139v-1q0 -90 -59 -141.5t-164 -51.5h-194v536h141zM538 0v536h141v-536h-141zM198 267v-152h56q39 0 60 20t21 56q0 35 -20.5 55.5t-58.5 20.5h-58z" />
    <glyph glyph-name="uni044C" unicode="&#x44c;" horiz-adv-x="499" 
d="M57 0v536h141v-155h69q93 0 150 -48t57 -139v-1q0 -90 -59 -141.5t-164 -51.5h-194zM198 115h56q39 0 60 20t21 56q0 35 -20.5 55.5t-58.5 20.5h-58v-152z" />
    <glyph glyph-name="uni044D" unicode="&#x44d;" horiz-adv-x="489" 
d="M128 326l185 -2q-8 48 -36 74t-72 26q-57 0 -114 -45l-64 99q83 68 188 68q108 0 173 -75t65 -198v-10q0 -122 -68.5 -198.5t-178.5 -76.5q-102 0 -182 66l65 100q55 -44 114 -44q44 0 73 26.5t37 74.5l-185 -1v116z" />
    <glyph glyph-name="uni044E" unicode="&#x44e;" horiz-adv-x="796" 
d="M199 205v-205h-142v536h142v-200h72q18 94 84.5 152t156.5 58q106 0 176.5 -77t70.5 -196v-11q0 -119 -70.5 -196.5t-177.5 -77.5q-92 0 -158.5 59.5t-83.5 157.5h-70zM512 111q50 0 78 42.5t28 109.5v7q0 66 -29.5 109.5t-77.5 43.5q-49 0 -77 -42.5t-28 -109.5v-7
q0 -66 29.5 -109.5t76.5 -43.5z" />
    <glyph glyph-name="uni044F" unicode="&#x44f;" horiz-adv-x="530" 
d="M183 0h-157l120 194q-101 45 -101 157v1q0 88 56 136t160 48h211v-536h-140v172h-47zM332 426h-67q-39 0 -60 -19.5t-21 -54.5v-1q0 -34 20 -53.5t59 -19.5h69v148z" />
    <glyph glyph-name="uni0450" unicode="&#x450;" horiz-adv-x="533" 
d="M286 -12q-108 0 -179.5 75.5t-71.5 198.5v9q0 119 66.5 197t167.5 78q110 0 169 -79.5t59 -205.5q0 -25 -1 -46h-320q9 -52 39.5 -80t76.5 -28q57 0 112 53l73 -86q-78 -86 -191 -86zM175 309h185q-5 56 -28.5 88t-62.5 32t-63.5 -31.5t-30.5 -88.5zM222 590l-121 113
l119 55l104 -168h-102z" />
    <glyph glyph-name="uni0451" unicode="&#x451;" horiz-adv-x="533" 
d="M294 591v126h134v-126h-134zM106 591v126h134v-126h-134zM286 -12q-108 0 -179.5 75.5t-71.5 198.5v9q0 119 66.5 197t167.5 78q110 0 169 -79.5t59 -205.5q0 -25 -1 -46h-320q9 -52 39.5 -80t76.5 -28q57 0 112 53l73 -86q-78 -86 -191 -86zM175 309h185q-5 56 -28.5 88
t-62.5 32t-63.5 -31.5t-30.5 -88.5z" />
    <glyph glyph-name="uni0452" unicode="&#x452;" horiz-adv-x="536" 
d="M339 551h-138v-111q46 11 89 11q197 0 198 -185v-245q0 -175 -172 -175q-39 0 -64 6v111q20 -3 32 -3q61 0 62 62v230q0 39 -18.5 55t-58.5 16q-31 0 -68 -10v-313h-142v551h-86v109h86v62h142v-62h138v-109z" />
    <glyph glyph-name="uni0453" unicode="&#x453;" horiz-adv-x="438" 
d="M178 589l104 168l119 -55l-121 -113h-102zM57 0v536h355v-129h-213v-407h-142z" />
    <glyph glyph-name="uni0454" unicode="&#x454;" horiz-adv-x="490" 
d="M362 326v-116l-186 1q8 -49 38.5 -75t77.5 -26q56 0 108 44l66 -95q-81 -71 -184 -71q-110 0 -178 76.5t-68 196.5v11q0 120 70 197t182 77q103 0 175 -64l-65 -103q-54 45 -105 45q-44 0 -75 -26.5t-41 -73.5z" />
    <glyph glyph-name="uni0455" unicode="&#x455;" horiz-adv-x="438" 
d="M219 -10q-112 0 -203 74l62 100q78 -60 143 -60q28 0 42.5 11.5t14.5 29.5v2q0 5 -1.5 9.5t-4.5 9t-6 7.5t-10 7t-11.5 7t-13.5 7t-15 6.5l-18 7.5t-18 8q-69 30 -105 65t-36 97v2q0 75 52 119.5t132 44.5q95 0 177 -58l-57 -102q-71 46 -122 46q-25 0 -38.5 -11
t-13.5 -27v-2q0 -18 20.5 -31.5t64.5 -33.5q4 -1 6.5 -2.5t5.5 -2.5q70 -33 106 -68t36 -93v-2q0 -80 -52.5 -123.5t-136.5 -43.5z" />
    <glyph glyph-name="uni0456" unicode="&#x456;" horiz-adv-x="267" 
d="M59 593v129h148v-129h-148zM62 0v536h142v-536h-142z" />
    <glyph glyph-name="uni0457" unicode="&#x457;" horiz-adv-x="267" 
d="M161 590v126h134v-126h-134zM-27 590v126h134v-126h-134zM62 0v536h142v-536h-142z" />
    <glyph glyph-name="uni0458" unicode="&#x458;" horiz-adv-x="267" 
d="M59 593v129h148v-129h-148zM46 -154q-28 0 -60 5v111q18 -2 25 -2q51 0 51 57v519h142v-531q0 -159 -158 -159z" />
    <glyph glyph-name="uni0459" unicode="&#x459;" horiz-adv-x="763" 
d="M329 0v424h-3l-176 -424h-144l228 536h236v-155h62q92 0 149 -48t57 -139v-1q0 -90 -59 -141.5t-163 -51.5h-187zM469 115h50q39 0 59.5 20t20.5 56q0 35 -20.5 55.5t-57.5 20.5h-52v-152z" />
    <glyph glyph-name="uni045A" unicode="&#x45a;" horiz-adv-x="789" 
d="M496 536v-155h61q93 0 150 -48t57 -139v-1q0 -90 -59 -141.5t-163 -51.5h-188v205h-155v-205h-142v536h142v-200h155v200h142zM495 267v-152h50q38 0 58.5 20t20.5 56q0 35 -20 55.5t-57 20.5h-52z" />
    <glyph glyph-name="uni045B" unicode="&#x45b;" horiz-adv-x="535" 
d="M339 551h-138v-111q46 11 89 11q198 0 198 -185v-266h-142v252q0 39 -18.5 55t-58.5 16q-31 0 -68 -10v-313h-142v551h-86v109h86v62h142v-62h138v-109z" />
    <glyph glyph-name="uni045C" unicode="&#x45c;" horiz-adv-x="532" 
d="M199 536v-203h30l128 203h166l-181 -261l185 -275h-163l-133 208h-32v-208h-142v536h142zM220 588l104 168l119 -55l-121 -113h-102z" />
    <glyph glyph-name="uni045D" unicode="&#x45d;" horiz-adv-x="562" 
d="M236 588l-121 113l119 55l104 -168h-102zM57 0v536h141v-287l173 287h133v-536h-140v295l-179 -295h-128z" />
    <glyph glyph-name="uni045E" unicode="&#x45e;" horiz-adv-x="527" 
d="M266 181l98 355h144l-176 -543q-27 -81 -63 -114.5t-98 -33.5q-61 0 -115 32l39 106q31 -18 58 -18q33 0 46 34l-182 537h148zM263 584q-70 0 -115.5 38.5t-51.5 108.5h93q15 -56 74 -56t74 56h93q-6 -70 -51.5 -108.5t-115.5 -38.5z" />
    <glyph glyph-name="uni045F" unicode="&#x45f;" horiz-adv-x="562" 
d="M217 -119v119h-160v536h142v-407h164v407h141v-536h-160v-119h-127z" />
    <glyph glyph-name="uni0462" unicode="&#x462;" horiz-adv-x="713" 
d="M340 708v-76h188v-118h-188v-99h109q108 0 171.5 -51.5t63.5 -150.5v-1q0 -98 -65 -155t-179 -57h-243v512h-169v120h169v76h143zM339 128h110q42 0 67 22.5t25 59.5v1q0 36 -23.5 57t-67.5 21h-111v-161z" />
    <glyph glyph-name="uni0463" unicode="&#x463;" horiz-adv-x="593" 
d="M464 419h-171v-71h79q90 0 143.5 -42.5t53.5 -127.5v-2q0 -82 -56.5 -129t-157.5 -47h-203v418h-128v118h128v186h141v-186h171v-117zM292 241v-131h65q34 0 53 17.5t19 47.5q0 31 -18 48.5t-51 17.5h-68z" />
    <glyph glyph-name="uni0472" unicode="&#x472;" horiz-adv-x="719" 
d="M358 -12q-137 0 -225 99.5t-88 255.5v12q0 156 89 256.5t226 100.5t225.5 -99.5t88.5 -255.5v-12q0 -156 -89.5 -256.5t-226.5 -100.5zM360 115q67 0 112 46t56 128h-338q12 -83 57.5 -128.5t112.5 -45.5zM358 585q-66 0 -110.5 -44.5t-56.5 -124.5h336q-13 80 -58 124.5
t-111 44.5z" />
    <glyph glyph-name="uni0473" unicode="&#x473;" horiz-adv-x="570" 
d="M285 -12q-108 0 -178.5 77t-70.5 196v11q0 119 70.5 196.5t178.5 77.5q107 0 177.5 -77t70.5 -196v-11q0 -119 -70.5 -196.5t-177.5 -77.5zM286 104q45 0 75 29.5t38 81.5h-228q10 -52 40.5 -81.5t74.5 -29.5zM283 430q-45 0 -74 -28t-38 -80h227q-10 51 -40.5 79.5
t-74.5 28.5z" />
    <glyph glyph-name="uni0474" unicode="&#x474;" horiz-adv-x="677" 
d="M248 -4l-231 704h157l144 -482l90 294q33 105 85.5 147.5t147.5 42.5h17v-131h-5q-41 0 -66 -19.5t-42 -72.5l-163 -483h-134z" />
    <glyph glyph-name="uni0475" unicode="&#x475;" horiz-adv-x="546" 
d="M193 -4l-176 540h148l97 -356l52 183q28 99 71 137t124 38h20v-117h-2q-33 0 -51 -16.5t-33 -61.5l-117 -347h-133z" />
    <glyph glyph-name="uni0490" unicode="&#x490;" horiz-adv-x="525" 
d="M70 0v700h294v127h134v-260h-283v-567h-145z" />
    <glyph glyph-name="uni0491" unicode="&#x491;" horiz-adv-x="438" 
d="M57 0v536h225v114h130v-243h-213v-407h-142z" />
    <glyph glyph-name="uni0492" unicode="&#x492;" horiz-adv-x="548" 
d="M93 0v284h-63v100h63v316h428v-133h-283v-183h139v-100h-139v-284h-145z" />
    <glyph glyph-name="uni0493" unicode="&#x493;" horiz-adv-x="456" 
d="M75 0v206h-58v82h58v248h355v-129h-213v-119h103v-82h-103v-206h-142z" />
    <glyph glyph-name="uni0496" unicode="&#x496;" horiz-adv-x="964" 
d="M928 700l-232 -343l157 -224h100v-266h-134v133h-40l-200 290h-34l3 -290h-143l1 290h-36l-200 -290h-164l251 357l-233 343h167l185 -286h30l-1 286h143l-3 -286h31l187 286h165z" />
    <glyph glyph-name="uni0497" unicode="&#x497;" horiz-adv-x="808" 
d="M466 536l-3 -205h32l130 205h159l-178 -262l98 -146h98v-247h-127v119h-45l-135 210h-32l3 -210h-138l2 210h-32l-134 -210h-160l185 267l-179 269h161l128 -205h31l-2 205h138z" />
    <glyph glyph-name="uni0498" unicode="&#x498;" horiz-adv-x="571" 
d="M209 -133l5 127q-103 14 -187 86l78 108q86 -66 165 -66q53 0 85 22.5t32 64.5q0 39 -31.5 60.5t-90.5 21.5h-101v123h102q52 0 80 23.5t28 62.5v1q0 36 -26 57t-73 21q-78 0 -160 -68l-77 104q108 95 246 95q110 0 172 -50t62 -136q0 -116 -113 -164q128 -38 128 -163
q0 -78 -50.5 -131.5t-140.5 -69.5l5 -129h-138z" />
    <glyph glyph-name="uni0499" unicode="&#x499;" horiz-adv-x="482" 
d="M24 56l65 99q71 -49 137 -49q41 0 63 15t22 42q0 52 -86 52h-87v107h85q78 0 78 53v1q0 23 -19.5 37.5t-53.5 14.5q-67 0 -133 -51l-65 95q88 74 211 74q90 0 143.5 -41t53.5 -108v-1q0 -85 -86 -123q96 -33 96 -125v-1q0 -57 -40.5 -98.5t-112.5 -54.5l6 -113h-132
l5 111q-81 11 -150 64z" />
    <glyph glyph-name="uni049A" unicode="&#x49a;" horiz-adv-x="653" 
d="M624 700l-250 -341l166 -226h105v-266h-134v133h-47l-208 288h-43l2 -288h-145v700h145l-2 -284h43l196 284h172z" />
    <glyph glyph-name="uni049B" unicode="&#x49b;" horiz-adv-x="540" 
d="M199 536v-203h30l128 203h166l-181 -261l99 -147h93v-247h-127v119h-43l-133 208h-32v-208h-142v536h142z" />
    <glyph glyph-name="uni049C" unicode="&#x49c;" horiz-adv-x="680" 
d="M348 609l-2 -175l148 266h159l-202 -333l212 -367h-162l-155 276l2 -170h-79l1 186h-56v-292h-144v700h144v-283h56l-1 192h79z" />
    <glyph glyph-name="uni049D" unicode="&#x49d;" horiz-adv-x="580" 
d="M564 0h-153l-110 210l1 -138h-64l1 148h-40v-220h-142v536h142v-206h40l-1 146h64l-1 -144l112 204h151l-158 -256z" />
    <glyph glyph-name="uni04A0" unicode="&#x4a0;" horiz-adv-x="769" 
d="M28 570v130h316l-2 -284h43l196 284h172l-250 -341l264 -359h-174l-208 288h-43l2 -288h-145v570h-171z" />
    <glyph glyph-name="uni04A1" unicode="&#x4a1;" horiz-adv-x="626" 
d="M24 412v124h269v-203h30l128 203h166l-181 -261l185 -275h-163l-134 208h-31v-208h-142v412h-127z" />
    <glyph glyph-name="uni04A2" unicode="&#x4a2;" horiz-adv-x="693" 
d="M536 -133v133h-91v285h-230v-285h-145v700h145v-281h230v281h145v-567h80v-266h-134z" />
    <glyph glyph-name="uni04A3" unicode="&#x4a3;" horiz-adv-x="587" 
d="M439 -119v119h-76v205h-164v-205h-142v536h142v-201h164v201h141v-408h62v-247h-127z" />
    <glyph glyph-name="uni04A4" unicode="&#x4a4;" horiz-adv-x="866" 
d="M437 0v285h-222v-285h-145v700h145v-281h222v281h402v-133h-258v-567h-144z" />
    <glyph glyph-name="uni04A5" unicode="&#x4a5;" horiz-adv-x="726" 
d="M199 536v-200h155v200h346v-129h-204v-407h-142v205h-155v-205h-142v536h142z" />
    <glyph glyph-name="uni04AA" unicode="&#x4aa;" horiz-adv-x="619" 
d="M279 -133l5 130q-110 23 -174.5 116t-64.5 232v9q0 158 89 257t228 99q134 0 225 -93l-87 -112q-68 70 -143 70q-71 0 -117 -61t-46 -162v-3q0 -102 47 -163t118 -61t144 73l87 -103q-84 -86 -178 -100l5 -128h-138z" />
    <glyph glyph-name="uni04AB" unicode="&#x4ab;" horiz-adv-x="484" 
d="M204 -119l5 117q-79 23 -126 93.5t-47 168.5v12q0 119 69.5 196.5t178.5 77.5q103 0 175 -72l-77 -103q-46 48 -96 48q-49 0 -79 -41.5t-30 -107.5v-4q0 -68 30 -109.5t82 -41.5q50 0 97 49l75 -94q-59 -64 -131 -77l6 -112h-132z" />
    <glyph glyph-name="uni04AE" unicode="&#x4ae;" horiz-adv-x="617" 
d="M236 0v276l-228 424h164l138 -275l139 275h160l-228 -422v-278h-145z" />
    <glyph glyph-name="uni04AF" unicode="&#x4af;" horiz-adv-x="527" 
d="M335 -151h-142v170l-176 517h148l100 -345l100 345h145l-175 -514v-173z" />
    <glyph glyph-name="uni04B0" unicode="&#x4b0;" horiz-adv-x="617" 
d="M236 0v185h-137v100h132l-223 415h164l138 -275l139 275h160l-224 -415h132v-100h-136v-185h-145z" />
    <glyph glyph-name="uni04B1" unicode="&#x4b1;" horiz-adv-x="527" 
d="M265 191l100 345h145l-155 -454h105v-82h-125v-151h-142v151h-126v82h104l-154 454h148z" />
    <glyph glyph-name="uni04B2" unicode="&#x4b2;" horiz-adv-x="656" 
d="M442 0l-128 240l-129 -240h-161l207 356l-198 344h165l119 -227l121 227h161l-200 -342l131 -225h108v-266h-134v133h-62z" />
    <glyph glyph-name="uni04B3" unicode="&#x4b3;" horiz-adv-x="529" 
d="M174 536l84 -157l85 157h147l-155 -261l86 -147h96v-247h-127v119h-45l-89 167l-90 -167h-148l160 273l-154 263h150z" />
    <glyph glyph-name="uni04B6" unicode="&#x4b6;" horiz-adv-x="656" 
d="M408 0v234q-67 -12 -121 -12q-111 0 -171.5 55.5t-60.5 168.5v254h144v-239q0 -56 25.5 -80.5t80.5 -24.5q57 0 103 12v332h145v-567h80v-266h-134v133h-91z" />
    <glyph glyph-name="uni04B7" unicode="&#x4b7;" horiz-adv-x="555" 
d="M330 0v169q-41 -12 -89 -12q-197 0 -197 186v193h141v-179q0 -39 18.5 -55.5t58.5 -16.5q35 0 68 11v240h142v-408h62v-247h-127v119h-77z" />
    <glyph glyph-name="uni04B8" unicode="&#x4b8;" horiz-adv-x="629" 
d="M414 0v234q-43 -8 -69 -10l2 -150h-80l1 148q-213 11 -213 225v253h144v-239q0 -88 69 -102l-1 189h80l-2 -191q41 3 69 11v332h145v-700h-145z" />
    <glyph glyph-name="uni04B9" unicode="&#x4b9;" horiz-adv-x="537" 
d="M293 55h-64l1 102q-186 6 -186 185v194h141v-182q0 -56 45 -66l-1 138h64l-1 -140q23 3 46 10v240h141v-536h-141v169q-20 -6 -46 -9z" />
    <glyph glyph-name="uni04BA" unicode="&#x4ba;" horiz-adv-x="624" 
d="M215 700v-234q67 12 121 12q111 0 172 -55.5t61 -168.5v-254h-145v239q0 56 -25.5 80.5t-80.5 24.5q-56 0 -103 -12v-332h-145v700h145z" />
    <glyph glyph-name="uni04BB" unicode="&#x4bb;" horiz-adv-x="548" 
d="M57 0v722h142v-258q59 82 138 82q74 0 116 -48.5t42 -132.5v-365h-142v323q0 95 -76 95q-36 0 -57 -24.5t-21 -70.5v-323h-142z" />
    <glyph glyph-name="uni04C0" unicode="&#x4c0;" horiz-adv-x="295" 
d="M75 0v700h145v-700h-145z" />
    <glyph glyph-name="uni04C1" unicode="&#x4c1;" horiz-adv-x="952" 
d="M24 700h167l185 -286h30l-1 286h143l-3 -286h31l187 286h165l-232 -343l250 -357h-167l-200 290h-34l3 -290h-143l1 290h-36l-200 -290h-164l251 357zM475 746q-72 0 -117.5 36t-50.5 102h94q16 -47 74 -47t74 47h94q-5 -66 -50.5 -102t-117.5 -36z" />
    <glyph glyph-name="uni04C2" unicode="&#x4c2;" horiz-adv-x="794" 
d="M466 536l-3 -205h32l130 205h159l-178 -262l184 -274h-160l-135 210h-32l3 -210h-138l2 210h-32l-134 -210h-160l185 267l-179 269h161l128 -205h31l-2 205h138zM397 585q-70 0 -115.5 38.5t-51.5 108.5h93q15 -56 74 -56t74 56h93q-6 -70 -51.5 -108.5t-115.5 -38.5z
" />
    <glyph glyph-name="uni04CF" unicode="&#x4cf;" horiz-adv-x="267" 
d="M62 0v722h142v-722h-142z" />
    <glyph glyph-name="uni04D0" unicode="&#x4d0;" horiz-adv-x="674" 
d="M17 0l251 704h138l251 -704h-150l-52 152h-241l-51 -152h-146zM258 280h153l-76 228zM336 754q-72 0 -117.5 36t-50.5 102h94q16 -47 74 -47t74 47h94q-5 -66 -50.5 -102t-117.5 -36z" />
    <glyph glyph-name="uni04D1" unicode="&#x4d1;" horiz-adv-x="518" 
d="M188 -10q-68 0 -113.5 43.5t-45.5 119.5v6q0 85 50.5 128t136.5 43q56 0 112 -22v16q0 46 -26.5 70t-74.5 24q-52 0 -123 -30l-39 111q86 43 183 43q108 0 163 -55t55 -162v-325h-139v58q-52 -68 -139 -68zM235 94q41 -1 68 22t27 60v45q-36 17 -79 17q-40 0 -62.5 -19.5
t-22.5 -55.5v-2q0 -32 18.5 -49t50.5 -18zM259 586q-70 0 -115.5 38.5t-51.5 108.5h93q15 -56 74 -56t74 56h93q-6 -70 -51.5 -108.5t-115.5 -38.5z" />
    <glyph glyph-name="uni04D2" unicode="&#x4d2;" horiz-adv-x="674" 
d="M17 0l251 704h138l251 -704h-150l-52 152h-241l-51 -152h-146zM258 280h153l-76 228zM368 758v121h134v-121h-134zM170 758v121h134v-121h-134z" />
    <glyph glyph-name="uni04D3" unicode="&#x4d3;" horiz-adv-x="518" 
d="M188 -10q-68 0 -113.5 43.5t-45.5 119.5v6q0 85 50.5 128t136.5 43q56 0 112 -22v16q0 46 -26.5 70t-74.5 24q-52 0 -123 -30l-39 111q86 43 183 43q108 0 163 -55t55 -162v-325h-139v58q-52 -68 -139 -68zM235 94q41 -1 68 22t27 60v45q-36 17 -79 17q-40 0 -62.5 -19.5
t-22.5 -55.5v-2q0 -32 18.5 -49t50.5 -18zM286 591v126h134v-126h-134zM98 591v126h134v-126h-134z" />
    <glyph glyph-name="uni04D4" unicode="&#x4d4;" horiz-adv-x="900" 
d="M6 0l320 700h526v-131h-290v-151h253v-131h-253v-156h294v-131h-438v152h-198l-68 -152h-146zM278 280h140v289h-15z" />
    <glyph glyph-name="uni04D5" unicode="&#x4d5;" horiz-adv-x="823" 
d="M205 -10q-79 0 -127.5 44.5t-48.5 121.5v3q0 85 50.5 128t136.5 43q56 0 112 -22v16q0 46 -26 70t-74 24q-54 0 -124 -32l-39 113q86 43 183 43q110 0 161 -65q61 69 153 69q108 0 166.5 -80t58.5 -205q0 -25 -1 -46h-320q9 -53 39.5 -80.5t76.5 -27.5q62 0 112 53
l73 -86q-77 -86 -191 -86q-116 0 -184 88q-84 -86 -187 -86zM465 309h185q-5 56 -28.5 88t-62.5 32t-63.5 -31.5t-30.5 -88.5zM237 95q61 0 111 56q-12 37 -15 70q-37 17 -81 17q-40 0 -63 -19t-23 -55v-3q0 -31 20 -48.5t51 -17.5z" />
    <glyph glyph-name="uni04D6" unicode="&#x4d6;" horiz-adv-x="569" 
d="M297 746q-72 0 -117.5 36t-50.5 102h94q16 -47 74 -47t74 47h94q-5 -66 -50.5 -102t-117.5 -36zM70 0v700h451v-131h-307v-151h270v-131h-270v-156h311v-131h-455z" />
    <glyph glyph-name="uni04D7" unicode="&#x4d7;" horiz-adv-x="533" 
d="M286 -12q-108 0 -179.5 75.5t-71.5 198.5v9q0 119 66.5 197t167.5 78q110 0 169 -79.5t59 -205.5q0 -25 -1 -46h-320q9 -52 39.5 -80t76.5 -28q57 0 112 53l73 -86q-78 -86 -191 -86zM175 309h185q-5 56 -28.5 88t-62.5 32t-63.5 -31.5t-30.5 -88.5zM267 586
q-70 0 -115.5 38.5t-51.5 108.5h93q15 -56 74 -56t74 56h93q-6 -70 -51.5 -108.5t-115.5 -38.5z" />
    <glyph glyph-name="uni04D8" unicode="&#x4d8;" horiz-adv-x="679" 
d="M69 605q102 107 253 107q137 0 225 -98t88 -258v-11q0 -157 -84.5 -257t-215.5 -100q-142 0 -216 102.5t-74 268.5q0 32 2 56h433q-13 81 -56.5 121.5t-104.5 40.5q-88 0 -168 -75zM335 119q60 0 99 46t48 128h-286q8 -81 44 -127.5t95 -46.5z" />
    <glyph glyph-name="uni04D9" unicode="&#x4d9;" horiz-adv-x="533" 
d="M247 548q108 0 179.5 -75.5t71.5 -198.5v-9q0 -119 -66.5 -197t-167.5 -78q-110 0 -169 79.5t-59 205.5q0 25 1 46h320q-9 52 -39.5 80t-76.5 28q-57 0 -112 -53l-73 86q78 86 191 86zM358 227h-185q5 -56 28.5 -88t62.5 -32t63.5 31.5t30.5 88.5z" />
    <glyph glyph-name="uni04DC" unicode="&#x4dc;" horiz-adv-x="952" 
d="M24 700h167l185 -286h30l-1 286h143l-3 -286h31l187 286h165l-232 -343l250 -357h-167l-200 290h-34l3 -290h-143l1 290h-36l-200 -290h-164l251 357zM309 750v121h134v-121h-134zM507 750v121h134v-121h-134z" />
    <glyph glyph-name="uni04DD" unicode="&#x4dd;" horiz-adv-x="794" 
d="M466 536l-3 -205h32l130 205h159l-178 -262l184 -274h-160l-135 210h-32l3 -210h-138l2 210h-32l-134 -210h-160l185 267l-179 269h161l128 -205h31l-2 205h138zM236 590v126h134v-126h-134zM424 590v126h134v-126h-134z" />
    <glyph glyph-name="uni04DE" unicode="&#x4de;" horiz-adv-x="571" 
d="M115 511l-77 104q108 95 246 95q110 0 172 -50t62 -136q0 -116 -113 -164q128 -38 128 -163q0 -93 -70.5 -150t-191.5 -57q-139 0 -244 90l78 108q86 -66 165 -66q53 0 85 22.5t32 64.5q0 39 -31.5 60.5t-90.5 21.5h-101v123h102q52 0 80 23.5t28 62.5v1q0 36 -26 57
t-73 21q-78 0 -160 -68zM314 751v121h134v-121h-134zM116 751v121h134v-121h-134z" />
    <glyph glyph-name="uni04DF" unicode="&#x4df;" horiz-adv-x="482" 
d="M24 56l65 99q71 -49 137 -49q41 0 63 15t22 42q0 52 -86 52h-87v107h85q78 0 78 53v1q0 23 -19.5 37.5t-53.5 14.5q-67 0 -133 -51l-65 95q88 74 211 74q90 0 143.5 -41t53.5 -108v-1q0 -85 -86 -123q96 -33 96 -125v-1q0 -69 -58.5 -114t-160.5 -45q-116 0 -205 68z
M271 591v126h134v-126h-134zM83 591v126h134v-126h-134z" />
    <glyph glyph-name="uni04E2" unicode="&#x4e2;" horiz-adv-x="683" 
d="M170 752v99h340v-99h-340zM613 0h-143v442l-270 -442h-130v700h143v-427l261 427h139v-700z" />
    <glyph glyph-name="uni04E3" unicode="&#x4e3;" horiz-adv-x="562" 
d="M120 592v97h320v-97h-320zM57 0v536h141v-287l173 287h133v-536h-140v295l-179 -295h-128z" />
    <glyph glyph-name="uni04E4" unicode="&#x4e4;" horiz-adv-x="683" 
d="M372 749v121h134v-121h-134zM174 749v121h134v-121h-134zM613 0h-143v442l-270 -442h-130v700h143v-427l261 427h139v-700z" />
    <glyph glyph-name="uni04E5" unicode="&#x4e5;" horiz-adv-x="562" 
d="M307 589v126h134v-126h-134zM119 589v126h134v-126h-134zM57 0v536h141v-287l173 287h133v-536h-140v295l-179 -295h-128z" />
    <glyph glyph-name="uni04E6" unicode="&#x4e6;" horiz-adv-x="723" 
d="M393 758v121h134v-121h-134zM195 758v121h134v-121h-134zM361 -12q-140 0 -228 99t-88 256v12q0 157 89 257t228 100q140 0 228 -99t88 -256v-12q0 -157 -89 -257t-228 -100zM362 122q74 0 120 61t46 163v7q0 102 -46.5 163.5t-120.5 61.5t-120.5 -61t-46.5 -163v-7
q0 -102 47 -163.5t121 -61.5z" />
    <glyph glyph-name="uni04E7" unicode="&#x4e7;" horiz-adv-x="577" 
d="M315 591v126h134v-126h-134zM127 591v126h134v-126h-134zM288 -12q-109 0 -180.5 77t-71.5 196v11q0 119 72 196.5t181 77.5t180 -76.5t71 -196.5v-11q0 -119 -71.5 -196.5t-180.5 -77.5zM289 111q51 0 81 42.5t30 109.5v7q0 66 -31 109.5t-81 43.5q-52 0 -82 -42.5
t-30 -109.5v-7q0 -66 31.5 -109.5t81.5 -43.5z" />
    <glyph glyph-name="uni04E8" unicode="&#x4e8;" horiz-adv-x="719" 
d="M358 -12q-137 0 -225 99.5t-88 255.5v12q0 156 89 256.5t226 100.5t225.5 -99.5t88.5 -255.5v-12q0 -156 -89.5 -256.5t-226.5 -100.5zM360 115q67 0 112 46t56 128h-338q12 -83 57.5 -128.5t112.5 -45.5zM358 585q-66 0 -110.5 -44.5t-56.5 -124.5h336q-13 80 -58 124.5
t-111 44.5z" />
    <glyph glyph-name="uni04E9" unicode="&#x4e9;" horiz-adv-x="570" 
d="M285 -12q-108 0 -178.5 77t-70.5 196v11q0 119 70.5 196.5t178.5 77.5q107 0 177.5 -77t70.5 -196v-11q0 -119 -70.5 -196.5t-177.5 -77.5zM286 104q45 0 75 29.5t38 81.5h-228q10 -52 40.5 -81.5t74.5 -29.5zM283 430q-45 0 -74 -28t-38 -80h227q-10 51 -40.5 79.5
t-74.5 28.5z" />
    <glyph glyph-name="uni04EE" unicode="&#x4ee;" horiz-adv-x="624" 
d="M288 0h-156l113 236l-230 464h160l149 -314l136 314h157zM148 752v99h340v-99h-340z" />
    <glyph glyph-name="uni04EF" unicode="&#x4ef;" horiz-adv-x="527" 
d="M266 181l98 355h144l-176 -543q-27 -81 -63 -114.5t-98 -33.5q-61 0 -115 32l39 106q31 -18 58 -18q33 0 46 34l-182 537h148zM103 592v97h320v-97h-320z" />
    <glyph glyph-name="uni04F0" unicode="&#x4f0;" horiz-adv-x="624" 
d="M288 0h-156l113 236l-230 464h160l149 -314l136 314h157zM152 749v121h134v-121h-134zM350 749v121h134v-121h-134z" />
    <glyph glyph-name="uni04F1" unicode="&#x4f1;" horiz-adv-x="527" 
d="M266 181l98 355h144l-176 -543q-27 -81 -63 -114.5t-98 -33.5q-61 0 -115 32l39 106q31 -18 58 -18q33 0 46 34l-182 537h148zM290 589v126h134v-126h-134zM102 589v126h134v-126h-134z" />
    <glyph glyph-name="uni04F2" unicode="&#x4f2;" horiz-adv-x="624" 
d="M288 0h-156l113 236l-230 464h160l149 -314l136 314h157zM341 748l111 148l115 -55l-123 -93h-103zM173 748l110 148l116 -55l-124 -93h-102z" />
    <glyph glyph-name="uni04F3" unicode="&#x4f3;" horiz-adv-x="527" 
d="M266 181l98 355h144l-176 -543q-27 -81 -63 -114.5t-98 -33.5q-61 0 -115 32l39 106q31 -18 58 -18q33 0 46 34l-182 537h148zM284 588l103 168l115 -55l-121 -113h-97zM122 588l102 168l115 -55l-120 -113h-97z" />
    <glyph glyph-name="uni04F4" unicode="&#x4f4;" horiz-adv-x="623" 
d="M408 0v234q-67 -12 -121 -12q-111 0 -171.5 55.5t-60.5 168.5v254h144v-239q0 -56 25.5 -80.5t80.5 -24.5q57 0 103 12v332h145v-700h-145zM335 749v121h134v-121h-134zM137 749v121h134v-121h-134z" />
    <glyph glyph-name="uni04F5" unicode="&#x4f5;" horiz-adv-x="530" 
d="M285 589v126h134v-126h-134zM97 589v126h134v-126h-134zM330 0v169q-41 -12 -89 -12q-197 0 -197 186v193h141v-179q0 -39 18.5 -55.5t58.5 -16.5q35 0 68 11v240h142v-536h-142z" />
    <glyph glyph-name="uni04F8" unicode="&#x4f8;" horiz-adv-x="857" 
d="M70 0v700h145v-223h83q122 0 191.5 -60t69.5 -174v-2q0 -114 -70.5 -177.5t-198.5 -63.5h-220zM642 0v700h145v-700h-145zM215 131h82q55 0 85.5 29t30.5 79v1q0 51 -29 79t-86 28h-83v-216zM459 750v121h134v-121h-134zM261 750v121h134v-121h-134z" />
    <glyph glyph-name="uni04F9" unicode="&#x4f9;" horiz-adv-x="737" 
d="M198 536v-155h69q93 0 150 -48t57 -139v-1q0 -90 -59 -141.5t-164 -51.5h-194v536h141zM538 0v536h141v-536h-141zM198 267v-152h56q39 0 60 20t21 56q0 35 -20.5 55.5t-58.5 20.5h-58zM394 590v126h134v-126h-134zM206 590v126h134v-126h-134z" />
    <glyph glyph-name="baht" unicode="&#xe3f;" horiz-adv-x="574" 
d="M279 784h91l-10 -89q78 -12 124 -57t46 -118v-2q0 -108 -103 -155q57 -27 87 -64t30 -101v-3q0 -94 -67 -144.5t-180 -50.5h-7l-10 -119h-91l11 119h-144v700h214zM409 212q0 38 -24.5 60t-69.5 25l-17 -175h6q49 0 77 23t28 65v2zM188 408h57l16 170h-73v-170zM396 494
q0 61 -55 78l-16 -161q71 13 71 83zM188 122h29l17 176h-46v-176z" />
    <glyph glyph-name="Wgrave" unicode="&#x1e80;" horiz-adv-x="965" 
d="M540 749h-108l-125 93l122 55zM222 -4l-200 704h153l118 -461l128 463h126l129 -463l117 461h150l-200 -704h-133l-128 445l-128 -445h-132z" />
    <glyph glyph-name="wgrave" unicode="&#x1e81;" horiz-adv-x="759" 
d="M162 -4l-142 540h143l73 -317l83 319h121l84 -320l74 318h141l-144 -540h-131l-85 318l-87 -318h-130zM333 589l-121 113l119 55l104 -168h-102z" />
    <glyph glyph-name="Wacute" unicode="&#x1e82;" horiz-adv-x="965" 
d="M423 749l111 148l122 -55l-125 -93h-108zM222 -4l-200 704h153l118 -461l128 463h126l129 -463l117 461h150l-200 -704h-133l-128 445l-128 -445h-132z" />
    <glyph glyph-name="wacute" unicode="&#x1e83;" horiz-adv-x="759" 
d="M322 589l104 168l119 -55l-121 -113h-102zM162 -4l-142 540h143l73 -317l83 319h121l84 -320l74 318h141l-144 -540h-131l-85 318l-87 -318h-130z" />
    <glyph glyph-name="Wdieresis" unicode="&#x1e84;" horiz-adv-x="965" 
d="M514 750v121h134v-121h-134zM316 750v121h134v-121h-134zM222 -4l-200 704h153l118 -461l128 463h126l129 -463l117 461h150l-200 -704h-133l-128 445l-128 -445h-132z" />
    <glyph glyph-name="wdieresis" unicode="&#x1e85;" horiz-adv-x="759" 
d="M405 590v126h134v-126h-134zM217 590v126h134v-126h-134zM162 -4l-142 540h143l73 -317l83 319h121l84 -320l74 318h141l-144 -540h-131l-85 318l-87 -318h-130z" />
    <glyph glyph-name="Ygrave" unicode="&#x1ef2;" horiz-adv-x="617" 
d="M236 0v276l-228 424h164l138 -275l139 275h160l-228 -422v-278h-145zM367 749h-108l-125 93l122 55z" />
    <glyph glyph-name="ygrave" unicode="&#x1ef3;" horiz-adv-x="527" 
d="M266 181l98 355h144l-176 -543q-27 -81 -63 -114.5t-98 -33.5q-61 0 -115 32l39 106q31 -18 58 -18q33 0 46 34l-182 537h148zM218 589l-121 113l119 55l104 -168h-102z" />
    <glyph glyph-name="enspace" unicode="&#x2002;" horiz-adv-x="500" 
 />
    <glyph glyph-name="emspace" unicode="&#x2003;" horiz-adv-x="1000" 
 />
    <glyph glyph-name="threeperemspace" unicode="&#x2004;" horiz-adv-x="333" 
 />
    <glyph glyph-name="fourperemspace" unicode="&#x2005;" horiz-adv-x="250" 
 />
    <glyph glyph-name="figurespace" unicode="&#x2007;" horiz-adv-x="530" 
 />
    <glyph glyph-name="thinspace" unicode="&#x2009;" horiz-adv-x="133" 
 />
    <glyph glyph-name="hairspace" unicode="&#x200a;" horiz-adv-x="75" 
 />
    <glyph glyph-name="endash" unicode="&#x2013;" horiz-adv-x="507" 
d="M47 243v134h413v-134h-413z" />
    <glyph glyph-name="emdash" unicode="&#x2014;" horiz-adv-x="832" 
d="M47 243v134h738v-134h-738z" />
    <glyph glyph-name="quoteleft" unicode="&#x2018;" horiz-adv-x="268" 
d="M52 389v129q0 178 174 187l13 -59q-102 -14 -94 -103h62v-154h-155z" />
    <glyph glyph-name="quoteright" unicode="&#x2019;" horiz-adv-x="268" 
d="M41 384l-12 59q102 14 94 103h-62v154h155v-129q0 -179 -175 -187z" />
    <glyph glyph-name="quotesinglbase" unicode="&#x201a;" horiz-adv-x="267" 
d="M33 -162l-13 59q106 14 98 103h-62v154h155v-129q0 -178 -178 -187z" />
    <glyph glyph-name="quotedblleft" unicode="&#x201c;" horiz-adv-x="503" 
d="M287 389v129q0 178 175 187l12 -59q-102 -14 -94 -103h62v-154h-155zM52 389v129q0 178 174 187l13 -59q-102 -14 -94 -103h62v-154h-155z" />
    <glyph glyph-name="quotedblright" unicode="&#x201d;" horiz-adv-x="503" 
d="M276 384l-12 59q102 14 94 103h-62v154h155v-129q0 -179 -175 -187zM41 384l-12 59q102 14 94 103h-62v154h155v-129q0 -179 -175 -187z" />
    <glyph glyph-name="quotedblbase" unicode="&#x201e;" horiz-adv-x="505" 
d="M271 -162l-13 59q106 14 98 103h-62v154h155v-129q0 -178 -178 -187zM33 -162l-13 59q106 14 98 103h-62v154h155v-129q0 -178 -178 -187z" />
    <glyph glyph-name="dagger" unicode="&#x2020;" horiz-adv-x="360" 
d="M138 238l11 270l-106 -10v83l105 -11l-13 130h90l-14 -130l106 11v-83l-107 10l11 -270h-83z" />
    <glyph glyph-name="daggerdbl" unicode="&#x2021;" horiz-adv-x="370" 
d="M140 0l14 129l-106 -10v83l106 -11l-11 159l11 158l-106 -10v83l106 -11l-14 130h90l-13 -130l105 11v-83l-106 10l11 -158l-11 -159l106 11v-83l-105 10l13 -129h-90z" />
    <glyph glyph-name="bullet" unicode="&#x2022;" horiz-adv-x="456" 
d="M228 203q-58 0 -98 41.5t-40 104.5v7q0 64 39.5 105t98.5 41q58 0 98 -41t40 -105v-7q0 -63 -40 -104.5t-98 -41.5z" />
    <glyph glyph-name="ellipsis" unicode="&#x2026;" horiz-adv-x="804" 
d="M596 0v151h152v-151h-152zM326 0v151h152v-151h-152zM56 0v151h153v-151h-153z" />
    <glyph glyph-name="perthousand" unicode="&#x2030;" horiz-adv-x="1118" 
d="M193 433q26 0 40 24.5t14 65.5v5q0 41 -15.5 66t-40.5 25q-26 0 -40 -24.5t-14 -65.5v-5q0 -41 15.5 -66t40.5 -25zM191 345q-68 0 -110 49.5t-42 126.5v8q0 77 43 128t111 51t110 -50t42 -127v-8q0 -77 -43 -127.5t-111 -50.5zM668 700l-248 -372l-209 -328h-104
l248 372l208 328h105zM583 81q26 0 40 24.5t14 65.5v5q0 41 -15.5 66t-40.5 25t-39.5 -24.5t-14.5 -65.5v-5q0 -41 15.5 -66t40.5 -25zM581 -8q-68 0 -110 50t-42 127v8q0 77 43 127.5t111 50.5t110 -49.5t42 -126.5v-8q0 -78 -42.5 -128.5t-111.5 -50.5zM927 81
q26 0 40 24.5t14 65.5v5q0 41 -15 66t-40 25q-26 0 -40 -24t-14 -66v-5q0 -41 15 -66t40 -25zM926 -8q-68 0 -110 50t-42 127v8q0 77 42.5 127.5t110.5 50.5t110 -49.5t42 -126.5v-8q0 -77 -42.5 -128t-110.5 -51z" />
    <glyph glyph-name="guilsinglleft" unicode="&#x2039;" horiz-adv-x="343" 
d="M203 42l-167 222v8l167 222l99 -51l-113 -174l114 -174z" />
    <glyph glyph-name="guilsinglright" unicode="&#x203a;" horiz-adv-x="343" 
d="M139 42l-99 51l114 174l-114 174l99 53l168 -222v-8z" />
    <glyph glyph-name="fraction" unicode="&#x2044;" horiz-adv-x="88" 
d="M-203 0l223 367l194 333h77l-223 -367l-194 -333h-77z" />
    <glyph glyph-name="zero.sup" unicode="&#x2070;" 
d="M176 422q-66 0 -105.5 51.5t-39.5 141.5v9q0 91 40 142.5t106 51.5q64 0 104.5 -51.5t40.5 -141.5v-9q0 -90 -40.5 -142t-105.5 -52zM176 740q-59 0 -59 -116v-8q0 -115 60 -115q59 0 59 115v8q0 59 -16.5 87.5t-43.5 28.5z" />
    <glyph glyph-name="four.sup" unicode="&#x2074;" 
d="M281 506v-77h-77v77h-166l-6 78l157 229h92v-239h45v-68h-45zM206 573v149h-2l-101 -149h103z" />
    <glyph glyph-name="five.sup" unicode="&#x2075;" 
d="M168 422q-69 0 -134 49l45 65q47 -36 89 -36q27 0 42.5 14t15.5 38q0 23 -15.5 36t-43.5 13t-60 -12l-51 29l16 191h220v-76h-152l-6 -67q21 6 52 6q55 0 90 -29.5t35 -86.5q0 -62 -39 -98t-104 -36z" />
    <glyph glyph-name="six.sup" unicode="&#x2076;" 
d="M179 422q-57 0 -93 36q-48 46 -48 148v5q0 100 40.5 153.5t116.5 53.5q56 0 104 -33l-36 -68q-31 25 -70 25q-30 0 -48.5 -21.5t-21.5 -62.5q29 20 72 20q50 0 83 -30.5t33 -90.5q0 -61 -37.5 -98t-94.5 -37zM177 495q24 0 39.5 15.5t15.5 42.5t-15 42.5t-40 15.5
q-55 0 -55 -58q0 -26 15.5 -42t39.5 -16z" />
    <glyph glyph-name="seven.sup" unicode="&#x2077;" 
d="M159 429h-92l144 302h-159v78h253v-64z" />
    <glyph glyph-name="eight.sup" unicode="&#x2078;" 
d="M177 422q-62 0 -100 31t-38 82q0 64 56 94q-47 29 -47 84q0 46 35.5 75.5t93.5 29.5q57 0 92.5 -29.5t35.5 -75.5q0 -55 -48 -84q57 -33 57 -93q0 -52 -38.5 -83t-98.5 -31zM177 753q-23 0 -37.5 -13.5t-14.5 -34.5q0 -22 14.5 -35t37.5 -13q22 0 36 13t14 35
q0 21 -14 34.5t-36 13.5zM177 593q-26 0 -42.5 -14t-16.5 -39q0 -24 16 -38.5t43 -14.5q26 0 41.5 14t15.5 39t-16 39t-41 14z" />
    <glyph glyph-name="nine.sup" unicode="&#x2079;" 
d="M175 818q55 0 92 -35q48 -48 48 -148v-6q0 -100 -40.5 -153.5t-116.5 -53.5q-60 0 -110 36l35 68q38 -28 77 -28q29 0 48 21t21 59q-28 -20 -70 -20q-50 0 -83.5 31t-33.5 92q0 62 37.5 99.5t95.5 37.5zM176 625q25 0 40 15.5t15 44.5q0 28 -15.5 44.5t-39.5 16.5
t-39.5 -16.5t-15.5 -44.5t15 -44t40 -16z" />
    <glyph glyph-name="zero.inf" unicode="&#x2080;" 
d="M176 -141q-66 0 -105.5 51.5t-39.5 141.5v9q0 91 40 142.5t106 51.5q64 0 104.5 -51.5t40.5 -141.5v-9q0 -90 -40.5 -142t-105.5 -52zM176 177q-59 0 -59 -116v-8q0 -115 60 -115q59 0 59 115v8q0 59 -16.5 87.5t-43.5 28.5z" />
    <glyph glyph-name="one.inf" unicode="&#x2081;" horiz-adv-x="287" 
d="M207 -132h-85v294l-68 -27l-18 72l108 44h63v-383z" />
    <glyph glyph-name="two.inf" unicode="&#x2082;" 
d="M45 -132v72l117 111q33 31 45 47.5t12 35.5q0 20 -13.5 31.5t-33.5 11.5q-33 0 -77 -46l-52 53q31 36 62 53.5t74 17.5q57 0 91.5 -30.5t34.5 -81.5q0 -34 -14.5 -60.5t-52.5 -62.5l-83 -77h151v-75h-261z" />
    <glyph glyph-name="three.inf" unicode="&#x2083;" 
d="M170 -141q-75 0 -135 51l44 64q43 -38 90 -38q22 0 37.5 12.5t15.5 33.5q0 46 -72 46h-34l-10 54l91 89h-139v75h243v-64l-99 -93q47 -5 76 -31t29 -73q0 -57 -37 -91.5t-100 -34.5z" />
    <glyph glyph-name="four.inf" unicode="&#x2084;" 
d="M281 -57v-77h-77v77h-166l-6 78l157 229h92v-239h45v-68h-45zM206 10v149h-2l-101 -149h103z" />
    <glyph glyph-name="five.inf" unicode="&#x2085;" 
d="M168 -141q-69 0 -134 49l45 65q47 -36 89 -36q27 0 42.5 14t15.5 38q0 23 -15.5 36t-43.5 13t-60 -12l-51 29l16 191h220v-76h-152l-6 -67q21 6 52 6q55 0 90 -29.5t35 -86.5q0 -62 -39 -98t-104 -36z" />
    <glyph glyph-name="six.inf" unicode="&#x2086;" 
d="M179 -141q-57 0 -93 36q-48 46 -48 148v5q0 100 40.5 153.5t116.5 53.5q56 0 104 -33l-36 -68q-31 25 -70 25q-30 0 -48.5 -21.5t-21.5 -62.5q29 20 72 20q50 0 83 -30.5t33 -90.5q0 -61 -37.5 -98t-94.5 -37zM177 -68q24 0 39.5 15.5t15.5 42.5t-15 42.5t-40 15.5
q-55 0 -55 -58q0 -26 15.5 -42t39.5 -16z" />
    <glyph glyph-name="seven.inf" unicode="&#x2087;" 
d="M159 -134h-92l144 302h-159v78h253v-64z" />
    <glyph glyph-name="eight.inf" unicode="&#x2088;" 
d="M177 -141q-62 0 -100 31t-38 82q0 64 56 94q-47 29 -47 84q0 46 35.5 75.5t93.5 29.5q57 0 92.5 -29.5t35.5 -75.5q0 -55 -48 -84q57 -33 57 -93q0 -52 -38.5 -83t-98.5 -31zM177 190q-23 0 -37.5 -13.5t-14.5 -34.5q0 -22 14.5 -35t37.5 -13q22 0 36 13t14 35
q0 21 -14 34.5t-36 13.5zM177 30q-26 0 -42.5 -14t-16.5 -39q0 -24 16 -38.5t43 -14.5q26 0 41.5 14t15.5 39t-16 39t-41 14z" />
    <glyph glyph-name="nine.inf" unicode="&#x2089;" 
d="M175 255q55 0 92 -35q48 -48 48 -148v-6q0 -100 -40.5 -153.5t-116.5 -53.5q-60 0 -110 36l35 68q38 -28 77 -28q29 0 48 21t21 59q-28 -20 -70 -20q-50 0 -83.5 31t-33.5 92q0 62 37.5 99.5t95.5 37.5zM176 62q25 0 40 15.5t15 44.5q0 28 -15.5 44.5t-39.5 16.5
t-39.5 -16.5t-15.5 -44.5t15 -44t40 -16z" />
    <glyph glyph-name="colonmonetary" unicode="&#x20a1;" horiz-adv-x="535" 
d="M401 780h60l-13 -102q31 -12 65 -37l-58 -119q-24 19 -26 20l-47 -411q24 9 65 43l66 -99q-72 -62 -144 -73l-14 -120h-60l14 117q-33 1 -63 9l-15 -126h-59l18 148q-72 39 -113.5 119t-41.5 194v13q0 142 64 230.5t168 108.5l11 85h59l-9 -79q23 0 63 -6zM258 137
q32 -15 69 -15l52 447q-27 9 -51 9q-3 0 -9 -0.5t-9 -0.5zM171 341q0 -108 39 -163l44 380q-83 -50 -83 -205v-12z" />
    <glyph glyph-name="naira" unicode="&#x20a6;" horiz-adv-x="749" 
d="M727 196h-95v-196h-138l-108 196h-132v-196h-137v196h-95v96h95v120h-95v96h95v192h148l104 -192h126v192h137v-192h95v-96h-95v-120h95v-96zM252 443v-154h86l-82 154h-4zM493 274h4v141h-80z" />
    <glyph glyph-name="rupee" unicode="&#x20a8;" horiz-adv-x="967" 
d="M62 0v700h216q110 0 173 -59t63 -168v-5q0 -142 -114 -201l131 -267h-153l-111 235h-70v-235h-135zM757 -10q-107 0 -197 71l60 96q74 -57 138 -57q26 0 42 12t16 32v2q0 19 -17 33.5t-72 39.5q-73 33 -107.5 68.5t-34.5 94.5v2q0 73 50 116t128 43q96 0 169 -54
l-54 -100q-69 44 -115 44q-25 0 -40.5 -11.5t-15.5 -28.5v-2q0 -18 17.5 -33t73.5 -41q75 -35 108 -70t33 -91v-2q0 -77 -51.5 -120.5t-130.5 -43.5zM197 356h76q48 0 76.5 28.5t28.5 80.5v2q0 108 -107 108h-74v-219z" />
    <glyph glyph-name="won" unicode="&#x20a9;" horiz-adv-x="991" 
d="M927 700l-46 -199h88v-99h-111l-23 -103h134v-99h-157l-46 -202h-160l-47 202h-128l-46 -202h-161l-46 202h-155v99h132l-23 103h-109v99h86l-45 199h153l37 -199h120l46 201h155l44 -201h121l37 199h150zM494 491l-44 -196h91l-43 196h-4zM683 201h5l36 204h-85z
M307 201h4l44 204h-85z" />
    <glyph glyph-name="sheqel" unicode="&#x20aa;" horiz-adv-x="578" 
d="M211 139l-24 183h71l17 -125q10 -74 80 -74h69v413h103v-536h-173q-127 0 -143 139zM309 338q0 75 -67 75h-88v-413h-104v536h214q54 0 85 -33.5t31 -92.5v-196h-71v124z" />
    <glyph glyph-name="Euro" unicode="&#x20ac;" horiz-adv-x="619" 
d="M588 611l-97 -92q-47 61 -105 61q-81 0 -114 -96h161v-98h-179v-31v-8v-29h179v-98h-162q32 -100 118 -100q56 0 108 64l92 -88q-83 -108 -203 -108q-101 0 -170 61t-95 171h-82v98h68v27v8q0 22 1 33h-69v98h84q27 106 96 167t168 61q68 0 114.5 -25.5t86.5 -75.5z" />
    <glyph glyph-name="peso" unicode="&#x20b1;" horiz-adv-x="677" 
d="M114 0v404h-95v92h95v204h213q104 0 171 -55t81 -149h91v-92h-92q-15 -96 -85.5 -149.5t-172.5 -55.5h-61v-199h-145zM319 323q44 0 74 22.5t41 61.5h-178v-84h63zM256 574v-82h178q-21 82 -117 82h-61z" />
    <glyph glyph-name="hryvnia" unicode="&#x20b4;" horiz-adv-x="563" 
d="M39 422l7 58l237 -31l8 8q43 44 43 77q0 22 -15.5 35.5t-43.5 13.5q-57 0 -126 -56l-71 100q99 83 212 83q90 0 143.5 -46.5t53.5 -119.5q0 -57 -43 -116l97 -12l-7 -58l-138 18l-59 -59l188 -24l-7 -58l-234 30l-18 -17q-25 -28 -34.5 -44.5t-9.5 -35.5q0 -24 17.5 -38
t48.5 -14q63 0 136 62l73 -101q-100 -87 -222 -87q-96 0 -150.5 47t-54.5 120q0 65 51 129l-98 13l8 58l139 -18l60 58z" />
    <glyph glyph-name="numero" unicode="&#x2116;" horiz-adv-x="989" 
d="M60 0v700h124l218 -387v387h133v-700h-117l-226 403v-403h-132zM776 277q-74 0 -120.5 57.5t-46.5 150.5v12q0 93 46.5 150t121.5 57q74 0 120 -57t46 -150v-12q0 -93 -46.5 -150.5t-120.5 -57.5zM777 366q30 0 47.5 32t17.5 85v13q0 54 -18 86.5t-48 32.5
q-31 0 -48.5 -31.5t-17.5 -85.5v-13q0 -54 18 -86.5t49 -32.5zM616 136v81h319v-81h-319z" />
    <glyph glyph-name="published" unicode="&#x2117;" horiz-adv-x="739" 
d="M369 -12q-138 0 -231 102.5t-93 253.5v11q0 151 93.5 254t231.5 103t231 -102.5t93 -253.5v-11q0 -151 -93.5 -254t-231.5 -103zM369 28q123 0 204 90.5t81 226.5v12q0 135 -80.5 225t-203.5 90t-204 -90.5t-81 -226.5v-12q0 -135 80.5 -225t203.5 -90zM254 164v385h129
q65 0 103 -35.5t38 -96.5v-2q0 -63 -40.5 -97.5t-104.5 -36.5h-45v-117h-80zM334 353h45q29 0 46.5 16.5t17.5 44.5v1q0 30 -17 46t-48 16h-44v-124z" />
    <glyph glyph-name="servicemark" unicode="&#x2120;" horiz-adv-x="625" 
d="M311 390v310h72l67 -122l68 122h70v-310h-65v203l-71 -131h-5l-71 131v-203h-65zM144 385q-69 0 -123 45l34 49q50 -38 91 -38q21 0 32.5 8.5t11.5 22.5q0 13 -12 22t-45 21q-51 19 -74.5 38.5t-23.5 56.5q0 42 30 68.5t79 26.5q63 0 107 -38l-34 -50q-42 30 -74 30
q-42 0 -42 -30q0 -13 11.5 -21t45.5 -21q51 -19 74.5 -40t23.5 -57q0 -42 -31.5 -67.5t-80.5 -25.5z" />
    <glyph glyph-name="trademark" unicode="&#x2122;" horiz-adv-x="613" 
d="M298 390v310h73l67 -122l68 122h70v-310h-65v203l-72 -131h-4l-71 131v-203h-66zM99 390v248h-76v62h221v-62h-77v-248h-68z" />
    <glyph glyph-name="Omega" unicode="&#x2126;" horiz-adv-x="740" 
d="M371 712q143 0 226 -84.5t83 -226.5v-4q0 -149 -123 -270h136v-127h-269v124q50 53 78 112t28 143v2q0 94 -42.5 145.5t-117.5 51.5q-74 0 -116.5 -50.5t-42.5 -142.5v-2q0 -149 105 -259v-124h-268v127h135q-123 121 -123 270v4q0 137 84 224t227 87z" />
    <glyph glyph-name="onethird" unicode="&#x2153;" horiz-adv-x="729" 
d="M553 -9q-75 0 -135 51l44 64q43 -38 90 -38q22 0 37.5 12.5t15.5 33.5q0 46 -72 46h-34l-10 54l91 89h-139v75h243v-64l-99 -93q47 -5 76 -31t29 -73q0 -57 -37 -91.5t-100 -34.5zM207 322h-85v293l-68 -27l-18 73l108 44h63v-383zM87 0l223 367l194 333h77l-223 -367
l-194 -333h-77z" />
    <glyph glyph-name="twothirds" unicode="&#x2154;" horiz-adv-x="794" 
d="M621 -9q-75 0 -135 51l44 64q43 -38 90 -38q22 0 37.5 12.5t15.5 33.5q0 46 -72 46h-34l-10 54l91 89h-139v75h243v-64l-99 -93q47 -5 76 -31t29 -73q0 -57 -37 -91.5t-100 -34.5zM38 322v71l117 111q33 31 45 47.5t12 36.5q0 19 -13.5 30.5t-33.5 11.5q-34 0 -77 -46
l-52 54q31 36 62 53.5t74 17.5q57 0 91.5 -30.5t34.5 -81.5q0 -34 -14.5 -61t-52.5 -62l-83 -77h151v-75h-261zM150 0l223 367l194 333h77l-223 -367l-194 -333h-77z" />
    <glyph glyph-name="onefifth" unicode="&#x2155;" horiz-adv-x="729" 
d="M548 -9q-69 0 -134 49l45 65q47 -36 89 -36q27 0 42.5 14t15.5 38q0 23 -15.5 36t-43.5 13t-60 -12l-51 29l16 191h220v-76h-152l-6 -67q21 6 52 6q55 0 90 -29.5t35 -86.5q0 -62 -39 -98t-104 -36zM207 322h-85v293l-68 -27l-18 73l108 44h63v-383zM89 0l223 367
l194 333h77l-223 -367l-194 -333h-77z" />
    <glyph glyph-name="twofifths" unicode="&#x2156;" horiz-adv-x="794" 
d="M618 -9q-69 0 -134 49l45 65q47 -36 89 -36q27 0 42.5 14t15.5 38q0 23 -15.5 36t-43.5 13t-60 -12l-51 29l16 191h220v-76h-152l-6 -67q21 6 52 6q55 0 90 -29.5t35 -86.5q0 -62 -39 -98t-104 -36zM159 0l223 367l194 333h77l-223 -367l-194 -333h-77zM38 322v71
l117 111q33 31 45 47.5t12 36.5q0 19 -13.5 30.5t-33.5 11.5q-34 0 -77 -46l-52 54q31 36 62 53.5t74 17.5q57 0 91.5 -30.5t34.5 -81.5q0 -34 -14.5 -61t-52.5 -62l-83 -77h151v-75h-261z" />
    <glyph glyph-name="threefifths" unicode="&#x2157;" horiz-adv-x="794" 
d="M618 -9q-69 0 -134 49l45 65q47 -36 89 -36q27 0 42.5 14t15.5 38q0 23 -15.5 36t-43.5 13t-60 -12l-51 29l16 191h220v-76h-152l-6 -67q21 6 52 6q55 0 90 -29.5t35 -86.5q0 -62 -39 -98t-104 -36zM145 0l223 367l194 333h77l-223 -367l-194 -333h-77zM166 313
q-77 0 -135 51l44 63q46 -38 90 -38q22 0 37.5 13t15.5 34q0 46 -72 46h-34l-10 54l91 88h-139v76h243v-64l-99 -93q47 -6 76 -32t29 -73q0 -57 -37 -91t-100 -34z" />
    <glyph glyph-name="fourfifths" unicode="&#x2158;" horiz-adv-x="794" 
d="M272 397v-77h-77v77h-166l-6 78l157 229h92v-239h45v-68h-45zM197 464v148h-2l-101 -148h103zM618 -9q-69 0 -134 49l45 65q47 -36 89 -36q27 0 42.5 14t15.5 38q0 23 -15.5 36t-43.5 13t-60 -12l-51 29l16 191h220v-76h-152l-6 -67q21 6 52 6q55 0 90 -29.5t35 -86.5
q0 -62 -39 -98t-104 -36zM157 0l223 367l194 333h77l-223 -367l-194 -333h-77z" />
    <glyph glyph-name="onesixth" unicode="&#x2159;" horiz-adv-x="729" 
d="M557 -9q-57 0 -93 36q-48 46 -48 148v5q0 100 40.5 153.5t116.5 53.5q56 0 104 -33l-36 -68q-31 25 -70 25q-30 0 -48.5 -21.5t-21.5 -62.5q29 20 72 20q50 0 83 -30.5t33 -90.5q0 -61 -37.5 -98t-94.5 -37zM95 0l223 367l194 333h77l-223 -367l-194 -333h-77zM207 322
h-85v293l-68 -27l-18 73l108 44h63v-383zM555 64q24 0 39.5 15.5t15.5 42.5t-15 42.5t-40 15.5q-55 0 -55 -58q0 -26 15.5 -42t39.5 -16z" />
    <glyph glyph-name="fivesixths" unicode="&#x215a;" horiz-adv-x="794" 
d="M624 -9q-57 0 -93 36q-48 46 -48 148v5q0 100 40.5 153.5t116.5 53.5q56 0 104 -33l-36 -68q-31 25 -70 25q-30 0 -48.5 -21.5t-21.5 -62.5q29 20 72 20q50 0 83 -30.5t33 -90.5q0 -61 -37.5 -98t-94.5 -37zM163 313q-69 0 -134 49l45 65q47 -37 89 -37q27 0 42.5 14.5
t15.5 38.5q0 23 -15.5 36t-43.5 13t-60 -12l-51 28l16 192h220v-76h-152l-6 -67q21 6 52 6q55 0 90 -30t35 -87q0 -61 -39 -97t-104 -36zM149 0l223 367l194 333h77l-223 -367l-194 -333h-77zM622 64q24 0 39.5 15.5t15.5 42.5t-15 42.5t-40 15.5q-55 0 -55 -58
q0 -26 15.5 -42t39.5 -16z" />
    <glyph glyph-name="oneeighth" unicode="&#x215b;" horiz-adv-x="729" 
d="M555 -9q-62 0 -100 31t-38 82q0 64 56 94q-47 29 -47 84q0 46 35.5 75.5t93.5 29.5q57 0 92.5 -29.5t35.5 -75.5q0 -55 -48 -84q57 -33 57 -93q0 -52 -38.5 -83t-98.5 -31zM555 322q-23 0 -37.5 -13.5t-14.5 -34.5q0 -22 14.5 -35t37.5 -13q22 0 36 13t14 35
q0 21 -14 34.5t-36 13.5zM555 162q-26 0 -42.5 -14t-16.5 -39q0 -24 16 -38.5t43 -14.5q26 0 41.5 14t15.5 39t-16 39t-41 14zM207 322h-85v293l-68 -27l-18 73l108 44h63v-383zM89 0l223 367l194 333h77l-223 -367l-194 -333h-77z" />
    <glyph glyph-name="threeeighths" unicode="&#x215c;" horiz-adv-x="794" 
d="M625 -9q-62 0 -100 31t-38 82q0 64 56 94q-47 29 -47 84q0 46 35.5 75.5t93.5 29.5q57 0 92.5 -29.5t35.5 -75.5q0 -55 -48 -84q57 -33 57 -93q0 -52 -38.5 -83t-98.5 -31zM625 322q-23 0 -37.5 -13.5t-14.5 -34.5q0 -22 14.5 -35t37.5 -13q22 0 36 13t14 35
q0 21 -14 34.5t-36 13.5zM625 162q-26 0 -42.5 -14t-16.5 -39q0 -24 16 -38.5t43 -14.5q26 0 41.5 14t15.5 39t-16 39t-41 14zM149 0l223 367l194 333h77l-223 -367l-194 -333h-77zM166 313q-77 0 -135 51l44 63q46 -38 90 -38q22 0 37.5 13t15.5 34q0 46 -72 46h-34l-10 54
l91 88h-139v76h243v-64l-99 -93q47 -6 76 -32t29 -73q0 -57 -37 -91t-100 -34z" />
    <glyph glyph-name="fiveeighths" unicode="&#x215d;" horiz-adv-x="794" 
d="M625 -9q-62 0 -100 31t-38 82q0 64 56 94q-47 29 -47 84q0 46 35.5 75.5t93.5 29.5q57 0 92.5 -29.5t35.5 -75.5q0 -55 -48 -84q57 -33 57 -93q0 -52 -38.5 -83t-98.5 -31zM625 322q-23 0 -37.5 -13.5t-14.5 -34.5q0 -22 14.5 -35t37.5 -13q22 0 36 13t14 35
q0 21 -14 34.5t-36 13.5zM625 162q-26 0 -42.5 -14t-16.5 -39q0 -24 16 -38.5t43 -14.5q26 0 41.5 14t15.5 39t-16 39t-41 14zM149 0l223 367l194 333h77l-223 -367l-194 -333h-77zM164 313q-69 0 -134 49l45 65q47 -37 89 -37q27 0 42.5 14.5t15.5 38.5q0 23 -15.5 36
t-43.5 13t-60 -12l-51 28l16 192h220v-76h-152l-6 -67q21 6 52 6q55 0 90 -30t35 -87q0 -61 -39 -97t-104 -36z" />
    <glyph glyph-name="seveneighths" unicode="&#x215e;" horiz-adv-x="794" 
d="M616 -9q-62 0 -100 31t-38 82q0 64 56 94q-47 29 -47 84q0 46 35.5 75.5t93.5 29.5q57 0 92.5 -29.5t35.5 -75.5q0 -55 -48 -84q57 -33 57 -93q0 -52 -38.5 -83t-98.5 -31zM616 322q-23 0 -37.5 -13.5t-14.5 -34.5q0 -22 14.5 -35t37.5 -13q22 0 36 13t14 35
q0 21 -14 34.5t-36 13.5zM616 162q-26 0 -42.5 -14t-16.5 -39q0 -24 16 -38.5t43 -14.5q26 0 41.5 14t15.5 39t-16 39t-41 14zM163 320h-92l144 301h-159v79h253v-64zM118 0l223 367l194 333h77l-223 -367l-194 -333h-77z" />
    <glyph glyph-name="Delta" unicode="&#x2206;" horiz-adv-x="672" 
d="M48 0l-12 107l224 597h152l225 -597l-12 -107h-577zM194 129h281l-141 396z" />
    <glyph glyph-name="minus" unicode="&#x2212;" horiz-adv-x="563" 
d="M508 285h-453v134h453v-134z" />
    <glyph glyph-name="Q.alt" horiz-adv-x="723" 
d="M534 -95l-87 95q-41 -12 -86 -12q-140 0 -228 99t-88 256v12q0 157 89 257t228 100q140 0 228 -99t88 -256v-12q0 -163 -96 -264l153 -173v-3h-201zM362 122q74 0 120 61t46 163v7q0 102 -46.5 163.5t-120.5 61.5t-120.5 -61t-46.5 -163v-7q0 -102 47 -163.5t121 -61.5z
" />
    <glyph glyph-name="a.alt" horiz-adv-x="586" 
d="M242 -10q-86 0 -145 70t-59 200v16q0 130 59 200t145 70q84 0 145 -79v69h142v-536h-142v74q-58 -84 -145 -84zM284 114q45 0 75 41t30 108v10q0 67 -30 108t-75 41t-74.5 -41t-29.5 -108v-10q0 -67 29.5 -108t74.5 -41z" />
    <glyph glyph-name="uni039E.alt" horiz-adv-x="636" 
d="M592 130v-130h-548v130h205v158h-179v129h179v153h-200v130h539v-130h-201v-153h180v-129h-180v-158h205z" />
    <glyph glyph-name="uni0424.bgr" horiz-adv-x="874" 
d="M365 -97v96q-147 11 -234 105t-87 244v3q0 148 87 242.5t234 107.5v96h145v-96q147 -12 233.5 -106t86.5 -243v-3q0 -149 -87.5 -243.5t-232.5 -106.5v-96h-145zM682 351q0 93 -47.5 152t-129.5 68v-443q83 8 130 66.5t47 152.5v4zM193 350q0 -94 47 -153t129 -69v443
q-83 -9 -129.5 -67t-46.5 -151v-3z" />
    <glyph glyph-name="uni0432.bgr" horiz-adv-x="571" 
d="M299 -12q-120 0 -184.5 63.5t-64.5 193.5v237q0 115 63 181t178 66q103 0 163 -54.5t60 -142.5v-1q0 -128 -118 -171q69 -19 104 -59.5t35 -111.5v-2q0 -89 -65.5 -144t-170.5 -55zM299 107q44 0 70 25.5t26 67.5q0 54 -35 79t-111 25h-59v-58q0 -139 109 -139zM190 486
v-78h61q61 0 92.5 29t31.5 81q0 41 -22.5 67t-62.5 26q-47 0 -73.5 -33.5t-26.5 -91.5z" />
    <glyph glyph-name="uni0433.bgr" horiz-adv-x="456" 
d="M199 -10q-81 0 -127 40t-46 112v2q0 59 37 99t117 76q66 29 86 42.5t20 31.5q0 37 -49 37q-59 0 -142 -51l-53 102q97 63 201 63q83 0 128.5 -40.5t45.5 -110.5v-2q0 -61 -37 -97t-119 -73q-63 -28 -83.5 -44t-20.5 -36q0 -37 49 -37q68 0 165 67l60 -100
q-112 -81 -232 -81z" />
    <glyph glyph-name="uni0434.bgr" horiz-adv-x="586" 
d="M264 -153q-108 0 -204 45l44 110q70 -39 152 -39q132 0 132 127v34q-64 -84 -150 -84q-85 0 -142.5 65.5t-57.5 186.5v3q0 120 58 185.5t142 65.5q85 0 149 -79v69h142v-438q0 -124 -61 -187q-65 -64 -204 -64zM284 162q46 0 75.5 36t29.5 95v1q0 58 -29.5 94t-75.5 36
t-75 -35.5t-29 -94.5v-1q0 -60 29 -95.5t75 -35.5z" />
    <glyph glyph-name="uni0436.bgr" horiz-adv-x="794" 
d="M466 722l-3 -391h32l130 205h159l-178 -262l184 -274h-160l-135 210h-32l3 -210h-138l2 210h-32l-134 -210h-160l185 267l-179 269h161l128 -205h31l-2 391h138z" />
    <glyph glyph-name="uni0438.bgr" horiz-adv-x="547" 
d="M211 -10q-75 0 -116.5 48.5t-41.5 132.5v365h141v-323q0 -95 76 -95q37 0 57.5 24.5t20.5 70.5v323h142v-536h-142v72q-57 -82 -137 -82z" />
    <glyph glyph-name="uni0439.bgr" horiz-adv-x="547" 
d="M211 -10q-75 0 -116.5 48.5t-41.5 132.5v365h141v-323q0 -95 76 -95q37 0 57.5 24.5t20.5 70.5v323h142v-536h-142v72q-57 -82 -137 -82zM272 584q-70 0 -115.5 38.5t-51.5 108.5h93q15 -56 74 -56t74 56h93q-6 -70 -51.5 -108.5t-115.5 -38.5z" />
    <glyph glyph-name="uni043A.bgr" horiz-adv-x="532" 
d="M527 0h-163l-133 208h-32v-208h-142v722h142v-389h30l128 203h166l-181 -261z" />
    <glyph glyph-name="uni043F.bgr" horiz-adv-x="548" 
d="M57 0v536h142v-72q59 82 138 82q74 0 116 -48.5t42 -132.5v-365h-142v323q0 95 -76 95q-36 0 -57 -24.5t-21 -70.5v-323h-142z" />
    <glyph glyph-name="uni0442.bgr" horiz-adv-x="834" 
d="M57 0v536h142v-72q58 82 139 82q91 0 132 -78q65 78 152 78q73 0 116 -46.5t43 -133.5v-366h-141v323q0 95 -74 95q-36 0 -56 -24.5t-20 -70.5v-323h-142v323q0 95 -73 95q-36 0 -56 -24.5t-20 -70.5v-323h-142z" />
    <glyph glyph-name="uni0446.bgr" horiz-adv-x="574" 
d="M426 -119v119h-78v72q-57 -82 -137 -82q-75 0 -116.5 48.5t-41.5 132.5v365h141v-323q0 -95 76 -95q37 0 57.5 24.5t20.5 70.5v323h142v-408h63v-247h-127z" />
    <glyph glyph-name="uni0448.bgr" horiz-adv-x="834" 
d="M777 536v-536h-141v72q-58 -82 -139 -82q-91 0 -133 78q-65 -78 -151 -78q-74 0 -117 46.5t-43 133.5v366h142v-323q0 -95 73 -95q36 0 56 24.5t20 70.5v323h142v-323q0 -95 74 -95q35 0 55.5 24.5t20.5 70.5v323h141z" />
    <glyph glyph-name="uni0449.bgr" horiz-adv-x="860" 
d="M712 -119v119h-76v72q-58 -82 -139 -82q-91 0 -133 78q-65 -78 -151 -78q-74 0 -117 46.5t-43 133.5v366h142v-323q0 -95 73 -95q36 0 56 24.5t20 70.5v323h142v-323q0 -95 74 -95q35 0 55.5 24.5t20.5 70.5v323h141v-408h62v-247h-127z" />
    <glyph glyph-name="uni044E.bgr" horiz-adv-x="796" 
d="M199 205v-205h-142v722h142v-386h72q18 94 84.5 152t156.5 58q106 0 176.5 -77t70.5 -196v-11q0 -119 -70.5 -196.5t-177.5 -77.5q-92 0 -158.5 59.5t-83.5 157.5h-70zM512 111q50 0 78 42.5t28 109.5v7q0 66 -29.5 109.5t-77.5 43.5q-49 0 -77 -42.5t-28 -109.5v-7
q0 -66 29.5 -109.5t76.5 -43.5z" />
    <glyph glyph-name="aacute.alt" horiz-adv-x="586" 
d="M244 589l104 168l119 -55l-121 -113h-102zM242 -10q-86 0 -145 70t-59 200v16q0 130 59 200t145 70q84 0 145 -79v69h142v-536h-142v74q-58 -84 -145 -84zM284 114q45 0 75 41t30 108v10q0 67 -30 108t-75 41t-74.5 -41t-29.5 -108v-10q0 -67 29.5 -108t74.5 -41z" />
    <glyph glyph-name="abreve.alt" horiz-adv-x="586" 
d="M242 -10q-86 0 -145 70t-59 200v16q0 130 59 200t145 70q84 0 145 -79v69h142v-536h-142v74q-58 -84 -145 -84zM284 114q45 0 75 41t30 108v10q0 67 -30 108t-75 41t-74.5 -41t-29.5 -108v-10q0 -67 29.5 -108t74.5 -41zM300 585q-70 0 -115.5 38.5t-51.5 108.5h93
q15 -56 74 -56t74 56h93q-6 -70 -51.5 -108.5t-115.5 -38.5z" />
    <glyph glyph-name="acircumflex.alt" horiz-adv-x="586" 
d="M127 589l109 151h128l109 -151h-105l-69 64l-69 -64h-103zM242 -10q-86 0 -145 70t-59 200v16q0 130 59 200t145 70q84 0 145 -79v69h142v-536h-142v74q-58 -84 -145 -84zM284 114q45 0 75 41t30 108v10q0 67 -30 108t-75 41t-74.5 -41t-29.5 -108v-10q0 -67 29.5 -108
t74.5 -41z" />
    <glyph glyph-name="adieresis.alt" horiz-adv-x="586" 
d="M327 590v126h134v-126h-134zM139 590v126h134v-126h-134zM242 -10q-86 0 -145 70t-59 200v16q0 130 59 200t145 70q84 0 145 -79v69h142v-536h-142v74q-58 -84 -145 -84zM284 114q45 0 75 41t30 108v10q0 67 -30 108t-75 41t-74.5 -41t-29.5 -108v-10q0 -67 29.5 -108
t74.5 -41z" />
    <glyph glyph-name="agrave.alt" horiz-adv-x="586" 
d="M242 -10q-86 0 -145 70t-59 200v16q0 130 59 200t145 70q84 0 145 -79v69h142v-536h-142v74q-58 -84 -145 -84zM284 114q45 0 75 41t30 108v10q0 67 -30 108t-75 41t-74.5 -41t-29.5 -108v-10q0 -67 29.5 -108t74.5 -41zM255 589l-121 113l119 55l104 -168h-102z" />
    <glyph glyph-name="amacron.alt" horiz-adv-x="586" 
d="M242 -10q-86 0 -145 70t-59 200v16q0 130 59 200t145 70q84 0 145 -79v69h142v-536h-142v74q-58 -84 -145 -84zM284 114q45 0 75 41t30 108v10q0 67 -30 108t-75 41t-74.5 -41t-29.5 -108v-10q0 -67 29.5 -108t74.5 -41zM140 593v97h320v-97h-320z" />
    <glyph glyph-name="aogonek.alt" horiz-adv-x="586" 
d="M536 -91v-68q-22 -3 -43 -3q-59 0 -91 22t-32 60t34 80h-17v74q-58 -84 -145 -84q-86 0 -145 70t-59 200v16q0 130 59 200t145 70q84 0 145 -79v69h142v-536h-30q-24 -28 -24 -55q0 -39 61 -36zM284 114q45 0 75 41t30 108v10q0 67 -30 108t-75 41t-74.5 -41t-29.5 -108
v-10q0 -67 29.5 -108t74.5 -41z" />
    <glyph glyph-name="aring.alt" horiz-adv-x="586" 
d="M300 585q-46 0 -78.5 31.5t-32.5 77.5t32.5 77.5t78.5 31.5t78.5 -31.5t32.5 -77.5t-32.5 -77.5t-78.5 -31.5zM300 635q24 0 41 17t17 42t-17 42.5t-41 17.5t-41 -17.5t-17 -42.5t17 -42t41 -17zM242 -10q-86 0 -145 70t-59 200v16q0 130 59 200t145 70q84 0 145 -79v69
h142v-536h-142v74q-58 -84 -145 -84zM284 114q45 0 75 41t30 108v10q0 67 -30 108t-75 41t-74.5 -41t-29.5 -108v-10q0 -67 29.5 -108t74.5 -41z" />
    <glyph glyph-name="aring.alt2" horiz-adv-x="518" 
d="M188 -10q-68 0 -113.5 43.5t-45.5 119.5v6q0 85 50.5 128t136.5 43q56 0 112 -22v16q0 46 -26.5 70t-74.5 24q-52 0 -123 -30l-39 111q59 29 107 37q-23 30 -23 66q0 46 32.5 77.5t78.5 31.5t78.5 -31.5t32.5 -77.5q0 -43 -29 -74q44 -16 69 -41q55 -55 55 -162v-325
h-139v58q-52 -68 -139 -68zM235 94q41 -1 68 22t27 60v45q-36 17 -79 17q-40 0 -62.5 -19.5t-22.5 -55.5v-2q0 -32 18.5 -49t50.5 -18zM260 543q24 0 41 17t17 42t-17 42.5t-41 17.5t-41 -17.5t-17 -42.5t17 -42t41 -17z" />
    <glyph glyph-name="aringacute.alt" horiz-adv-x="586" 
d="M245 833l106 136l118 -53l-120 -83h-104zM300 585q-46 0 -78.5 31.5t-32.5 77.5t32.5 77.5t78.5 31.5t78.5 -31.5t32.5 -77.5t-32.5 -77.5t-78.5 -31.5zM300 635q24 0 41 17t17 42t-17 42.5t-41 17.5t-41 -17.5t-17 -42.5t17 -42t41 -17zM242 -10q-86 0 -145 70t-59 200
v16q0 130 59 200t145 70q84 0 145 -79v69h142v-536h-142v74q-58 -84 -145 -84zM284 114q45 0 75 41t30 108v10q0 67 -30 108t-75 41t-74.5 -41t-29.5 -108v-10q0 -67 29.5 -108t74.5 -41z" />
    <glyph glyph-name="aringacute.alt2" horiz-adv-x="518" 
d="M204 743l106 136l118 -53l-120 -83h-104zM188 -10q-68 0 -113.5 43.5t-45.5 119.5v6q0 85 50.5 128t136.5 43q56 0 112 -22v16q0 46 -26.5 70t-74.5 24q-52 0 -123 -30l-39 111q59 29 107 37q-23 30 -23 66q0 46 32.5 77.5t78.5 31.5t78.5 -31.5t32.5 -77.5
q0 -43 -29 -74q44 -16 69 -41q55 -55 55 -162v-325h-139v58q-52 -68 -139 -68zM235 94q41 -1 68 22t27 60v45q-36 17 -79 17q-40 0 -62.5 -19.5t-22.5 -55.5v-2q0 -32 18.5 -49t50.5 -18zM260 543q24 0 41 17t17 42t-17 42.5t-41 17.5t-41 -17.5t-17 -42.5t17 -42t41 -17z
" />
    <glyph glyph-name="atilde.alt" horiz-adv-x="586" 
d="M242 -10q-86 0 -145 70t-59 200v16q0 130 59 200t145 70q84 0 145 -79v69h142v-536h-142v74q-58 -84 -145 -84zM284 114q45 0 75 41t30 108v10q0 67 -30 108t-75 41t-74.5 -41t-29.5 -108v-10q0 -67 29.5 -108t74.5 -41zM380 588q-31 0 -82 22q-42 16 -54 16
q-19 0 -28.5 -10.5t-19.5 -35.5l-76 22q16 66 40 97.5t68 31.5q28 0 82 -21q40 -17 54 -17q18 0 28 10.5t20 35.5l76 -22q-16 -66 -40 -97.5t-68 -31.5z" />
    <glyph glyph-name="i.dot" horiz-adv-x="267" 
d="M59 593v129h148v-129h-148zM62 0v536h142v-536h-142z" />
    <glyph glyph-name="uni0386.calt" horiz-adv-x="674" 
d="M17 0l251 704h138l251 -704h-150l-52 152h-241l-51 -152h-146zM258 280h153l-76 228z" />
    <glyph glyph-name="uni0388.calt" horiz-adv-x="569" 
d="M70 0v700h451v-131h-307v-151h270v-131h-270v-156h311v-131h-455z" />
    <glyph glyph-name="uni0389.calt" horiz-adv-x="660" 
d="M70 0v700h145v-281h230v281h145v-700h-145v285h-230v-285h-145z" />
    <glyph glyph-name="uni038A.calt" horiz-adv-x="295" 
d="M75 0v700h145v-700h-145z" />
    <glyph glyph-name="uni038C.calt" horiz-adv-x="723" 
d="M361 -12q-140 0 -228 99t-88 256v12q0 157 89 257t228 100q140 0 228 -99t88 -256v-12q0 -157 -89 -257t-228 -100zM362 122q74 0 120 61t46 163v7q0 102 -46.5 163.5t-120.5 61.5t-120.5 -61t-46.5 -163v-7q0 -102 47 -163.5t121 -61.5z" />
    <glyph glyph-name="uni038E.calt" horiz-adv-x="617" 
d="M236 0v276l-228 424h164l138 -275l139 275h160l-228 -422v-278h-145z" />
    <glyph glyph-name="uni038F.calt" horiz-adv-x="740" 
d="M371 712q143 0 226 -84.5t83 -226.5v-4q0 -149 -123 -270h136v-127h-269v124q50 53 78 112t28 143v2q0 94 -42.5 145.5t-117.5 51.5q-74 0 -116.5 -50.5t-42.5 -142.5v-2q0 -149 105 -259v-124h-268v127h135q-123 121 -123 270v4q0 137 84 224t227 87z" />
    <glyph glyph-name="uni0399.calt" horiz-adv-x="295" 
d="M75 0v700h145v-700h-145zM180 750v121h134v-121h-134zM-18 750v121h134v-121h-134z" />
    <glyph glyph-name="uni03A5.calt" horiz-adv-x="617" 
d="M236 0v276l-228 424h164l138 -275l139 275h160l-228 -422v-278h-145zM340 749v121h134v-121h-134zM142 749v121h134v-121h-134z" />
    <glyph glyph-name="uni0431.srb" horiz-adv-x="564" 
d="M280 -12q-108 0 -176 70t-68 181v4q0 89 45.5 151t131.5 78l-41 29q-30 21 -45 33.5t-27 33.5t-12 47q0 49 37 78t114 29h234v-122l-223 2q-25 0 -25 -16q0 -11 28 -28l104 -61q86 -50 128.5 -109t42.5 -142v-4q0 -111 -68.5 -182.5t-179.5 -71.5zM283 108q49 0 78 37
t29 99v2q0 63 -30.5 100t-76.5 37q-50 0 -79.5 -38.5t-29.5 -98.5v-2q0 -61 30.5 -98.5t78.5 -37.5z" />
    <glyph glyph-name="three.alt" horiz-adv-x="535" 
d="M260 -12q-138 0 -234 96l85 101q67 -65 146 -65q46 0 72.5 23.5t26.5 63.5v1q0 86 -131 86h-55v123h58q56 0 85 23.5t29 62.5v1q0 35 -25 55.5t-67 20.5q-62 0 -125 -65l-88 92q95 105 222 105q99 0 162 -50.5t63 -134.5v-1q0 -114 -98 -163q113 -45 113 -159v-2
q0 -94 -65 -154t-174 -60z" />
    <glyph glyph-name="registered.alt" horiz-adv-x="739" 
d="M369 -12q-138 0 -231 102.5t-93 253.5v11q0 151 93.5 254t231.5 103t231 -102.5t93 -253.5v-11q0 -151 -93.5 -254t-231.5 -103zM369 28q123 0 204 90.5t81 226.5v12q0 135 -80.5 225t-203.5 90t-204 -90.5t-81 -226.5v-12q0 -135 80.5 -225t203.5 -90zM238 167v385h141
q70 0 109 -39q32 -32 32 -86v-3q0 -84 -71 -114l81 -143h-91l-70 127h-51v-127h-80zM318 363h59q30 0 46.5 15.5t16.5 42.5v1q0 58 -65 58h-57v-117z" />
    <glyph glyph-name="one.sup_alt" 
d="M315 431h-256v72h92v223l-81 -32l-18 73l121 47h61v-311h81v-72z" />
    <glyph glyph-name="one.inf_alt" 
d="M315 -132h-256v72h92v223l-81 -32l-18 73l121 47h61v-311h81v-72z" />
    <glyph glyph-name="zero.num" 
d="M176 313q-66 0 -105.5 51.5t-39.5 141.5v9q0 91 40 142.5t106 51.5q64 0 104.5 -51.5t40.5 -141.5v-9q0 -90 -40.5 -142t-105.5 -52zM176 630q-59 0 -59 -115v-8q0 -116 60 -116q59 0 59 116v8q0 59 -16.5 87t-43.5 28z" />
    <glyph glyph-name="one.num" horiz-adv-x="287" 
d="M207 322h-85v293l-68 -27l-18 73l108 44h63v-383z" />
    <glyph glyph-name="one.num_alt" 
d="M315 322h-256v72h92v222l-81 -31l-18 73l121 47h61v-311h81v-72z" />
    <glyph glyph-name="two.num" 
d="M45 322v71l117 111q33 31 45 47.5t12 36.5q0 19 -13.5 30.5t-33.5 11.5q-34 0 -77 -46l-52 54q31 36 62 53.5t74 17.5q57 0 91.5 -30.5t34.5 -81.5q0 -34 -14.5 -61t-52.5 -62l-83 -77h151v-75h-261z" />
    <glyph glyph-name="three.num" 
d="M170 313q-77 0 -135 51l44 63q46 -38 90 -38q22 0 37.5 13t15.5 34q0 46 -72 46h-34l-10 54l91 88h-139v76h243v-64l-99 -93q47 -6 76 -32t29 -73q0 -57 -37 -91t-100 -34z" />
    <glyph glyph-name="four.num" 
d="M281 397v-77h-77v77h-166l-6 78l157 229h92v-239h45v-68h-45zM206 464v148h-2l-101 -148h103z" />
    <glyph glyph-name="five.num" 
d="M168 313q-69 0 -134 49l45 65q47 -37 89 -37q27 0 42.5 14.5t15.5 38.5q0 23 -15.5 36t-43.5 13t-60 -12l-51 28l16 192h220v-76h-152l-6 -67q21 6 52 6q55 0 90 -30t35 -87q0 -61 -39 -97t-104 -36z" />
    <glyph glyph-name="six.num" 
d="M179 313q-56 0 -93 35q-48 48 -48 148v6q0 100 40.5 153.5t116.5 53.5q57 0 104 -34l-36 -67q-31 25 -70 25q-30 0 -48.5 -21.5t-21.5 -62.5q29 20 72 20q50 0 83 -30.5t33 -90.5q0 -61 -37.5 -98t-94.5 -37zM177 385q24 0 39.5 16t15.5 43t-15 42.5t-40 15.5t-40 -15
t-15 -43q0 -27 15.5 -43t39.5 -16z" />
    <glyph glyph-name="seven.num" 
d="M159 320h-92l144 301h-159v79h253v-64z" />
    <glyph glyph-name="eight.num" 
d="M177 313q-62 0 -100 31t-38 82q0 64 56 94q-47 29 -47 84q0 46 35.5 75.5t93.5 29.5q57 0 92.5 -29.5t35.5 -75.5q0 -55 -48 -84q57 -33 57 -94q0 -51 -38.5 -82t-98.5 -31zM177 643q-23 0 -37.5 -13t-14.5 -34q0 -22 14.5 -35t37.5 -13q22 0 36 13t14 35q0 21 -14 34
t-36 13zM177 483q-26 0 -42.5 -14t-16.5 -38q0 -25 16 -39t43 -14q26 0 41.5 14t15.5 39q0 24 -16 38t-41 14z" />
    <glyph glyph-name="nine.num" 
d="M175 709q56 0 92 -36q48 -46 48 -148v-5q0 -100 -40.5 -153.5t-116.5 -53.5q-60 0 -110 36l35 68q35 -28 77 -28q29 0 48 21t21 59q-28 -20 -70 -20q-50 0 -83.5 31t-33.5 92t37.5 99t95.5 38zM176 516q25 0 40 15.5t15 44.5q0 28 -15.5 44t-39.5 16q-25 0 -40 -16
t-15 -44q0 -29 15 -44.5t40 -15.5z" />
    <glyph glyph-name="zero.den" 
d="M176 -9q-66 0 -105.5 51.5t-39.5 141.5v9q0 91 40 142.5t106 51.5q64 0 104.5 -51.5t40.5 -141.5v-9q0 -90 -40.5 -142t-105.5 -52zM176 309q-59 0 -59 -116v-8q0 -115 60 -115q59 0 59 115v8q0 59 -16.5 87.5t-43.5 28.5z" />
    <glyph glyph-name="one.den" horiz-adv-x="287" 
d="M207 0h-85v294l-68 -27l-18 72l108 44h63v-383z" />
    <glyph glyph-name="one.den_alt" 
d="M315 0h-256v72h92v223l-81 -32l-18 73l121 47h61v-311h81v-72z" />
    <glyph glyph-name="two.den" 
d="M45 0v72l117 111q33 31 45 47.5t12 35.5q0 20 -13.5 31.5t-33.5 11.5q-33 0 -77 -46l-52 53q31 36 62 53.5t74 17.5q57 0 91.5 -30.5t34.5 -81.5q0 -34 -14.5 -60.5t-52.5 -62.5l-83 -77h151v-75h-261z" />
    <glyph glyph-name="three.den" 
d="M170 -9q-75 0 -135 51l44 64q43 -38 90 -38q22 0 37.5 12.5t15.5 33.5q0 46 -72 46h-34l-10 54l91 89h-139v75h243v-64l-99 -93q47 -5 76 -31t29 -73q0 -57 -37 -91.5t-100 -34.5z" />
    <glyph glyph-name="four.den" 
d="M281 75v-77h-77v77h-166l-6 78l157 229h92v-239h45v-68h-45zM206 142v149h-2l-101 -149h103z" />
    <glyph glyph-name="five.den" 
d="M168 -9q-69 0 -134 49l45 65q47 -36 89 -36q27 0 42.5 14t15.5 38q0 23 -15.5 36t-43.5 13t-60 -12l-51 29l16 191h220v-76h-152l-6 -67q21 6 52 6q55 0 90 -29.5t35 -86.5q0 -62 -39 -98t-104 -36z" />
    <glyph glyph-name="six.den" 
d="M179 -9q-57 0 -93 36q-48 46 -48 148v5q0 100 40.5 153.5t116.5 53.5q56 0 104 -33l-36 -68q-31 25 -70 25q-30 0 -48.5 -21.5t-21.5 -62.5q29 20 72 20q50 0 83 -30.5t33 -90.5q0 -61 -37.5 -98t-94.5 -37zM177 64q24 0 39.5 15.5t15.5 42.5t-15 42.5t-40 15.5
q-55 0 -55 -58q0 -26 15.5 -42t39.5 -16z" />
    <glyph glyph-name="seven.den" 
d="M159 -2h-92l144 302h-159v78h253v-64z" />
    <glyph glyph-name="eight.den" 
d="M177 -9q-62 0 -100 31t-38 82q0 64 56 94q-47 29 -47 84q0 46 35.5 75.5t93.5 29.5q57 0 92.5 -29.5t35.5 -75.5q0 -55 -48 -84q57 -33 57 -93q0 -52 -38.5 -83t-98.5 -31zM177 322q-23 0 -37.5 -13.5t-14.5 -34.5q0 -22 14.5 -35t37.5 -13q22 0 36 13t14 35
q0 21 -14 34.5t-36 13.5zM177 162q-26 0 -42.5 -14t-16.5 -39q0 -24 16 -38.5t43 -14.5q26 0 41.5 14t15.5 39t-16 39t-41 14z" />
    <glyph glyph-name="nine.den" 
d="M175 387q55 0 92 -35q48 -48 48 -148v-6q0 -100 -40.5 -153.5t-116.5 -53.5q-60 0 -110 36l35 68q38 -28 77 -28q29 0 48 21t21 59q-28 -20 -70 -20q-50 0 -83.5 31t-33.5 92q0 62 37.5 99.5t95.5 37.5zM176 194q25 0 40 15.5t15 44.5q0 28 -15.5 44.5t-39.5 16.5
t-39.5 -16.5t-15.5 -44.5t15 -44t40 -16z" />
    <glyph glyph-name="onehalf.alt" horiz-adv-x="794" 
d="M311 322h-256v72h92v222l-81 -31l-18 73l121 47h61v-311h81v-72zM492 0v72l117 111q33 31 45 47.5t12 35.5q0 20 -13.5 31.5t-33.5 11.5q-33 0 -77 -46l-52 53q31 36 62 53.5t74 17.5q57 0 91.5 -30.5t34.5 -81.5q0 -34 -14.5 -60.5t-52.5 -62.5l-83 -77h151v-75h-261z
M166 0l223 367l194 333h77l-223 -367l-194 -333h-77z" />
    <glyph glyph-name="onethird.alt" horiz-adv-x="794" 
d="M311 322h-256v72h92v222l-81 -31l-18 73l121 47h61v-311h81v-72zM618 -9q-75 0 -135 51l44 64q43 -38 90 -38q22 0 37.5 12.5t15.5 33.5q0 46 -72 46h-34l-10 54l91 89h-139v75h243v-64l-99 -93q47 -5 76 -31t29 -73q0 -57 -37 -91.5t-100 -34.5zM158 0l223 367l194 333
h77l-223 -367l-194 -333h-77z" />
    <glyph glyph-name="onequarter.alt" horiz-adv-x="794" 
d="M312 322h-256v72h92v222l-81 -31l-18 73l121 47h61v-311h81v-72zM173 0l223 367l194 333h77l-223 -367l-194 -333h-77zM718 75v-77h-77v77h-166l-6 78l157 229h92v-239h45v-68h-45zM643 142v149h-2l-101 -149h103z" />
    <glyph glyph-name="onefifth.alt" horiz-adv-x="794" 
d="M311 322h-256v72h92v222l-81 -31l-18 73l121 47h61v-311h81v-72zM617 -9q-69 0 -134 49l45 65q47 -36 89 -36q27 0 42.5 14t15.5 38q0 23 -15.5 36t-43.5 13t-60 -12l-51 29l16 191h220v-76h-152l-6 -67q21 6 52 6q55 0 90 -29.5t35 -86.5q0 -62 -39 -98t-104 -36zM163 0
l223 367l194 333h77l-223 -367l-194 -333h-77z" />
    <glyph glyph-name="onesixth.alt" horiz-adv-x="794" 
d="M627 -9q-57 0 -93 36q-48 46 -48 148v5q0 100 40.5 153.5t116.5 53.5q56 0 104 -33l-36 -68q-31 25 -70 25q-30 0 -48.5 -21.5t-21.5 -62.5q29 20 72 20q50 0 83 -30.5t33 -90.5q0 -61 -37.5 -98t-94.5 -37zM311 322h-256v72h92v222l-81 -31l-18 73l121 47h61v-311h81
v-72zM164 0l223 367l194 333h77l-223 -367l-194 -333h-77zM625 64q24 0 39.5 15.5t15.5 42.5t-15 42.5t-40 15.5q-55 0 -55 -58q0 -26 15.5 -42t39.5 -16z" />
    <glyph glyph-name="oneeighth.alt" horiz-adv-x="794" 
d="M310 322h-256v72h92v222l-81 -31l-18 73l121 47h61v-311h81v-72zM626 -9q-62 0 -100 31t-38 82q0 64 56 94q-47 29 -47 84q0 46 35.5 75.5t93.5 29.5q57 0 92.5 -29.5t35.5 -75.5q0 -55 -48 -84q57 -33 57 -93q0 -52 -38.5 -83t-98.5 -31zM626 322q-23 0 -37.5 -13.5
t-14.5 -34.5q0 -22 14.5 -35t37.5 -13q22 0 36 13t14 35q0 21 -14 34.5t-36 13.5zM626 162q-26 0 -42.5 -14t-16.5 -39q0 -24 16 -38.5t43 -14.5q26 0 41.5 14t15.5 39t-16 39t-41 14zM163 0l223 367l194 333h77l-223 -367l-194 -333h-77z" />
    <glyph glyph-name="zero.tab" horiz-adv-x="530" 
d="M264 -11q-110 0 -171 90.5t-61 258.5v22q0 168 61.5 259.5t171.5 91.5q108 0 170 -91t62 -258v-22q0 -168 -62 -259.5t-171 -91.5zM264 586q-93 0 -93 -225v-21q0 -226 94 -226q93 0 93 225v21q0 226 -94 226z" />
    <glyph glyph-name="one.tab" horiz-adv-x="530" 
d="M499 0h-439v117h160v439l-143 -57l-25 124l210 82h97v-588h140v-117z" />
    <glyph glyph-name="two.tab" horiz-adv-x="530" 
d="M484 0h-443v115l200 219q54 59 75 94.5t21 69.5q0 39 -23.5 59.5t-59.5 20.5t-65.5 -21t-63.5 -62l-91 88q48 65 103 96t129 31q98 0 156.5 -53.5t58.5 -144.5v-3q0 -61 -24.5 -107.5t-82.5 -111.5l-147 -161h257v-129z" />
    <glyph glyph-name="three.tab" horiz-adv-x="530" 
d="M247 -12q-131 0 -225 89l81 107q71 -65 142 -65q43 0 70.5 25t27.5 67v2q0 94 -138 94h-43l-18 89l158 176h-245v128h418v-116l-168 -175q78 -13 128 -60t50 -131v-3q0 -101 -66 -164t-172 -63z" />
    <glyph glyph-name="three.tab_alt" horiz-adv-x="530" 
d="M253 -12q-132 0 -227 93l81 101q67 -65 146 -65q46 0 72.5 25t26.5 66t-35 65t-99 24h-51v118h56q56 0 87 25t31 65q0 36 -25.5 57.5t-66.5 20.5q-68 -1 -129 -66l-84 93q93 102 223 102q100 0 162 -50.5t62 -138.5q0 -110 -103 -159q112 -47 112 -166q0 -94 -66 -152
t-173 -58z" />
    <glyph glyph-name="four.tab" horiz-adv-x="530" 
d="M308 0v141h-270l-18 127l255 436h164v-448h73v-115h-73v-141h-131zM310 255v278h-3l-166 -278h169z" />
    <glyph glyph-name="five.tab" horiz-adv-x="530" 
d="M244 -12q-123 0 -216 82l73 109q77 -62 143 -62q48 0 77 28t29 78v1q0 46 -29 72t-80 26q-50 0 -100 -24l-80 52l22 350h376v-128h-262l-9 -138q42 11 84 11q93 0 155.5 -53t62.5 -162v-2q0 -109 -69.5 -174.5t-176.5 -65.5z" />
    <glyph glyph-name="six.tab" horiz-adv-x="530" 
d="M300 455q85 0 141 -55.5t56 -161.5v-8q0 -107 -63.5 -174.5t-161.5 -67.5q-96 0 -156 58q-40 41 -59.5 105t-19.5 173v9q0 187 67 282.5t196 95.5q98 0 172 -55l-61 -115q-58 42 -113 42q-60 0 -90.5 -49t-33.5 -121q56 42 126 42zM267 110q44 0 69.5 31t25.5 82v2
q0 53 -25 83.5t-70 30.5q-44 0 -69 -30.5t-25 -83.5v-2q0 -51 25.5 -82t68.5 -31z" />
    <glyph glyph-name="seven.tab" horiz-adv-x="530" 
d="M332 568h-281v132h437v-109l-254 -591h-156z" />
    <glyph glyph-name="eight.tab" horiz-adv-x="530" 
d="M265 -10q-101 0 -165 55.5t-64 146.5v4q0 117 98 168q-83 51 -83 152v3q0 82 59.5 136.5t154.5 54.5q94 0 153.5 -54.5t59.5 -136.5v-3q0 -101 -83 -152q98 -55 98 -166v-4q0 -94 -63.5 -149t-164.5 -55zM265 413q36 0 58.5 25t22.5 66v3q0 40 -22.5 64.5t-58.5 24.5
q-37 0 -59.5 -24.5t-22.5 -64.5v-3q0 -41 22.5 -66t59.5 -25zM265 105q43 0 68 26t25 72v3q0 45 -26 70.5t-67 25.5q-42 0 -68 -25.5t-26 -70.5v-3q0 -46 25 -72t69 -26z" />
    <glyph glyph-name="nine.tab" horiz-adv-x="530" 
d="M229 238q-84 0 -140 56.5t-56 163.5v9q0 109 63.5 177t161.5 68q95 0 156 -59q39 -39 58.5 -103.5t19.5 -173.5v-9q0 -187 -66.5 -282.5t-195.5 -95.5q-102 0 -182 59l61 115q66 -46 122 -46q59 0 89 46.5t34 114.5q-56 -40 -125 -40zM262 590q-43 0 -68.5 -32t-25.5 -85
v-1q0 -55 25 -86.5t69 -31.5t69.5 31.5t25.5 86.5v1q0 53 -26 85t-69 32z" />
    <glyph glyph-name="dollar.tab" horiz-adv-x="530" 
d="M366 778l-10 -84q76 -17 132 -62l-63 -106q-46 33 -87 47l-21 -168q92 -41 133.5 -88t41.5 -117q0 -90 -59 -144.5t-153 -58.5l-12 -112h-93l13 121q-94 21 -164 82l66 105q58 -48 116 -67l20 174q-92 40 -132 86.5t-40 116.5v1q0 88 57.5 141.5t152.5 57.5l8 75h94z
M361 192q0 41 -53 72l-18 -148q71 9 71 75v1zM185 515q0 -22 11 -38.5t40 -33.5l18 142q-34 -4 -51.5 -22.5t-17.5 -47.5z" />
    <glyph glyph-name="sterling.tab" horiz-adv-x="530" 
d="M109 393v89q0 111 62 173q57 55 149 55q111 0 181 -85l-88 -97q-44 47 -87 47q-31 0 -49 -19q-24 -24 -24 -75v-88h177v-120h-177v-148h241v-125h-450v93l65 25v155h-63v120h63z" />
    <glyph glyph-name="Euro.tab" horiz-adv-x="530" 
d="M25 387v95h73q24 110 88 169.5t158 59.5q99 0 170 -73l-74 -102q-46 48 -94 48q-78 0 -107 -102h142v-95h-155v-30v-12v-28h155v-95h-144q27 -106 107 -106q49 0 97 51l75 -96q-77 -82 -179 -82q-92 0 -155.5 60.5t-85.5 172.5h-71v95h62v27v11v32h-62z" />
    <glyph glyph-name="yen.tab" horiz-adv-x="530" 
d="M65 190h133v69h-133v96h108l-168 345h151l110 -262l111 262h147l-168 -345h109v-96h-132v-69h132v-97h-132v-93h-135v93h-133v97z" />
    <glyph glyph-name="cent.tab" horiz-adv-x="530" 
d="M398 706l-13 -91q57 -17 102 -63l-71 -93q-29 27 -50 37l-43 -295q50 7 95 53l69 -88q-72 -78 -176 -84l-13 -88h-97l15 101q-74 25 -119 90.5t-45 158.5v11q0 116 66.5 191t170.5 80l12 80h97zM182 346q0 -89 54 -126l40 284q-43 -10 -68.5 -49t-25.5 -102v-7z" />
    <glyph glyph-name="numbersign.tab" horiz-adv-x="530" 
d="M23 273h76l20 158h-69v118h83l19 151h104l-19 -151h103l18 151h104l-19 -151h63v-118h-77l-20 -158h70v-118h-84l-19 -155h-104l19 155h-102l-19 -155h-104l19 155h-62v118zM220 434l-20 -164h108l20 164h-108z" />
    <glyph glyph-name="paragraph.tab" horiz-adv-x="530" 
d="M309 0v228h-17q-114 2 -186.5 62.5t-72.5 173.5t71.5 174.5t188.5 61.5h161v-700h-145z" />
    <glyph glyph-name="section.tab" horiz-adv-x="530" 
d="M262 -9q-108 0 -185 68l63 90q58 -49 119 -49q51 0 51 37q0 18 -21 32t-80 34q-96 33 -135 64t-39 85v1q0 86 96 116q-42 39 -42 95q0 63 49.5 104t129.5 41q108 0 185 -68l-63 -90q-58 49 -119 49q-51 0 -51 -37q0 -18 21 -32t80 -34q96 -33 135 -64t39 -85v-1
q0 -86 -96 -116q42 -39 42 -95q0 -63 -49.5 -104t-129.5 -41zM203 414q-21 0 -34 -11.5t-13 -30.5v-1q0 -21 18 -33.5t63 -28.5q69 -23 90 -23t34 11.5t13 30.5v1q0 21 -18 33.5t-63 28.5q-69 23 -90 23z" />
    <glyph glyph-name="degree.tab" horiz-adv-x="530" 
d="M264 299q-78 0 -133 59t-55 144v4q0 85 56 144t134 59t132.5 -59t54.5 -144v-4q0 -85 -55.5 -144t-133.5 -59zM265 383q45 0 72.5 33.5t27.5 85.5v4q0 52 -28 85.5t-73 33.5t-72.5 -33.5t-27.5 -85.5v-4q0 -52 28 -85.5t73 -33.5z" />
    <glyph glyph-name="percent.tab" horiz-adv-x="530" 
d="M134 706q53 0 83.5 -47.5t30.5 -132.5v-17q0 -83 -30.5 -131.5t-83.5 -48.5t-83.5 47.5t-30.5 132.5v17q0 85 30.5 132.5t83.5 47.5zM395 371q53 0 83.5 -47.5t30.5 -132.5v-17q0 -85 -30.5 -132.5t-83.5 -47.5t-83.5 47.5t-30.5 132.5v17q0 83 30.5 131.5t83.5 48.5z
M391 700h72l-178 -362l-146 -338h-73l179 362zM395 294q-35 0 -35 -100v-23q0 -100 35 -100t35 100v23q0 100 -35 100zM135 629q-36 0 -36 -100v-23q0 -100 36 -100q34 0 34 100v23q0 100 -34 100z" />
    <glyph glyph-name="quotedbl.tab" horiz-adv-x="530" 
d="M300 381l27 319h155v-6l-114 -313h-68zM77 381l27 319h155v-6l-114 -313h-68z" />
    <glyph glyph-name="quotesingle.tab" horiz-adv-x="265" 
d="M56 381l27 319h156v-6l-114 -313h-69z" />
    <glyph glyph-name="period.tab" horiz-adv-x="265" 
d="M56 0v160h153v-160h-153z" />
    <glyph glyph-name="comma.tab" horiz-adv-x="265" 
d="M37 -161l-12 59q49 7 72 34t19 68h-60v160h153v-135q0 -178 -172 -186z" />
    <glyph glyph-name="colon.tab" horiz-adv-x="265" 
d="M57 379v157h150v-157h-150zM57 0v157h150v-157h-150z" />
    <glyph glyph-name="semicolon.tab" horiz-adv-x="265" 
d="M57 379v157h150v-157h-150zM37 -161l-12 59q49 7 72 34t19 68h-59v157h150v-132q0 -178 -170 -186z" />
    <glyph glyph-name="twodotleader.tab" horiz-adv-x="530" 
d="M324 0v153h146v-153h-146zM59 0v153h147v-153h-147z" />
    <glyph glyph-name="periodcentered.tab" horiz-adv-x="265" 
d="M56 230v160h153v-160h-153z" />
    <glyph glyph-name="slash.tab" horiz-adv-x="530" 
d="M527 790l-416 -910h-120l415 910h121z" />
    <glyph glyph-name="bar.tab" horiz-adv-x="265" 
d="M76 -120v910h112v-910h-112z" />
    <glyph glyph-name="underscore.tab" horiz-adv-x="530" 
d="M-2 -157v109h534v-109h-534z" />
    <glyph glyph-name="plus.tab" horiz-adv-x="530" 
d="M483 290h-155v-159h-127l1 159h-156v124h156l-1 159h127v-159h155v-124z" />
    <glyph glyph-name="minus.tab" horiz-adv-x="530" 
d="M483 285h-436v134h436v-134z" />
    <glyph glyph-name="divide.tab" horiz-adv-x="530" 
d="M194 484v135h142v-135h-142zM483 291h-436v122h436v-122zM194 85v135h142v-135h-142z" />
    <glyph glyph-name="equal.tab" horiz-adv-x="530" 
d="M471 405h-413v128h413v-128zM471 171h-413v128h413v-128z" />
    <glyph glyph-name="multiply.tab" horiz-adv-x="530" 
d="M392 130l-128 135l-128 -135l-90 86l134 135l-134 136l91 87l129 -135l128 135l90 -86l-135 -135l135 -136z" />
    <glyph glyph-name="less.tab" horiz-adv-x="530" 
d="M464 83l-411 205v128l411 205v-140l-276 -128l276 -128v-142z" />
    <glyph glyph-name="greater.tab" horiz-adv-x="530" 
d="M477 288l-412 -205v140l276 128l-276 128v142l412 -205v-128z" />
    <glyph glyph-name="plusminus.tab" horiz-adv-x="530" 
d="M483 356l-155 1v-156h-127l1 156l-156 -1v125l156 -1l-1 157h127v-157l155 1v-125zM483 0h-436v119h436v-119z" />
    <glyph glyph-name="R_p" horiz-adv-x="1062" 
d="M62 0v700h216q110 0 173 -59t63 -168v-5q0 -142 -114 -201l131 -267h-153l-111 235h-70v-235h-135zM597 -151v687h132v-72q52 82 128 82t126 -66.5t50 -198.5v-26q0 -131 -50 -198t-126 -67q-75 0 -128 78v-219h-132zM813 109q38 0 61.5 39.5t23.5 108.5v22
q0 69 -23.5 108.5t-61.5 39.5t-62 -40t-24 -108v-22q0 -68 24 -108t62 -40zM197 356h76q48 0 76.5 28.5t28.5 80.5v2q0 108 -107 108h-74v-219z" />
    <glyph glyph-name="hcoslug" horiz-adv-x="694" 
d="M273 18h-26q0 -12 10 -12q8 0 9 7h7q-3 -14 -18 -14q-21 0 -21 20q0 9 6 15t14 6q21 0 19 -22zM254 35q-7 0 -7 -12h14q0 12 -7 12zM195 78q8 0 8 16q0 15 -8 15t-8 -15q0 -16 8 -16zM210 4q8 0 8 16q0 15 -8 15t-8 -15q0 -16 8 -16zM210 -1q-21 0 -21 21q0 20 21 20
t21 -20q0 -9 -6 -15t-15 -6zM546 4q8 0 8 16q0 15 -8 15t-8 -15q0 -16 8 -16zM546 -1q-21 0 -21 21q0 20 21 20t21 -20q0 -9 -6 -15t-15 -6zM125 74v7h7v41h-7v7h51v-20h-8q-2 13 -11 13h-12v-18h4q5 0 6 8h7v-23h-7q-1 8 -6 8h-4v-16h10v-7h-30zM195 73q-21 0 -21 21
q0 20 21 20t21 -20q0 -9 -6 -15t-15 -6zM644 -100v800h-594v-800h594zM498 -1q-29 0 -29 28q0 13 8 21.5t19 8.5q9 0 16 -7l1 6h8v-22h-8q-5 16 -15 16q-14 0 -14 -22t16 -22q12 0 14 16h8q-2 -23 -24 -23zM372 80q7 0 7 13t-7 13q-8 0 -8 -13t8 -13zM276 0v7h6v25h-7v7h7v1
q0 19 19 19q5 0 9 -2l10 2v-52h6v-7h-23v7h5v25h-14v-25h5v-7h-23zM368 0v7h6v25h-6v7h18v-10q4 11 12 11t8 -8q0 -7 -7 -7q-6 0 -6 6v1q-3 0 -7 -9v-16h8v-7h-26zM352 73v52h-6v7h18v-27q3 9 13 9q15 0 15 -20q0 -21 -16 -21q-9 0 -14 8l-4 -8h-6zM400 75q5 0 6.5 -4
t-1.5 -6q6 0 8 8l-16 33h-5v7h25v-7h-6l9 -20l8 20h-5v7h17v-7h-5l-13 -31q-6 -16 -18 -16q-11 0 -11 9q0 7 7 7zM247 428q0 13 7.5 21t19.5 8q13 0 21 -10.5t8 -27.5q0 -22 -18 -50q-15 14 -21 20.5t-11.5 17t-5.5 21.5zM302 74v14h7q6 -9 12 -9q5 0 5 4q0 3 -12 6.5
t-12 12.5q0 12 14 12q8 0 11 -5l2 5h6v-13h-7q-5 7 -10 7t-5 -4q0 -3 12 -6t12 -12q0 -13 -14 -13q-5 0 -13 5l-1 -4h-7zM261 219q-22 0 -37 15.5t-15 38.5q0 24 16 40q34 -32 74 -82q-15 -12 -38 -12zM274 122l12 2v-11h13v-7h-13v-20q0 -5 4 -5t5 7l5 -2q-3 -13 -14 -13
q-12 0 -12 13v20h-7v7h7v9zM428 306q-26 -16 -46 -42q35 -41 62 -41q26 0 43 29l7 -2q-1 -43 -24 -68.5t-56 -25.5q-41 0 -85 45q-41 -45 -104 -45q-45 0 -77 27t-32 66q0 63 82 91q-31 32 -31 69q0 34 30.5 59.5t78.5 25.5q44 0 69.5 -22.5t25.5 -51.5q0 -19 -9 -34
q46 2 49 -37q25 38 60 38q21 0 35.5 -14.5t14.5 -37.5t-14.5 -38.5t-35.5 -15.5q-28 0 -43 25zM219 74v7h6v25h-6v7h17v-10q5 11 14 11q12 0 12 -14v-19h6v-7h-22v7h4v18q0 7 -6 7q-7 0 -7 -10v-15h4v-7h-22zM446 33h18v-7h-5q-3 -6 -9 -14q3 -5 6 -5t4 5l5 -1
q-3 -12 -13 -12q-7 0 -12 6q-6 -6 -15 -6q-18 0 -18 14q0 11 13 15q-6 6 -6 12q0 14 17 14q14 0 14 -12q0 -7 -11 -12q3 -3 6.5 -7t5.5 -6q4 5 6 9h-6v7zM429 6q3 0 8 3q-10 12 -14 16q-4 -4 -4 -9q0 -10 10 -10zM294 42v-3h14v5q-6 0 -6 6l1 3q-1 1 -3 1q-6 0 -6 -12z
M425 43q0 -4 6 -10q5 3 5 9t-6 6q-5 0 -5 -5zM312 342q30 20 42 34q29 -29 -1 -80q-33 38 -41 46zM366 18h-26q0 -12 10 -12q8 0 9 7h7q-4 -14 -18 -14q-21 0 -21 20q0 9 6 15t14 6q21 0 19 -22zM347 35q-7 0 -7 -12h14q0 12 -7 12zM124 0v7h8v41h-8v7h29v-7h-8v-16h22v16
h-8v7h29v-7h-8v-41h8v-7h-29v7h8v18h-22v-18h8v-7h-29zM576 13q7 0 7 -7t-7 -7t-7 7t7 7z" />
    <glyph glyph-name="space.tab" horiz-adv-x="265" 
 />
    <glyph glyph-name="NUL" horiz-adv-x="0" 
 />
    <glyph glyph-name="caron.alt" horiz-adv-x="500" 
d="M192 582l10 190h100v-3l-53 -187h-57z" />
    <glyph glyph-name="descendercyrillic" horiz-adv-x="500" 
d="M184 -119l9 186h114l9 -186h-132z" />
    <glyph glyph-name="descendercyrillic.cap" horiz-adv-x="500" 
d="M181 -133l8 209h122l8 -209h-138z" />
    <glyph glyph-name="straightdescendercyrillic" horiz-adv-x="500" 
d="M186 -119v247h127v-247h-127z" />
    <glyph glyph-name="straightdescendercyrillic.cap" horiz-adv-x="500" 
d="M183 -133v133h-2v133h136v-266h-134z" />
    <glyph glyph-name="acute.cap" horiz-adv-x="500" 
d="M146 749l111 148l122 -55l-125 -93h-108z" />
    <glyph glyph-name="hungarumlaut.cap" horiz-adv-x="500" 
d="M54 749l110 148l116 -55l-124 -93h-102zM222 749l111 148l115 -55l-123 -93h-103z" />
    <glyph glyph-name="grave.cap" horiz-adv-x="500" 
d="M349 749h-108l-125 93l122 55z" />
    <glyph glyph-name="circumflex.cap" horiz-adv-x="500" 
d="M73 749l112 139h130l112 -139h-110l-68 54l-68 -54h-108z" />
    <glyph glyph-name="caron.cap" horiz-adv-x="500" 
d="M427 888l-112 -139h-130l-112 139h110l68 -54l68 54h108z" />
    <glyph glyph-name="breve.cap" horiz-adv-x="500" 
d="M250 746q-72 0 -117.5 36t-50.5 102h94q16 -47 74 -47t74 47h94q-5 -66 -50.5 -102t-117.5 -36z" />
    <glyph glyph-name="tilde.cap" horiz-adv-x="500" 
d="M328 749q-31 0 -86 21q-39 16 -55 16q-18 0 -28.5 -10.5t-19.5 -34.5l-77 22q16 66 41 97.5t69 31.5q35 0 87 -22q41 -15 54 -15q18 0 28 10.5t20 35.5l77 -23q-16 -66 -41 -97.5t-69 -31.5z" />
    <glyph glyph-name="macron.cap" horiz-adv-x="500" 
d="M80 753v99h340v-99h-340z" />
    <glyph glyph-name="dieresis.cap" horiz-adv-x="500" 
d="M282 750v121h134v-121h-134zM84 750v121h134v-121h-134z" />
    <glyph glyph-name="dotaccent.cap" horiz-adv-x="500" 
d="M181 750v121h138v-121h-138z" />
    <glyph glyph-name="ring.cap" horiz-adv-x="500" 
d="M250 746q-47 0 -80 29t-33 73t33 73t80 29t80 -29t33 -73t-33 -73t-80 -29zM250 797q24 0 40 15t16 36q0 22 -15.5 36.5t-40.5 14.5t-40.5 -14.5t-15.5 -36.5q0 -21 16 -36t40 -15z" />
    <glyph glyph-name="uni0384.cap" horiz-adv-x="500" 
d="M181 509l10 191h130l-67 -191h-73z" />
    <glyph glyph-name="commaaccent.rot" horiz-adv-x="500" 
d="M317 808l7 -44q-37 -4 -54 -20.5t-15 -45.5h59v-108h-128v92q0 65 32.5 94.5t98.5 31.5z" />
    </font>
</defs>
</svg>
